<svg width="669" height="587" viewBox="0 0 669 587" fill="none" xmlns="http://www.w3.org/2000/svg">
<g clip-path="url(#clip0)">
<line x1="153.5" y1="373.5" x2="166.5" y2="373.5" stroke="#1CC886" stroke-width="3" stroke-linecap="round"/>
<line x1="177.5" y1="373.5" x2="190.5" y2="373.5" stroke="#D1DCDF" stroke-width="3" stroke-linecap="round"/>
<line x1="225.5" y1="373.5" x2="238.5" y2="373.5" stroke="#D1DCDF" stroke-width="3" stroke-linecap="round"/>
<line x1="201.5" y1="373.5" x2="214.5" y2="373.5" stroke="#D1DCDF" stroke-width="3" stroke-linecap="round"/>
<path d="M659.602 319.867C693.909 398.514 624.112 504.849 503.706 557.373C383.3 609.896 257.88 588.719 223.572 510.073C189.265 431.426 258.927 458.966 379.333 406.442C499.74 353.919 625.295 241.221 659.602 319.867Z" fill="url(#paint0_linear)"/>
<g opacity="0.45">
<path opacity="0.45" d="M280.925 161.392C280.927 161.693 280.947 161.992 280.987 162.29C280.947 161.992 280.926 161.693 280.925 161.392V161.392Z" fill="#1CC886"/>
<path opacity="0.45" d="M361.271 142.141C361.271 142.222 361.271 142.297 361.309 142.378C361.296 142.297 361.284 142.222 361.271 142.141Z" fill="#1CC886"/>
<path opacity="0.45" d="M361.103 141.35C361.103 141.431 361.147 141.518 361.165 141.599C361.147 141.512 361.128 141.431 361.103 141.35Z" fill="#1CC886"/>
<path opacity="0.45" d="M361.184 162.894C361.184 163.031 361.116 163.168 361.078 163.299C361.122 163.168 361.153 163.031 361.184 162.894Z" fill="#1CC886"/>
<path opacity="0.45" d="M361.296 162.24C361.296 162.383 361.259 162.533 361.228 162.676C361.259 162.533 361.284 162.383 361.296 162.24Z" fill="#1CC886"/>
<path opacity="0.45" d="M284.64 167.506C284.104 167.225 283.607 166.875 283.163 166.465C283.607 166.875 284.104 167.225 284.64 167.506V167.506Z" fill="#1CC886"/>
<path opacity="0.45" d="M283.106 166.422C282.899 166.226 282.703 166.018 282.521 165.798C282.703 166.018 282.899 166.226 283.106 166.422V166.422Z" fill="#1CC886"/>
<path opacity="0.45" d="M401.675 298.162C401.594 297.888 401.497 297.619 401.382 297.358C401.497 297.619 401.594 297.888 401.675 298.162V298.162Z" fill="#1CC886"/>
<path opacity="0.45" d="M398.241 294.011C398.513 294.153 398.776 294.313 399.026 294.491C398.776 294.313 398.513 294.153 398.241 294.011Z" fill="#1CC886"/>
<path opacity="0.45" d="M399.787 295.108C400.209 295.505 400.579 295.953 400.89 296.442C400.579 295.953 400.209 295.505 399.787 295.108V295.108Z" fill="#1CC886"/>
<path opacity="0.45" d="M399.026 294.503C399.255 294.666 399.473 294.843 399.681 295.033C399.474 294.843 399.255 294.666 399.026 294.503Z" fill="#1CC886"/>
<path opacity="0.45" d="M401.32 297.239C401.217 297.025 401.102 296.817 400.977 296.616C401.102 296.817 401.217 297.025 401.32 297.239Z" fill="#1CC886"/>
<path opacity="0.45" d="M401.862 299.015C401.824 298.786 401.774 298.56 401.713 298.336C401.774 298.56 401.824 298.786 401.862 299.015Z" fill="#1CC886"/>
<path opacity="0.45" d="M609.801 261.212H570.133C571.048 260.577 571.796 259.73 572.313 258.744C572.83 257.757 573.1 256.66 573.1 255.547V237.336C573.1 236.43 572.921 235.533 572.574 234.696C572.228 233.859 571.719 233.099 571.079 232.458C570.438 231.818 569.678 231.309 568.841 230.963C568.004 230.616 567.106 230.437 566.2 230.437H520.555C521.95 229.992 523.167 229.116 524.03 227.934C524.894 226.752 525.36 225.326 525.36 223.863V205.646C525.36 204.533 525.091 203.436 524.574 202.449C524.057 201.462 523.309 200.616 522.394 199.981H566.219C568.049 199.981 569.804 199.254 571.098 197.961C572.391 196.667 573.118 194.912 573.118 193.082V174.866C573.118 173.036 572.391 171.282 571.098 169.988C569.804 168.694 568.049 167.967 566.219 167.967H517.439C518.834 167.522 520.051 166.645 520.914 165.463C521.778 164.282 522.244 162.856 522.244 161.392V143.176C522.244 142.062 521.974 140.965 521.458 139.979C520.941 138.992 520.193 138.145 519.278 137.511H566.225C568.055 137.511 569.81 136.784 571.104 135.49C572.398 134.196 573.124 132.442 573.124 130.612V112.396C573.126 111.486 572.948 110.585 572.6 109.744C572.252 108.904 571.741 108.141 571.097 107.498C570.453 106.856 569.688 106.347 568.847 106.002C568.005 105.656 567.104 105.48 566.194 105.484H541.62C543.015 105.039 544.232 104.162 545.095 102.98C545.959 101.799 546.425 100.373 546.425 98.9094V80.7117C546.425 78.882 545.699 77.1272 544.405 75.8334C543.111 74.5396 541.356 73.8127 539.526 73.8127H472.897C471.068 73.8127 469.313 74.5396 468.019 75.8334C466.725 77.1272 465.998 78.882 465.998 80.7117C465.998 78.882 465.271 77.1272 463.977 75.8334C462.684 74.5396 460.929 73.8127 459.099 73.8127H392.464C391.153 73.8176 389.87 74.196 388.767 74.9035C387.663 75.611 386.783 76.6183 386.232 77.8075C386.319 78.2509 386.363 78.7017 386.362 79.1536V97.3825C386.369 98.3824 386.156 99.3714 385.739 100.28C386.049 101.853 386.898 103.268 388.139 104.281H405.252C406.844 104.281 408.386 104.834 409.615 105.846H417.094C415.699 106.291 414.482 107.168 413.619 108.349C412.755 109.531 412.289 110.957 412.289 112.421C412.274 111.973 412.215 111.529 412.114 111.093C412.114 111.093 412.114 111.143 412.114 111.168V129.378C412.112 129.959 412.037 130.536 411.89 131.098C412.002 131.215 412.102 131.342 412.189 131.478C412.226 131.191 412.244 130.902 412.245 130.612C412.25 131.011 412.289 131.41 412.363 131.802C412.455 132.022 412.508 132.256 412.519 132.494C412.955 134.029 413.909 135.365 415.218 136.277H409.285L409.434 136.159C408.886 136.159 408.325 136.115 407.776 136.109C407.58 136.106 407.385 136.066 407.203 135.99C406.56 136.184 405.893 136.283 405.221 136.283L364.331 137.53C363.416 138.164 362.668 139.011 362.151 139.997C361.635 140.984 361.365 142.081 361.365 143.195V161.405C361.366 162.868 361.831 164.294 362.695 165.476C363.559 166.658 364.776 167.534 366.17 167.98L405.221 168.304C405.908 168.304 406.591 168.407 407.247 168.609C407.682 168.646 408.114 168.721 408.537 168.833H408.637C408.257 168.626 407.858 168.455 407.446 168.322H417.056C415.662 168.767 414.445 169.644 413.581 170.826C412.718 172.008 412.252 173.433 412.251 174.897C412.251 174.496 412.215 174.096 412.145 173.701C412.1 173.767 412.05 173.829 411.996 173.888C412.082 174.327 412.126 174.773 412.127 175.221V193.431C412.127 194.279 412.251 194.055 412.251 193.107C412.251 194.221 412.521 195.318 413.038 196.305C413.554 197.291 414.302 198.138 415.218 198.772L439.58 199.551C440.415 199.553 441.243 199.707 442.023 200.006H447.887C446.837 200.739 446.011 201.749 445.5 202.923C446.14 203.988 446.478 205.207 446.479 206.45V224.642C446.479 225.592 446.282 226.532 445.899 227.402C446.762 228.845 448.12 229.923 449.72 230.437H443.313C442.2 231.162 440.901 231.547 439.573 231.547H415.399C414.429 232.171 413.631 233.029 413.079 234.041C412.527 235.054 412.238 236.189 412.239 237.343C412.239 234.912 411.335 258.881 411.335 258.881C411.335 261.031 448.941 261.997 448.941 261.997C449.896 261.997 450.84 262.196 451.714 262.583C452.107 262.5 452.509 262.466 452.91 262.483H452.873H458.806C457.891 263.117 457.143 263.964 456.626 264.951C456.11 265.937 455.84 267.034 455.84 268.148C455.838 267.818 455.813 267.489 455.765 267.163C455.734 267.238 455.696 267.313 455.659 267.381C455.777 267.888 455.838 268.407 455.84 268.927V286.377C455.84 288.206 456.567 289.961 457.86 291.255C459.154 292.549 460.909 293.276 462.739 293.276H452.144C451.161 293.789 450.068 294.056 448.959 294.055H405.682C404.558 294.634 403.614 295.511 402.955 296.59C402.295 297.67 401.945 298.91 401.943 300.175V318.385C401.943 319.291 402.122 320.188 402.468 321.025C402.815 321.862 403.323 322.622 403.964 323.263C404.604 323.904 405.365 324.412 406.202 324.758C407.039 325.105 407.936 325.284 408.842 325.284H475.49C476.396 325.284 477.293 325.105 478.13 324.758C478.967 324.412 479.728 323.904 480.368 323.263C481.009 322.622 481.517 321.862 481.864 321.025C482.211 320.188 482.389 319.291 482.389 318.385C482.389 319.291 482.568 320.188 482.914 321.025C483.261 321.862 483.769 322.622 484.41 323.263C485.05 323.904 485.811 324.412 486.648 324.758C487.485 325.105 488.382 325.284 489.288 325.284H555.917C556.823 325.284 557.72 325.105 558.557 324.758C559.394 324.412 560.155 323.904 560.796 323.263C561.436 322.622 561.944 321.862 562.291 321.025C562.638 320.188 562.816 319.291 562.816 318.385V300.131C562.816 298.301 562.089 296.546 560.796 295.253C559.502 293.959 557.747 293.232 555.917 293.232H609.795C610.701 293.232 611.598 293.054 612.435 292.707C613.272 292.36 614.033 291.852 614.673 291.211C615.314 290.571 615.822 289.81 616.169 288.973C616.516 288.136 616.694 287.239 616.694 286.333V268.142C616.698 267.234 616.523 266.334 616.179 265.493C615.834 264.653 615.327 263.889 614.687 263.245C614.046 262.602 613.285 262.09 612.447 261.741C611.608 261.392 610.709 261.212 609.801 261.212ZM444.752 137.511C443.837 138.145 443.089 138.992 442.572 139.979C442.056 140.965 441.786 142.062 441.786 143.176C441.786 142.062 441.516 140.965 440.999 139.979C440.483 138.992 439.735 138.145 438.819 137.511H444.752ZM436.981 167.967C438.375 167.522 439.592 166.645 440.456 165.463C441.319 164.282 441.785 162.856 441.786 161.392C441.787 162.856 442.252 164.282 443.116 165.463C443.98 166.645 445.197 167.522 446.591 167.967H436.981ZM461.187 105.484C462.581 105.039 463.798 104.162 464.662 102.98C465.526 101.799 465.991 100.373 465.992 98.9094C465.993 100.373 466.458 101.799 467.322 102.98C468.186 104.162 469.403 105.039 470.797 105.484H461.187ZM482.377 300.118C482.377 299.212 482.198 298.315 481.851 297.478C481.505 296.641 480.997 295.881 480.356 295.24C479.715 294.6 478.955 294.091 478.118 293.745C477.281 293.398 476.383 293.22 475.477 293.22H489.282C488.375 293.22 487.478 293.4 486.641 293.748C485.804 294.096 485.043 294.605 484.403 295.247C483.763 295.889 483.256 296.65 482.91 297.488C482.564 298.326 482.387 299.224 482.389 300.131L482.377 300.118ZM489.687 261.199C490.602 260.565 491.35 259.718 491.867 258.731C492.384 257.745 492.654 256.648 492.654 255.534C492.654 256.648 492.923 257.745 493.44 258.731C493.957 259.718 494.705 260.565 495.62 261.199H489.687ZM492.654 237.318C492.653 235.857 492.189 234.435 491.329 233.255C490.469 232.074 489.257 231.197 487.867 230.749H497.496C496.095 231.191 494.871 232.067 494.003 233.252C493.134 234.437 492.666 235.867 492.666 237.336L492.654 237.318ZM489.687 198.729C490.602 198.094 491.35 197.248 491.867 196.261C492.384 195.274 492.654 194.177 492.654 193.064C492.654 194.177 492.923 195.274 493.44 196.261C493.957 197.248 494.705 198.094 495.62 198.729H489.687ZM492.654 174.847C492.653 173.384 492.187 171.958 491.323 170.776C490.46 169.594 489.243 168.718 487.849 168.272H497.496C496.094 168.714 494.869 169.592 494.001 170.778C493.132 171.964 492.664 173.396 492.666 174.866L492.654 174.847ZM489.687 136.258C490.602 135.624 491.35 134.777 491.867 133.791C492.384 132.804 492.654 131.707 492.654 130.593C492.654 131.707 492.923 132.804 493.44 133.791C493.957 134.777 494.705 135.624 495.62 136.258H489.687ZM492.654 112.377C492.653 110.913 492.187 109.488 491.323 108.306C490.46 107.124 489.243 106.247 487.849 105.802H497.496C496.094 106.244 494.869 107.122 494.001 108.307C493.132 109.493 492.664 110.926 492.666 112.396L492.654 112.377ZM539.252 262.445C538.337 263.08 537.589 263.927 537.072 264.913C536.556 265.9 536.286 266.997 536.286 268.11C536.286 266.997 536.016 265.9 535.499 264.913C534.982 263.927 534.234 263.08 533.319 262.445H539.252ZM529.38 293.226C530.286 293.226 531.183 293.047 532.02 292.701C532.857 292.354 533.618 291.846 534.259 291.205C534.899 290.564 535.407 289.804 535.754 288.967C536.101 288.13 536.279 287.233 536.279 286.327C536.279 287.233 536.458 288.13 536.805 288.967C537.151 289.804 537.659 290.564 538.3 291.205C538.941 291.846 539.701 292.354 540.538 292.701C541.375 293.047 542.272 293.226 543.178 293.226H529.38Z" fill="#1CC886"/>
<path opacity="0.45" d="M401.962 300.131C401.96 299.837 401.939 299.543 401.899 299.252C401.939 299.543 401.96 299.837 401.962 300.131V300.131Z" fill="#1CC886"/>
<path opacity="0.45" d="M361.359 161.392C361.359 161.61 361.359 161.829 361.328 162.016C361.346 161.822 361.359 161.61 361.359 161.392Z" fill="#1CC886"/>
<path opacity="0.45" d="M281.006 162.421C281.048 162.698 281.106 162.973 281.181 163.243C281.106 162.973 281.048 162.698 281.006 162.421Z" fill="#1CC886"/>
<path opacity="0.45" d="M203.77 203.11C203.656 203.008 203.557 202.891 203.477 202.761C203.378 202.583 203.313 202.388 203.284 202.187C203.26 202.661 203.26 203.135 203.284 203.608C203.492 204.268 203.599 204.955 203.602 205.646C203.605 204.972 203.708 204.302 203.907 203.658C203.845 203.503 203.797 203.342 203.764 203.178C203.764 203.178 203.77 203.135 203.77 203.11Z" fill="#1CC886"/>
<path opacity="0.45" d="M298.232 73.8064H231.603C229.773 73.8064 228.019 74.5333 226.725 75.8271C225.431 77.1209 224.704 78.8757 224.704 80.7054C224.704 78.8757 223.977 77.1209 222.683 75.8271C221.389 74.5333 219.635 73.8064 217.805 73.8064H151.176C149.346 73.8064 147.591 74.5333 146.297 75.8271C145.004 77.1209 144.277 78.8757 144.277 80.7054V98.9155C144.278 100.377 144.744 101.801 145.606 102.981C146.469 104.162 147.683 105.038 149.076 105.484H97.4226C96.5161 105.485 95.6186 105.664 94.7815 106.012C93.9444 106.36 93.184 106.87 92.5438 107.511C91.9037 108.153 91.3963 108.915 91.0507 109.753C90.7052 110.591 90.5281 111.489 90.5298 112.396V130.606C90.5298 131.719 90.7997 132.816 91.3163 133.803C91.8329 134.79 92.581 135.636 93.4963 136.271H46.5363C44.7065 136.271 42.9517 136.997 41.6578 138.291C40.364 139.585 39.6371 141.34 39.6371 143.17V161.38C39.6371 163.209 40.364 164.964 41.6578 166.258C42.9517 167.552 44.7065 168.279 46.5363 168.279H95.3224C93.9282 168.727 92.7126 169.606 91.8512 170.79C90.9897 171.974 90.5269 173.402 90.5298 174.866V193.076C90.5298 194.19 90.7997 195.287 91.3163 196.273C91.8329 197.26 92.581 198.107 93.4963 198.741H49.6648C47.8351 198.741 46.0803 199.468 44.7864 200.762C43.4926 202.055 42.7657 203.81 42.7657 205.64V223.85C42.7657 225.68 43.4926 227.435 44.7864 228.728C46.0803 230.022 47.8351 230.749 49.6648 230.749H95.3224C93.9282 231.197 92.7126 232.077 91.8512 233.261C90.9897 234.445 90.5269 235.872 90.5298 237.336V255.547C90.5298 257.376 91.2566 259.131 92.5505 260.425C93.8443 261.719 95.5991 262.445 97.4289 262.445H137.097C136.182 263.08 135.434 263.926 134.917 264.913C134.401 265.9 134.131 266.997 134.131 268.11V286.321C134.129 288.148 134.853 289.902 136.142 291.196C137.432 292.491 139.183 293.221 141.011 293.226H87.1456C85.3159 293.226 83.5611 293.953 82.2672 295.246C80.9734 296.54 80.2465 298.295 80.2465 300.125V318.335C80.2465 320.164 80.9734 321.919 82.2672 323.213C83.5611 324.507 85.3159 325.234 87.1456 325.234H153.768C155.598 325.234 157.353 324.507 158.647 323.213C159.941 321.919 160.668 320.164 160.668 318.335C160.668 320.164 161.394 321.919 162.688 323.213C163.982 324.507 165.737 325.234 167.567 325.234H234.202C236.032 325.234 237.787 324.507 239.08 323.213C240.374 321.919 241.101 320.164 241.101 318.335V300.131C241.099 298.866 240.749 297.626 240.089 296.547C239.43 295.467 238.486 294.59 237.362 294.011H223.015C221.906 294.013 220.813 293.745 219.83 293.232H207.653C208.559 293.232 209.457 293.053 210.294 292.706C211.132 292.359 211.892 291.85 212.533 291.209C213.174 290.568 213.682 289.807 214.028 288.969C214.375 288.131 214.552 287.233 214.552 286.327C214.552 289.331 216.116 268.877 216.116 268.877C216.116 267.047 216.843 265.292 218.137 263.999C219.43 262.705 221.185 261.978 223.015 261.978L248.411 261.199C249.133 260.697 249.753 260.062 250.238 259.329C249.877 258.484 249.691 257.575 249.689 256.656V238.439C249.687 237.09 250.084 235.769 250.83 234.644C250.289 233.367 249.377 232.281 248.212 231.528H212.059C210.731 231.528 209.432 231.143 208.319 230.419H198.815C200.21 229.974 201.426 229.097 202.29 227.915C203.154 226.733 203.62 225.308 203.62 223.844L203.377 205.771C203.377 204.954 203.334 204.238 203.302 203.596C202.848 202.126 201.916 200.849 200.654 199.969H206.587L206.456 200.068C209.821 199.875 248.256 197.619 251.384 195.083C251.305 194.605 251.291 194.119 251.341 193.637C251.285 193.291 251.256 192.941 251.253 192.59V174.411C251.253 174.187 251.253 173.962 251.285 173.744C251.077 172.49 250.527 171.317 249.696 170.355C248.865 169.393 247.784 168.679 246.573 168.291H254.974C255.957 167.778 257.05 167.51 258.159 167.512H277.211C278.336 166.933 279.28 166.056 279.939 164.977C280.599 163.897 280.948 162.657 280.95 161.392V143.176C280.95 142.062 280.68 140.965 280.164 139.978C279.647 138.992 278.899 138.145 277.984 137.511L258.177 136.264C254.824 136.264 252.6 135.018 254.37 136.264H248.436C249.344 135.636 250.088 134.798 250.604 133.822C251.12 132.846 251.394 131.76 251.403 130.656C251.324 130.245 251.282 129.827 251.278 129.409V111.162C251.278 111.162 251.278 111.162 251.278 111.118C251.047 109.895 250.49 108.758 249.667 107.826C248.843 106.893 247.783 106.201 246.598 105.821H253.815C255.043 104.809 256.586 104.256 258.177 104.256H302.62C303.414 103.612 304.054 102.798 304.493 101.873C304.932 100.949 305.159 99.9386 305.156 98.9155V80.7116C305.157 79.803 304.978 78.9032 304.63 78.0638C304.283 77.2244 303.772 76.4621 303.129 75.8205C302.486 75.1788 301.722 74.6706 300.881 74.325C300.041 73.9794 299.141 73.8032 298.232 73.8064V73.8064ZM123.037 137.511C122.122 138.145 121.374 138.992 120.857 139.978C120.341 140.965 120.071 142.062 120.071 143.176C120.071 142.062 119.801 140.965 119.284 139.978C118.767 138.992 118.019 138.145 117.104 137.511H123.037ZM120.071 161.392C120.071 162.856 120.537 164.282 121.401 165.463C122.264 166.645 123.481 167.522 124.876 167.967H115.266C116.659 167.521 117.874 166.644 118.737 165.462C119.599 164.28 120.064 162.855 120.064 161.392H120.071ZM126.16 199.981C125.244 200.616 124.496 201.462 123.98 202.449C123.463 203.435 123.193 204.533 123.193 205.646C123.193 204.533 122.923 203.435 122.406 202.449C121.89 201.462 121.142 200.616 120.226 199.981H126.16ZM118.388 230.431C119.782 229.986 120.999 229.109 121.863 227.927C122.727 226.746 123.192 225.32 123.193 223.856C123.194 225.32 123.659 226.746 124.523 227.927C125.387 229.109 126.604 229.986 127.998 230.431H118.388ZM203.464 137.511C202.549 138.145 201.801 138.992 201.284 139.978C200.768 140.965 200.498 142.062 200.498 143.176C200.498 142.062 200.228 140.965 199.711 139.978C199.195 138.992 198.447 138.145 197.531 137.511H203.464ZM160.674 300.131C160.674 298.301 159.947 296.546 158.653 295.253C157.359 293.959 155.604 293.232 153.775 293.232H167.579C166.673 293.231 165.775 293.409 164.937 293.755C164.099 294.102 163.338 294.61 162.697 295.25C162.055 295.891 161.547 296.652 161.2 297.489C160.852 298.327 160.674 299.224 160.674 300.131ZM167.984 261.211C168.9 260.577 169.648 259.73 170.164 258.744C170.681 257.757 170.951 256.66 170.951 255.547C170.951 256.66 171.221 257.757 171.737 258.744C172.254 259.73 173.002 260.577 173.917 261.211H167.984ZM170.926 237.336C170.93 235.874 170.469 234.448 169.609 233.264C168.75 232.08 167.537 231.199 166.146 230.749H175.756C174.355 231.191 173.131 232.067 172.262 233.252C171.394 234.437 170.926 235.867 170.926 237.336V237.336ZM167.959 198.747C168.875 198.113 169.623 197.266 170.139 196.28C170.656 195.293 170.926 194.196 170.926 193.082C170.926 194.196 171.196 195.293 171.712 196.28C172.229 197.266 172.977 198.113 173.892 198.747H167.959ZM170.926 174.866C170.925 173.402 170.459 171.977 169.596 170.795C168.732 169.613 167.515 168.736 166.121 168.291H175.731C174.337 168.736 173.12 169.613 172.256 170.795C171.392 171.977 170.927 173.402 170.926 174.866V174.866ZM167.959 136.277C168.875 135.643 169.623 134.796 170.139 133.809C170.656 132.823 170.926 131.726 170.926 130.612C170.926 131.726 171.196 132.823 171.712 133.809C172.229 134.796 172.977 135.643 173.892 136.277H167.959ZM170.926 112.396C170.925 110.932 170.459 109.506 169.596 108.324C168.732 107.143 167.515 106.266 166.121 105.821H175.731C174.337 106.266 173.12 107.143 172.256 108.324C171.392 109.506 170.927 110.932 170.926 112.396V112.396ZM195.668 167.961C197.062 167.516 198.279 166.639 199.143 165.457C200.007 164.275 200.472 162.85 200.473 161.386C200.474 162.85 200.939 164.275 201.803 165.457C202.667 166.639 203.884 167.516 205.278 167.961H195.668ZM219.899 105.484C221.293 105.039 222.51 104.162 223.374 102.98C224.238 101.799 224.703 100.373 224.704 98.9093C224.705 100.373 225.17 101.799 226.034 102.98C226.898 104.162 228.115 105.039 229.509 105.484H219.899Z" fill="#1CC886"/>
<path opacity="0.45" d="M283.194 138.071L283.292 137.984L283.194 138.071Z" fill="#1CC886"/>
<path opacity="0.45" d="M282.738 138.514L282.639 138.625L282.738 138.514Z" fill="#1CC886"/>
<path opacity="0.45" d="M282.159 139.249L282.209 139.181L282.159 139.249Z" fill="#1CC886"/>
<path opacity="0.45" d="M281.237 163.38C281.316 163.65 281.412 163.914 281.524 164.172C281.412 163.914 281.316 163.65 281.237 163.38Z" fill="#1CC886"/>
<path opacity="0.45" d="M281.96 165.019C282.115 165.267 282.286 165.504 282.471 165.73C282.286 165.504 282.115 165.267 281.96 165.019Z" fill="#1CC886"/>
<path opacity="0.45" d="M281.548 164.24C281.669 164.506 281.806 164.764 281.96 165.013C281.806 164.764 281.669 164.506 281.548 164.24Z" fill="#1CC886"/>
<path opacity="0.45" d="M281.118 141.599C281.118 141.512 281.162 141.431 281.181 141.35C281.156 141.431 281.137 141.512 281.118 141.599Z" fill="#1CC886"/>
<path opacity="0.45" d="M281.349 140.82C281.349 140.751 281.399 140.683 281.424 140.614C281.399 140.683 281.374 140.751 281.349 140.82Z" fill="#1CC886"/>
<path opacity="0.45" d="M280.975 142.378C280.975 142.297 280.975 142.216 281.012 142.141C281 142.222 280.988 142.297 280.975 142.378Z" fill="#1CC886"/>
<path opacity="0.1" d="M150.565 105.827L219.974 105.827C223.016 105.827 225.483 103.36 225.483 100.318V79.3218C225.483 76.2792 223.016 73.8127 219.974 73.8127H150.565C147.522 73.8127 145.056 76.2792 145.056 79.3218V100.318C145.056 103.36 147.522 105.827 150.565 105.827Z" fill="black"/>
<path opacity="0.1" d="M391.074 105.827L460.483 105.827C463.525 105.827 465.992 103.36 465.992 100.318V79.3218C465.992 76.2792 463.525 73.8127 460.483 73.8127H391.074C388.031 73.8127 385.565 76.2792 385.565 79.3218V100.318C385.565 103.36 388.031 105.827 391.074 105.827Z" fill="black"/>
<path opacity="0.1" d="M498.057 137.062H567.466C570.508 137.062 572.975 134.595 572.975 131.553V110.557C572.975 107.514 570.508 105.048 567.466 105.048H498.057C495.014 105.048 492.548 107.514 492.548 110.557V131.553C492.548 134.595 495.014 137.062 498.057 137.062Z" fill="black"/>
<path opacity="0.1" d="M366.862 168.291H436.27C439.313 168.291 441.78 165.825 441.78 162.782V141.786C441.78 138.744 439.313 136.277 436.27 136.277H366.862C363.819 136.277 361.352 138.744 361.352 141.786V162.782C361.352 165.825 363.819 168.291 366.862 168.291Z" fill="black"/>
<path opacity="0.1" d="M498.057 200.305H567.466C570.508 200.305 572.975 197.839 572.975 194.796V173.8C572.975 170.758 570.508 168.291 567.466 168.291H498.057C495.014 168.291 492.548 170.758 492.548 173.8V194.796C492.548 197.839 495.014 200.305 498.057 200.305Z" fill="black"/>
<path opacity="0.1" d="M498.057 262.776H567.466C570.508 262.776 572.975 260.309 572.975 257.266V236.271C572.975 233.228 570.508 230.761 567.466 230.761H498.057C495.014 230.761 492.548 233.228 492.548 236.271V257.266C492.548 260.309 495.014 262.776 498.057 262.776Z" fill="black"/>
<path opacity="0.1" d="M531.25 261.997H460.869C459.782 261.996 458.725 262.348 457.855 263C456.985 263.652 456.35 264.568 456.045 265.611C456.064 265.895 456.045 266.18 455.989 266.459C455.953 266.622 455.905 266.782 455.846 266.939C455.846 266.939 455.846 266.995 455.846 267.02V288.988C455.846 290.32 456.375 291.598 457.317 292.54C458.259 293.482 459.537 294.011 460.869 294.011H531.25C532.582 294.011 533.86 293.482 534.802 292.54C535.744 291.598 536.273 290.32 536.273 288.988V267.02C536.273 265.687 535.744 264.41 534.802 263.468C533.86 262.526 532.582 261.997 531.25 261.997Z" fill="black"/>
<path opacity="0.1" d="M407.471 325.246H476.88C479.922 325.246 482.389 322.78 482.389 319.737V298.741C482.389 295.699 479.922 293.232 476.88 293.232H407.471C404.428 293.232 401.962 295.699 401.962 298.741V319.737C401.962 322.78 404.428 325.246 407.471 325.246Z" fill="black"/>
<path opacity="0.1" d="M176.329 137.062H245.738C248.781 137.062 251.247 134.595 251.247 131.553V110.557C251.247 107.514 248.781 105.048 245.738 105.048H176.329C173.287 105.048 170.82 107.514 170.82 110.557V131.553C170.82 134.595 173.287 137.062 176.329 137.062Z" fill="black"/>
<path opacity="0.1" d="M126.353 168.291H195.761C198.804 168.291 201.271 165.825 201.271 162.782V141.786C201.271 138.744 198.804 136.277 195.761 136.277H126.353C123.31 136.277 120.843 138.744 120.843 141.786V162.782C120.843 165.825 123.31 168.291 126.353 168.291Z" fill="black"/>
<path opacity="0.1" d="M95.9019 200.305H165.311C168.353 200.305 170.82 197.839 170.82 194.796V173.8C170.82 170.758 168.353 168.291 165.311 168.291H95.9019C92.8592 168.291 90.3926 170.758 90.3926 173.8V194.796C90.3926 197.839 92.8592 200.305 95.9019 200.305Z" fill="black"/>
<path opacity="0.1" d="M128.696 231.541H198.105C201.147 231.541 203.614 229.074 203.614 226.031V205.035C203.614 201.993 201.147 199.526 198.105 199.526H128.696C125.653 199.526 123.187 201.993 123.187 205.035V226.031C123.187 229.074 125.653 231.541 128.696 231.541Z" fill="black"/>
<path opacity="0.1" d="M95.9019 262.776H165.311C168.353 262.776 170.82 260.309 170.82 257.266V236.271C170.82 233.228 168.353 230.761 165.311 230.761H95.9019C92.8592 230.761 90.3926 233.228 90.3926 236.271V257.266C90.3926 260.309 92.8592 262.776 95.9019 262.776Z" fill="black"/>
<path opacity="0.45" d="M59.518 294.042H128.927C131.969 294.042 134.436 291.576 134.436 288.533V267.537C134.436 264.495 131.969 262.028 128.927 262.028H59.518C56.4753 262.028 54.0087 264.495 54.0087 267.537V288.533C54.0087 291.576 56.4753 294.042 59.518 294.042Z" fill="#1CC886"/>
<path opacity="0.45" d="M529.125 231.509H598.533C601.576 231.509 604.043 229.043 604.043 226V205.004C604.043 201.962 601.576 199.495 598.533 199.495H529.125C526.082 199.495 523.615 201.962 523.615 205.004V226C523.615 229.043 526.082 231.509 529.125 231.509Z" fill="#1CC886"/>
<path opacity="0.45" d="M525.716 168.403H595.124C598.167 168.403 600.634 165.937 600.634 162.894V141.898C600.634 138.856 598.167 136.389 595.124 136.389H525.716C522.673 136.389 520.206 138.856 520.206 141.898V162.894C520.206 165.937 522.673 168.403 525.716 168.403Z" fill="#1CC886"/>
<path opacity="0.45" d="M566.082 324.747H635.491C638.533 324.747 641 322.281 641 319.238V298.242C641 295.2 638.533 292.733 635.491 292.733H566.082C563.039 292.733 560.573 295.2 560.573 298.242V319.238C560.573 322.281 563.039 324.747 566.082 324.747Z" fill="#1CC886"/>
<path opacity="0.45" d="M5.50929 325.314H74.9179C77.9606 325.314 80.4272 322.848 80.4272 319.805V298.809C80.4272 295.767 77.9606 293.3 74.9179 293.3H5.50929C2.46658 293.3 -1.52588e-05 295.767 -1.52588e-05 298.809V319.805C-1.52588e-05 322.848 2.46658 325.314 5.50929 325.314Z" fill="#1CC886"/>
<path opacity="0.45" d="M16.3036 262.202H85.7122C88.755 262.202 91.2216 259.736 91.2216 256.693V235.697C91.2216 232.655 88.755 230.188 85.7122 230.188H16.3036C13.2609 230.188 10.7943 232.655 10.7943 235.697V256.693C10.7943 259.736 13.2609 262.202 16.3036 262.202Z" fill="#1CC886"/>
<path opacity="0.45" d="M16.3036 200.237H85.7122C88.755 200.237 91.2216 197.77 91.2216 194.728V173.732C91.2216 170.689 88.755 168.223 85.7122 168.223H16.3036C13.2609 168.223 10.7943 170.689 10.7943 173.732V194.728C10.7943 197.77 13.2609 200.237 16.3036 200.237Z" fill="#1CC886"/>
<path opacity="0.45" d="M19.1517 137.131H88.5603C91.603 137.131 94.0696 134.664 94.0696 131.622V110.626C94.0696 107.583 91.603 105.117 88.5603 105.117H19.1517C16.109 105.117 13.6424 107.583 13.6424 110.626V131.622C13.6424 134.664 16.109 137.131 19.1517 137.131Z" fill="#1CC886"/>
<path opacity="0.1" d="M19.1517 137.131H88.5603C91.603 137.131 94.0696 134.664 94.0696 131.622V110.626C94.0696 107.583 91.603 105.117 88.5603 105.117H19.1517C16.109 105.117 13.6424 107.583 13.6424 110.626V131.622C13.6424 134.664 16.109 137.131 19.1517 137.131Z" fill="black"/>
<path opacity="0.45" d="M70.3185 105.864L139.727 105.864C142.77 105.864 145.236 103.398 145.236 100.355V79.3592C145.236 76.3166 142.77 73.85 139.727 73.85H70.3185C67.2758 73.85 64.8092 76.3166 64.8092 79.3592V100.355C64.8092 103.398 67.2758 105.864 70.3185 105.864Z" fill="#1CC886"/>
<path opacity="0.1" d="M140.413 294.005H209.821C212.864 294.005 215.331 291.538 215.331 288.496V267.5C215.331 264.457 212.864 261.991 209.821 261.991H140.413C137.37 261.991 134.903 264.457 134.903 267.5V288.496C134.903 291.538 137.37 294.005 140.413 294.005Z" fill="black"/>
<path opacity="0.1" d="M85.7558 325.246H155.164C158.207 325.246 160.674 322.78 160.674 319.737V298.741C160.674 295.699 158.207 293.232 155.164 293.232H85.7558C82.7131 293.232 80.2465 295.699 80.2465 298.741V319.737C80.2465 322.78 82.7131 325.246 85.7558 325.246Z" fill="black"/>
</g>
<path opacity="0.5" d="M505.018 36.0464C514.973 36.0464 523.042 27.9771 523.042 18.0232C523.042 8.06926 514.973 0 505.018 0C495.064 0 486.995 8.06926 486.995 18.0232C486.995 27.9771 495.064 36.0464 505.018 36.0464Z" fill="#1CC886"/>
<path opacity="0.5" d="M157.009 50.6982H152.721C153.494 50.663 154.223 50.3315 154.757 49.7726C155.291 49.2137 155.589 48.4705 155.589 47.6975C155.589 46.9245 155.291 46.1812 154.757 45.6223C154.223 45.0634 153.494 44.7319 152.721 44.6967H117.989C117.583 44.6782 117.178 44.7421 116.798 44.8846C116.418 45.0271 116.071 45.2451 115.777 45.5256C115.484 45.8061 115.25 46.1431 115.09 46.5164C114.931 46.8897 114.848 47.2915 114.848 47.6975C114.848 48.1035 114.931 48.5052 115.09 48.8785C115.25 49.2518 115.484 49.5889 115.777 49.8693C116.071 50.1498 116.418 50.3679 116.798 50.5103C117.178 50.6528 117.583 50.7167 117.989 50.6982H122.277C121.505 50.7334 120.776 51.0649 120.242 51.6238C119.708 52.1827 119.41 52.926 119.41 53.699C119.41 54.472 119.708 55.2152 120.242 55.7741C120.776 56.333 121.505 56.6645 122.277 56.6997H116.275C115.87 56.6812 115.465 56.7451 115.084 56.8876C114.704 57.0301 114.357 57.2481 114.063 57.5286C113.77 57.809 113.536 58.1461 113.376 58.5194C113.217 58.8927 113.134 59.2945 113.134 59.7005C113.134 60.1065 113.217 60.5082 113.376 60.8815C113.536 61.2548 113.77 61.5919 114.063 61.8723C114.357 62.1528 114.704 62.3709 115.084 62.5133C115.465 62.6558 115.87 62.7197 116.275 62.7012H150.983C151.755 62.666 152.484 62.3345 153.018 61.7756C153.552 61.2167 153.85 60.4735 153.85 59.7005C153.85 58.9275 153.552 58.1842 153.018 57.6253C152.484 57.0664 151.755 56.7349 150.983 56.6997H156.984C157.757 56.6645 158.485 56.333 159.019 55.7741C159.553 55.2152 159.851 54.472 159.851 53.699C159.851 52.926 159.553 52.1827 159.019 51.6238C158.485 51.0649 157.757 50.7334 156.984 50.6982H157.009Z" fill="#DEE3F3"/>
<path opacity="0.5" d="M502.731 15.8545H499.465C500.051 15.8239 500.602 15.5699 501.005 15.145C501.409 14.72 501.633 14.1564 501.633 13.5704C501.633 12.9845 501.409 12.4209 501.005 11.9959C500.602 11.5709 500.051 11.317 499.465 11.2864H473.034C472.449 11.317 471.898 11.5709 471.495 11.9959C471.092 12.4209 470.867 12.9845 470.867 13.5704C470.867 14.1564 471.092 14.72 471.495 15.145C471.898 15.5699 472.449 15.8239 473.034 15.8545H476.306C475.996 15.8383 475.686 15.8854 475.395 15.9928C475.104 16.1003 474.838 16.2659 474.613 16.4796C474.387 16.6933 474.208 16.9506 474.086 17.2358C473.963 17.521 473.9 17.8281 473.9 18.1386C473.9 18.449 473.963 18.7561 474.086 19.0413C474.208 19.3265 474.387 19.5838 474.613 19.7975C474.838 20.0112 475.104 20.1768 475.395 20.2843C475.686 20.3917 475.996 20.4388 476.306 20.4226H471.738C471.153 20.4532 470.602 20.7072 470.199 21.1322C469.795 21.5572 469.57 22.1207 469.57 22.7067C469.57 23.2926 469.795 23.8562 470.199 24.2812C470.602 24.7062 471.153 24.9602 471.738 24.9907H498.175C498.485 25.0069 498.795 24.9599 499.087 24.8524C499.378 24.7449 499.644 24.5793 499.869 24.3656C500.094 24.1519 500.274 23.8946 500.396 23.6094C500.519 23.3242 500.582 23.0171 500.582 22.7067C500.582 22.3963 500.519 22.0891 500.396 21.8039C500.274 21.5187 500.094 21.2614 499.869 21.0477C499.644 20.834 499.378 20.6684 499.087 20.561C498.795 20.4535 498.485 20.4064 498.175 20.4226H502.744C503.054 20.4388 503.364 20.3917 503.655 20.2843C503.946 20.1768 504.212 20.0112 504.438 19.7975C504.663 19.5838 504.842 19.3265 504.965 19.0413C505.087 18.7561 505.15 18.449 505.15 18.1386C505.15 17.8281 505.087 17.521 504.965 17.2358C504.842 16.9506 504.663 16.6933 504.438 16.4796C504.212 16.2659 503.946 16.1003 503.655 15.9928C503.364 15.8854 503.054 15.8383 502.744 15.8545H502.731Z" fill="#DEE3F3"/>
<path opacity="0.5" d="M239.275 8.3198H234.987C235.393 8.33828 235.798 8.27437 236.178 8.13191C236.558 7.98944 236.906 7.77139 237.199 7.49093C237.493 7.21046 237.726 6.8734 237.886 6.50011C238.046 6.12682 238.128 5.72504 238.128 5.31905C238.128 4.91306 238.046 4.51129 237.886 4.13799C237.726 3.7647 237.493 3.42764 237.199 3.14717C236.906 2.86671 236.558 2.64866 236.178 2.5062C235.798 2.36374 235.393 2.29981 234.987 2.3183H200.255C199.849 2.29981 199.444 2.36374 199.064 2.5062C198.684 2.64866 198.336 2.86671 198.043 3.14717C197.749 3.42764 197.516 3.7647 197.356 4.13799C197.196 4.51129 197.114 4.91306 197.114 5.31905C197.114 5.72504 197.196 6.12682 197.356 6.50011C197.516 6.8734 197.749 7.21046 198.043 7.49093C198.336 7.77139 198.684 7.98944 199.064 8.13191C199.444 8.27437 199.849 8.33828 200.255 8.3198H204.543C203.77 8.355 203.042 8.68652 202.508 9.24542C201.974 9.80431 201.676 10.5476 201.676 11.3205C201.676 12.0935 201.974 12.8368 202.508 13.3957C203.042 13.9546 203.77 14.2861 204.543 14.3213H198.541C198.135 14.3028 197.73 14.3667 197.35 14.5092C196.97 14.6517 196.623 14.8697 196.329 15.1502C196.035 15.4306 195.802 15.7677 195.642 16.141C195.483 16.5143 195.4 16.9161 195.4 17.322C195.4 17.728 195.483 18.1298 195.642 18.5031C195.802 18.8764 196.035 19.2135 196.329 19.4939C196.623 19.7744 196.97 19.9924 197.35 20.1349C197.73 20.2774 198.135 20.3413 198.541 20.3228H233.248C234.021 20.2876 234.75 19.9561 235.284 19.3972C235.818 18.8383 236.116 18.095 236.116 17.322C236.116 16.5491 235.818 15.8058 235.284 15.2469C234.75 14.688 234.021 14.3565 233.248 14.3213H239.25C240.022 14.2861 240.751 13.9546 241.285 13.3957C241.819 12.8368 242.117 12.0935 242.117 11.3205C242.117 10.5476 241.819 9.80431 241.285 9.24542C240.751 8.68652 240.022 8.355 239.25 8.3198H239.275Z" fill="#DEE3F3"/>
<path d="M344.426 336.57H356.267V329.235V327.957H259.355V329.235V336.57H271.197V345.189H251.814V355.952H363.808V345.189H344.426V336.57Z" fill="url(#paint1_linear)"/>
<path d="M423.762 344.46C424.61 332.868 424.311 322.891 423.139 314.296C421.812 304.406 419.35 296.361 416.227 289.817C409.995 276.73 401.114 269.631 393.318 265.773C388.098 263.126 382.394 261.57 376.553 261.199C376.297 259.408 375.404 257.769 374.039 256.582C372.673 255.394 370.925 254.739 369.116 254.735C367.306 254.732 365.556 255.38 364.185 256.561C362.814 257.742 361.915 259.378 361.652 261.168V241.811H320.731V231.042H375.874C377.526 231.042 379.112 230.385 380.28 229.217C381.449 228.048 382.106 226.463 382.106 224.81V168.366C382.106 166.713 381.449 165.128 380.28 163.959C379.112 162.79 377.526 162.134 375.874 162.134H354.939V106.494C356.412 105.829 357.661 104.753 358.538 103.395C359.415 102.038 359.881 100.457 359.882 98.8408C359.882 98.7598 359.882 98.6788 359.882 98.5916C359.882 98.5043 359.882 98.4295 359.882 98.3423C359.882 96.1109 358.995 93.971 357.417 92.3932C355.839 90.8154 353.699 89.929 351.468 89.929C349.237 89.929 347.097 90.8154 345.519 92.3932C343.941 93.971 343.055 96.1109 343.055 98.3423C343.055 98.4233 343.055 98.5043 343.055 98.5916C343.055 98.6788 343.055 98.7536 343.055 98.8408C343.054 100.364 343.468 101.859 344.252 103.166C345.036 104.472 346.16 105.541 347.504 106.257V162.128H269.9V106.257C271.245 105.541 272.369 104.472 273.153 103.166C273.937 101.859 274.351 100.364 274.35 98.8408C274.35 98.7598 274.35 98.6788 274.35 98.5916C274.35 98.5043 274.35 98.4295 274.35 98.3423C274.35 96.1109 273.464 93.971 271.886 92.3932C270.308 90.8154 268.168 89.929 265.937 89.929C263.705 89.929 261.565 90.8154 259.987 92.3932C258.409 93.971 257.523 96.1109 257.523 98.3423C257.523 98.4233 257.523 98.5043 257.523 98.5916C257.523 98.6788 257.523 98.7536 257.523 98.8408C257.524 100.457 257.99 102.038 258.867 103.395C259.743 104.753 260.993 105.829 262.465 106.494V162.121H239.749C238.096 162.121 236.511 162.778 235.342 163.947C234.173 165.116 233.516 166.701 233.516 168.354V224.791C233.516 226.444 234.173 228.029 235.342 229.198C236.511 230.367 238.096 231.023 239.749 231.023H294.892V241.792H253.971V257.659C253.627 256.651 253.072 255.727 252.344 254.948L252.163 254.768C251.11 253.714 249.767 252.996 248.305 252.705C246.843 252.414 245.328 252.563 243.951 253.134C242.574 253.704 241.397 254.67 240.569 255.909C239.741 257.149 239.3 258.606 239.3 260.096V261.174C239.3 261.174 231.559 261.174 222.305 265.755C214.508 269.612 205.633 276.711 199.395 289.798C196.279 296.342 193.786 304.394 192.483 314.278C191.324 322.866 191.019 332.849 191.86 344.441C174.578 358.775 196.223 379.627 196.223 379.627C213.953 379.627 213.561 350.193 213.361 345.17H213.449C213.449 345.17 213.399 344.921 213.324 344.46C212.031 336.238 211.674 327.896 212.258 319.594C212.751 313.256 213.966 306.55 216.459 300.517C218.322 295.763 221.237 291.491 224.984 288.022C229.03 284.437 233.993 282.049 239.319 281.123V285.965C239.319 287.75 239.952 289.476 241.106 290.837C242.259 292.198 243.858 293.105 245.618 293.398C247.378 293.69 249.185 293.348 250.717 292.434C252.249 291.519 253.406 290.09 253.983 288.402V327.97H361.633V289.212C361.852 290.712 362.519 292.111 363.546 293.226L363.752 293.444C364.806 294.508 366.154 295.235 367.623 295.529C369.092 295.824 370.615 295.674 371.999 295.099C373.382 294.524 374.563 293.549 375.389 292.3C376.216 291.05 376.652 289.583 376.64 288.084V281.179C381.843 282.147 386.683 284.517 390.638 288.034C394.385 291.504 397.3 295.775 399.163 300.53C401.656 306.569 402.865 313.268 403.364 319.606C403.949 327.909 403.591 336.25 402.298 344.472V344.472C402.224 344.933 402.174 345.183 402.174 345.183H402.261C402.062 350.206 401.669 379.64 419.4 379.64C419.4 379.646 441.044 358.806 423.762 344.46Z" fill="url(#paint2_linear)"/>
<path d="M257.199 356.943V366.727H270.125V381.796V394.722V414.103V424.872V431.335H255.043V446.404H295.964V431.335H289.507V424.872V414.103V394.722V381.796V366.727H304.577V356.943V355.958H257.199V356.943Z" fill="url(#paint3_linear)"/>
<path d="M308.889 356.943V366.727H328.272V381.796V394.722V414.103V424.872V431.335H313.196V446.404H354.117V431.335H347.654V424.872V414.103V394.722V381.796V366.727H356.267V356.943V355.958H308.889V356.943Z" fill="url(#paint4_linear)"/>
<path d="M372.028 164.988H243.6C239.136 164.988 235.517 168.607 235.517 173.071V223.963C235.517 228.427 239.136 232.046 243.6 232.046H372.028C376.493 232.046 380.112 228.427 380.112 223.963V173.071C380.112 168.607 376.493 164.988 372.028 164.988Z" fill="#1CC886"/>
<path opacity="0.1" d="M368.582 221.756H247.04V223.015H368.582V221.756Z" fill="black"/>
<path opacity="0.3" d="M368.582 175.464H247.04V221.563H368.582V175.464Z" fill="black"/>
<path opacity="0.1" d="M275.329 216.241C284.588 216.241 292.093 208.735 292.093 199.477C292.093 190.218 284.588 182.712 275.329 182.712C266.07 182.712 258.564 190.218 258.564 199.477C258.564 208.735 266.07 216.241 275.329 216.241Z" fill="black"/>
<path d="M275.329 215.281C284.588 215.281 292.093 207.776 292.093 198.517C292.093 189.258 284.588 181.753 275.329 181.753C266.07 181.753 258.564 189.258 258.564 198.517C258.564 207.776 266.07 215.281 275.329 215.281Z" fill="#DEE3F3"/>
<path opacity="0.1" d="M340.294 216.241C349.553 216.241 357.058 208.735 357.058 199.477C357.058 190.218 349.553 182.712 340.294 182.712C331.035 182.712 323.529 190.218 323.529 199.477C323.529 208.735 331.035 216.241 340.294 216.241Z" fill="black"/>
<path d="M340.294 215.281C349.553 215.281 357.058 207.776 357.058 198.517C357.058 189.258 349.553 181.753 340.294 181.753C331.035 181.753 323.529 189.258 323.529 198.517C323.529 207.776 331.035 215.281 340.294 215.281Z" fill="#DEE3F3"/>
<path d="M320.382 232.045H295.234V246.716H320.382V232.045Z" fill="#1CC886"/>
<path d="M360.199 242.522H255.423V326.343H360.199V242.522Z" fill="#1CC886"/>
<path d="M354.964 326.343V334.725H343.435V343.108H272.181V334.725H260.664V326.343H354.964Z" fill="#1CC886"/>
<path opacity="0.3" d="M354.964 326.343V334.725H343.435V343.108H272.181V334.725H260.664V326.343H354.964Z" fill="black"/>
<path d="M362.3 343.107H253.329V353.584H362.3V343.107Z" fill="#1CC886"/>
<path d="M304.664 353.59H258.564V364.066H304.664V353.59Z" fill="#1CC886"/>
<path d="M354.958 353.59H308.858V364.066H354.958V353.59Z" fill="#1CC886"/>
<path d="M296.288 426.929H256.47V441.599H296.288V426.929Z" fill="#8FA9B0"/>
<path d="M271.141 378.73V391.307V410.165V420.641V426.929H289.999V420.641V410.165V391.307V378.73V364.06H271.141V378.73Z" fill="#1CC886"/>
<path d="M327.717 364.06V378.73V391.307V410.165V420.641V426.929H346.582V420.641V410.165V391.307V378.73V364.06H327.717Z" fill="#1CC886"/>
<path d="M352.87 426.929H313.052V441.599H352.87V426.929Z" fill="#8FA9B0"/>
<path d="M255.822 260.333V285.479C255.822 285.666 255.822 285.86 255.822 286.04C255.666 287.923 254.79 289.674 253.376 290.927C251.962 292.181 250.119 292.84 248.23 292.767C246.342 292.695 244.555 291.897 243.24 290.539C241.926 289.181 241.187 287.369 241.176 285.479V260.333C241.175 258.883 241.604 257.465 242.409 256.258C243.214 255.052 244.36 254.112 245.699 253.557C247.039 253.002 248.514 252.856 249.936 253.14C251.359 253.423 252.665 254.122 253.69 255.148L253.865 255.329C255.002 256.544 255.691 258.112 255.815 259.772C255.809 259.953 255.822 260.146 255.822 260.333Z" fill="#1CC886"/>
<path d="M374.783 262.427V287.579C374.787 289.032 374.358 290.453 373.552 291.662C372.746 292.871 371.599 293.813 370.257 294.369C368.914 294.925 367.437 295.069 366.013 294.783C364.588 294.498 363.28 293.795 362.256 292.765L362.057 292.553C360.799 291.197 360.102 289.416 360.106 287.567V262.427C360.106 260.481 360.879 258.616 362.254 257.24C363.63 255.864 365.496 255.092 367.441 255.092C369.387 255.092 371.253 255.864 372.628 257.24C374.004 258.616 374.777 260.481 374.777 262.427H374.783Z" fill="#1CC886"/>
<path d="M241.151 261.38V280.761C235.977 281.661 231.155 283.981 227.222 287.461C223.569 290.841 220.728 295.004 218.914 299.638C216.49 305.509 215.312 312.034 214.832 318.204C214.237 326.53 214.626 334.897 215.991 343.132H195.045C194.153 331.547 194.421 321.613 195.593 313.075C196.889 303.452 199.283 295.625 202.318 289.256C208.388 276.524 217.026 269.612 224.61 265.861C233.622 261.38 241.151 261.38 241.151 261.38Z" fill="#1CC886"/>
<path d="M199.239 376.636C199.239 376.636 178.18 356.363 194.995 342.403H215.879C215.879 342.403 218.098 376.636 199.239 376.636Z" fill="#1CC886"/>
<path opacity="0.3" d="M199.239 376.636C199.239 376.636 178.18 356.363 194.995 342.403H215.879C215.879 342.403 218.098 376.636 199.239 376.636Z" fill="black"/>
<path opacity="0.3" d="M343.435 255.098H272.188V309.579H343.435V255.098Z" fill="black"/>
<path opacity="0.3" d="M289.999 364.06H271.141V378.73H289.999V364.06Z" fill="black"/>
<path opacity="0.3" d="M289.999 391.306H271.141V410.165H289.999V391.306Z" fill="black"/>
<path opacity="0.3" d="M289.999 420.641H271.141V426.929H289.999V420.641Z" fill="black"/>
<path opacity="0.3" d="M346.576 364.06H327.717V378.73H346.576V364.06Z" fill="black"/>
<path opacity="0.3" d="M346.576 391.306H327.717V410.165H346.576V391.306Z" fill="black"/>
<path opacity="0.3" d="M346.576 420.641H327.717V426.929H346.576V420.641Z" fill="black"/>
<path opacity="0.3" d="M241.151 261.38V280.761C235.977 281.661 231.155 283.981 227.222 287.461L224.617 265.817C233.622 261.38 241.151 261.38 241.151 261.38Z" fill="black"/>
<path opacity="0.3" d="M218.914 299.639C216.49 305.509 215.312 312.034 214.832 318.204L195.587 313.05C196.883 303.428 199.276 295.6 202.312 289.231L218.914 299.639Z" fill="black"/>
<path d="M374.478 261.38V280.761C379.66 281.657 384.492 283.977 388.432 287.461C392.078 290.837 394.914 294.993 396.727 299.62C399.151 305.49 400.329 312.015 400.809 318.185C401.404 326.511 401.015 334.878 399.65 343.113H420.602C421.494 331.528 421.226 321.594 420.054 313.056C418.758 303.434 416.365 295.606 413.329 289.237C407.259 276.505 398.621 269.594 391.037 265.842C382.006 261.38 374.478 261.38 374.478 261.38Z" fill="#1CC886"/>
<path d="M416.389 376.636C416.389 376.636 437.448 356.363 420.634 342.403H399.743C399.743 342.403 397.531 376.636 416.389 376.636Z" fill="#1CC886"/>
<path opacity="0.3" d="M416.389 376.636C416.389 376.636 437.448 356.363 420.634 342.403H399.743C399.743 342.403 397.531 376.636 416.389 376.636Z" fill="black"/>
<path opacity="0.3" d="M374.478 261.38V280.761C379.66 281.657 384.492 283.977 388.432 287.461L391.037 265.817C382.006 261.38 374.478 261.38 374.478 261.38Z" fill="black"/>
<path opacity="0.3" d="M396.702 299.639C399.126 305.509 400.304 312.034 400.784 318.204L420.029 313.05C418.733 303.428 416.34 295.6 413.304 289.231L396.702 299.639Z" fill="black"/>
<path opacity="0.1" d="M320.382 232.045H295.234V233.784H320.382V232.045Z" fill="black"/>
<path opacity="0.1" d="M362.063 257.46V292.553C360.806 291.197 360.109 289.416 360.112 287.567V262.427C360.112 260.584 360.809 258.81 362.063 257.46V257.46Z" fill="black"/>
<path opacity="0.1" d="M255.797 259.772V286.04C255.672 287.7 254.984 289.268 253.846 290.484V255.328C254.984 256.544 255.672 258.112 255.797 259.772V259.772Z" fill="black"/>
<path opacity="0.1" d="M354.964 326.343H260.664V327.583H354.964V326.343Z" fill="black"/>
<path opacity="0.1" d="M304.664 353.59H258.564V354.55H304.664V353.59Z" fill="black"/>
<path opacity="0.1" d="M354.958 353.59H308.858V354.55H354.958V353.59Z" fill="black"/>
<path d="M270.922 102.935H263.705V164.994H270.922V102.935Z" fill="#1CC886"/>
<path d="M353.668 102.935H346.451V164.994H353.668V102.935Z" fill="#1CC886"/>
<path opacity="0.1" d="M267.077 111.592C271.593 111.592 275.254 107.931 275.254 103.415C275.254 98.8995 271.593 95.2388 267.077 95.2388C262.561 95.2388 258.9 98.8995 258.9 103.415C258.9 107.931 262.561 111.592 267.077 111.592Z" fill="black"/>
<path d="M267.077 111.112C271.593 111.112 275.254 107.451 275.254 102.936C275.254 98.4198 271.593 94.759 267.077 94.759C262.561 94.759 258.9 98.4198 258.9 102.936C258.9 107.451 262.561 111.112 267.077 111.112Z" fill="#1CC886"/>
<path opacity="0.1" d="M350.303 111.592C354.819 111.592 358.479 107.931 358.479 103.415C358.479 98.8995 354.819 95.2388 350.303 95.2388C345.787 95.2388 342.126 98.8995 342.126 103.415C342.126 107.931 345.787 111.592 350.303 111.592Z" fill="black"/>
<path d="M350.303 111.112C354.819 111.112 358.479 107.451 358.479 102.936C358.479 98.4198 354.819 94.759 350.303 94.759C345.787 94.759 342.126 98.4198 342.126 102.936C342.126 107.451 345.787 111.112 350.303 111.112Z" fill="#1CC886"/>
<path d="M94.4311 293.07C94.4311 293.07 118.363 340.048 98.8622 365.749C79.3615 391.45 100.632 461.473 100.632 461.473" stroke="#FC6681" stroke-width="2" stroke-miterlimit="10"/>
<path d="M101.517 278.412C101.517 287.461 94.8923 294.815 94.8923 294.815C94.8923 294.815 88.2238 287.461 88.2238 278.412C88.2238 269.363 94.8923 262.016 94.8923 262.016C94.8923 262.016 101.517 269.388 101.517 278.412Z" fill="#FC6681"/>
<path d="M106.84 293.07C106.84 293.07 82.9077 340.048 102.408 365.749C121.909 391.45 100.638 461.473 100.638 461.473" stroke="#FFD037" stroke-width="2" stroke-miterlimit="10"/>
<path d="M99.7473 278.412C99.7473 287.467 106.397 294.809 106.397 294.809C106.397 294.809 113.047 287.467 113.047 278.412C113.047 269.357 106.397 262.016 106.397 262.016C106.397 262.016 99.7473 269.388 99.7473 278.412Z" fill="#FFD037"/>
<path d="M116.587 293.07C116.587 293.07 140.519 340.048 121.018 365.749C101.517 391.45 122.788 461.473 122.788 461.473" stroke="#FC6681" stroke-width="2" stroke-miterlimit="10"/>
<path d="M123.679 278.412C123.679 287.467 117.029 294.809 117.029 294.809C117.029 294.809 110.386 287.461 110.386 278.412C110.386 269.363 117.036 262.016 117.036 262.016C117.036 262.016 123.679 269.388 123.679 278.412Z" fill="#FC6681"/>
<path d="M119.952 316.054C113.676 322.579 103.792 323.265 103.792 323.265C103.792 323.265 104.091 313.368 110.367 306.837C116.643 300.306 126.527 299.626 126.527 299.626C126.527 299.626 126.228 309.529 119.952 316.054Z" fill="#FC6681"/>
<path d="M120.575 348.461C114.3 354.986 104.415 355.671 104.415 355.671C104.415 355.671 104.714 345.775 110.99 339.244C117.266 332.713 127.15 332.033 127.15 332.033C127.15 332.033 126.851 341.936 120.575 348.461Z" fill="#FC6681"/>
<path d="M86.5286 366.291C92.4679 373.146 92.2561 383.03 92.2561 383.03C92.2561 383.03 82.4215 381.846 76.4884 375.009C70.5553 368.173 70.761 358.27 70.761 358.27C70.761 358.27 80.5893 359.454 86.5286 366.291Z" fill="#FC6681"/>
<path d="M92.038 297.177C99.5852 302.163 102.01 311.779 102.01 311.779C102.01 311.779 92.2187 313.262 84.6714 308.264C77.1242 303.266 74.6998 293.662 74.6998 293.662C74.6998 293.662 84.4845 292.179 92.038 297.177Z" fill="#FC6681"/>
<path d="M128.995 293.07C128.995 293.07 105.063 340.048 124.564 365.749C144.065 391.45 122.794 461.473 122.794 461.473" stroke="#FFD037" stroke-width="2" stroke-miterlimit="10"/>
<path d="M121.909 278.412C121.909 287.461 128.547 294.815 128.547 294.815C128.547 294.815 135.196 287.474 135.196 278.418C135.196 269.363 128.547 262.016 128.547 262.016C128.547 262.016 121.909 269.388 121.909 278.412Z" fill="#FFD037"/>
<path d="M123.816 316.752C117.459 323.202 117.042 333.099 117.042 333.099C117.042 333.099 126.932 332.538 133.289 326.087C139.646 319.637 140.064 309.741 140.064 309.741C140.064 309.741 130.173 310.302 123.816 316.752Z" fill="#FFD037"/>
<path d="M136.281 361.623C129.924 368.073 129.506 377.97 129.506 377.97C129.506 377.97 139.397 377.409 145.754 370.959C152.111 364.508 152.528 354.612 152.528 354.612C152.528 354.612 142.638 355.173 136.281 361.623Z" fill="#FFD037"/>
<path d="M117.952 351.758C117.952 351.758 132.361 329.048 152.578 328.562" stroke="#FFD037" stroke-width="2" stroke-miterlimit="10"/>
<path d="M106.734 338.047C106.734 338.047 92.3184 315.343 72.101 314.882" stroke="#FC6681" stroke-width="2" stroke-miterlimit="10"/>
<path d="M104.864 370.454C104.864 370.454 119.273 347.744 139.49 347.258" stroke="#FFD037" stroke-width="2" stroke-miterlimit="10"/>
<path d="M151.911 332.126C153.976 332.126 155.651 330.452 155.651 328.387C155.651 326.322 153.976 324.648 151.911 324.648C149.846 324.648 148.172 326.322 148.172 328.387C148.172 330.452 149.846 332.126 151.911 332.126Z" fill="#FFD037"/>
<path d="M72.45 318.728C74.5152 318.728 76.1893 317.053 76.1893 314.988C76.1893 312.923 74.5152 311.249 72.45 311.249C70.3848 311.249 68.7106 312.923 68.7106 314.988C68.7106 317.053 70.3848 318.728 72.45 318.728Z" fill="#FC6681"/>
<path d="M115.459 377.932C115.459 377.932 101.044 355.229 80.8261 354.768" stroke="#FC6681" stroke-width="2" stroke-miterlimit="10"/>
<path d="M81.1751 358.613C83.2403 358.613 84.9145 356.939 84.9145 354.874C84.9145 352.808 83.2403 351.134 81.1751 351.134C79.11 351.134 77.4358 352.808 77.4358 354.874C77.4358 356.939 79.11 358.613 81.1751 358.613Z" fill="#FC6681"/>
<path d="M139.758 351.134C141.824 351.134 143.498 349.46 143.498 347.395C143.498 345.33 141.824 343.656 139.758 343.656C137.693 343.656 136.019 345.33 136.019 347.395C136.019 349.46 137.693 351.134 139.758 351.134Z" fill="#FFD037"/>
<path d="M195.082 434.171C195.082 434.171 160.368 427.228 151.107 417.967C141.846 408.706 100.19 392.509 95.5592 404.082C90.9286 415.655 33.0746 454.998 72.4188 461.959C111.763 468.921 164.993 471.214 176.566 466.59C188.139 461.966 195.082 434.171 195.082 434.171Z" fill="#A8A8A8"/>
<path opacity="0.2" d="M72.4188 457.641C111.763 464.583 164.993 466.895 176.566 462.271C185.378 458.744 191.523 441.811 193.923 433.928L195.082 434.171C195.082 434.171 188.139 461.941 176.566 466.578C164.993 471.214 111.751 468.89 72.4188 461.947C61.0637 459.94 57.8166 455.235 59.0382 449.277C59.9917 453.16 63.9679 456.151 72.4188 457.641Z" fill="black"/>
<path d="M570.027 301.334C570.027 301.334 578.347 312.209 566.188 328.637C554.029 345.064 544.007 358.924 548.058 369.145C548.058 369.145 566.4 338.645 581.332 338.221C596.265 337.798 586.455 319.675 570.027 301.334Z" fill="#FC6681"/>
<path opacity="0.1" d="M570.027 301.334C570.753 302.384 571.326 303.532 571.728 304.743C586.293 321.856 594.059 337.829 580.055 338.228C567.011 338.602 551.386 361.91 547.647 367.811C547.769 368.266 547.917 368.713 548.089 369.151C548.089 369.151 566.431 338.651 581.364 338.228C596.296 337.804 586.455 319.675 570.027 301.334Z" fill="black"/>
<path d="M585.495 315.194C585.495 319.021 585.065 322.124 584.536 322.124C584.006 322.124 583.576 319.008 583.576 315.194C583.576 311.38 584.112 313.169 584.642 313.169C585.171 313.169 585.495 311.368 585.495 315.194Z" fill="#FFD037"/>
<path d="M590.799 319.768C587.44 321.601 584.505 322.71 584.255 322.261C584.006 321.813 586.524 319.93 589.864 318.098C593.205 316.266 591.902 317.6 592.152 318.067C592.401 318.534 594.158 317.936 590.799 319.768Z" fill="#FFD037"/>
<path d="M526.096 301.334C526.096 301.334 517.776 312.209 529.935 328.637C542.094 345.064 552.116 358.924 548.065 369.145C548.065 369.145 529.723 338.645 514.791 338.221C499.858 337.798 509.668 319.675 526.096 301.334Z" fill="#FC6681"/>
<path opacity="0.1" d="M526.096 301.334C525.37 302.384 524.797 303.532 524.394 304.743C509.83 321.856 502.064 337.829 516.068 338.228C529.112 338.602 544.737 361.91 548.476 367.811C548.354 368.266 548.206 368.713 548.033 369.151C548.033 369.151 529.692 338.651 514.759 338.228C499.827 337.804 509.668 319.675 526.096 301.334Z" fill="black"/>
<path d="M510.627 315.194C510.627 319.021 511.057 322.124 511.587 322.124C512.117 322.124 512.547 319.008 512.547 315.194C512.547 311.38 512.011 313.169 511.481 313.169C510.952 313.169 510.627 311.368 510.627 315.194Z" fill="#FFD037"/>
<path d="M505.324 319.768C508.683 321.601 511.618 322.71 511.868 322.261C512.117 321.813 509.599 319.93 506.259 318.098C502.918 316.266 504.221 317.6 503.971 318.067C503.722 318.534 501.965 317.936 505.324 319.768Z" fill="#FFD037"/>
<path d="M513.276 367.73C513.276 367.73 536.535 367.014 543.54 362.022C550.545 357.03 579.313 351.072 581.052 359.074C582.791 367.076 616.002 398.885 589.746 399.096C563.489 399.308 528.738 395.008 521.74 390.745C514.741 386.483 513.276 367.73 513.276 367.73Z" fill="#A8A8A8"/>
<path opacity="0.2" d="M590.22 396.317C563.963 396.529 529.212 392.229 522.213 387.966C516.885 384.719 514.734 373.078 514.055 367.706H513.276C513.276 367.706 514.747 386.464 521.746 390.721C528.745 394.977 563.502 399.284 589.752 399.072C597.331 399.009 599.948 396.317 599.805 392.322C598.752 394.765 595.86 396.267 590.22 396.317Z" fill="black"/>
</g>
<defs>
<linearGradient id="paint0_linear" x1="648.875" y1="258.937" x2="335.202" y2="618.285" gradientUnits="userSpaceOnUse">
<stop stop-color="#22C88A"/>
<stop offset="1" stop-color="#1BF2A0"/>
</linearGradient>
<linearGradient id="paint1_linear" x1="307.811" y1="355.952" x2="307.811" y2="327.957" gradientUnits="userSpaceOnUse">
<stop stop-color="#808080" stop-opacity="0.25"/>
<stop offset="0.54" stop-color="#808080" stop-opacity="0.12"/>
<stop offset="1" stop-color="#808080" stop-opacity="0.1"/>
</linearGradient>
<linearGradient id="paint2_linear" x1="142364" y1="197939" x2="142364" y2="63264.3" gradientUnits="userSpaceOnUse">
<stop stop-color="#808080" stop-opacity="0.25"/>
<stop offset="0.54" stop-color="#808080" stop-opacity="0.12"/>
<stop offset="1" stop-color="#808080" stop-opacity="0.1"/>
</linearGradient>
<linearGradient id="paint3_linear" x1="22494.8" y1="65142.6" x2="22494.8" y2="52016.1" gradientUnits="userSpaceOnUse">
<stop stop-color="#808080" stop-opacity="0.25"/>
<stop offset="0.54" stop-color="#808080" stop-opacity="0.12"/>
<stop offset="1" stop-color="#808080" stop-opacity="0.1"/>
</linearGradient>
<linearGradient id="paint4_linear" x1="25591.9" y1="65142.6" x2="25591.9" y2="52016.1" gradientUnits="userSpaceOnUse">
<stop stop-color="#808080" stop-opacity="0.25"/>
<stop offset="0.54" stop-color="#808080" stop-opacity="0.12"/>
<stop offset="1" stop-color="#808080" stop-opacity="0.1"/>
</linearGradient>
<clipPath id="clip0">
<rect width="668.337" height="586.228" fill="white"/>
</clipPath>
</defs>
</svg>
