<svg width="293" height="466" viewBox="0 0 293 466" fill="none" xmlns="http://www.w3.org/2000/svg">
<path d="M10.1178 117.643C15.7057 122.968 24.7654 122.968 30.3533 117.643L89.532 61.2458C95.1199 55.9206 95.1198 47.2867 89.532 41.9615C83.9441 36.6363 74.8843 36.6363 69.2964 41.9615L10.1178 98.3582C4.52987 103.683 4.52988 112.317 10.1178 117.643Z" fill="#002B49"/>
<path d="M185.652 454.559C192.049 460.655 202.421 460.655 208.818 454.559L502.16 175.006C508.557 168.91 508.557 159.026 502.16 152.93L501.543 152.341C495.146 146.245 484.774 146.245 478.377 152.341L185.034 431.894C178.638 437.99 178.638 447.874 185.034 453.971L185.652 454.559Z" fill="#117A52"/>
<path d="M215.652 340.2C222.049 346.297 232.42 346.297 238.817 340.2L546.721 46.7707C553.118 40.6745 553.118 30.7905 546.721 24.6943L546.103 24.1056C539.706 18.0094 529.335 18.0094 522.938 24.1056L215.034 317.535C208.637 323.631 208.637 333.515 215.034 339.612L215.652 340.2Z" fill="#002B49"/>
<path d="M130.652 357.354C137.049 363.45 147.421 363.45 153.818 357.354L411.527 111.759C417.924 105.663 417.924 95.779 411.527 89.6828L403.264 81.8079C396.867 75.7116 386.496 75.7117 380.099 81.8079L122.389 327.403C115.992 333.499 115.992 343.383 122.389 349.479L130.652 357.354Z" fill="#002B49"/>
<path d="M199.442 249.803C205.839 255.899 216.21 255.899 222.607 249.803L411.049 70.22C417.446 64.1238 417.446 54.2398 411.049 48.1436L398.641 36.3194C392.244 30.2232 381.873 30.2232 375.476 36.3194L187.035 215.902C180.638 221.999 180.638 231.883 187.034 237.979L199.442 249.803Z" fill="#1CC886"/>
<path d="M118.151 205.113C120.543 207.394 124.423 207.394 126.816 205.113L192.757 142.272C195.15 139.992 195.15 136.294 192.757 134.014C190.364 131.734 186.484 131.734 184.092 134.014L118.151 196.855C115.758 199.136 115.758 202.833 118.151 205.113Z" fill="#1CC886"/>
<path d="M132.785 65.9758C135.178 68.2561 139.057 68.2561 141.45 65.9758L183.448 25.9522C185.841 23.6718 185.841 19.9746 183.448 17.6942C181.055 15.4139 177.176 15.4139 174.783 17.6942L132.785 57.7178C130.392 59.9982 130.392 63.6954 132.785 65.9758Z" fill="#1CC886"/>
<path d="M99.3976 153.102C105.422 158.844 115.19 158.844 121.215 153.102L249.143 31.1879C255.168 25.4464 255.168 16.1375 249.143 10.3959C243.119 4.65437 233.351 4.65437 227.326 10.3959L99.3976 132.31C93.3728 138.052 93.3728 147.361 99.3976 153.102Z" fill="#1CC886"/>
<g style="mix-blend-mode:overlay">
<path d="M288.753 417.661C290.576 419.398 293.532 419.398 295.356 417.661L496.374 226.092C498.197 224.354 498.197 221.537 496.374 219.799C494.551 218.062 491.595 218.062 489.771 219.799L288.753 411.368C286.93 413.106 286.93 415.923 288.753 417.661Z" fill="#47C294"/>
</g>
</svg>
