<svg width="220" height="173" viewBox="0 0 220 173" fill="none" xmlns="http://www.w3.org/2000/svg">
<path d="M214.121 24.6227C233.422 82.2379 202.363 144.591 144.748 163.893C87.1328 183.195 24.7794 152.135 5.47775 94.5203C-13.8239 36.9051 21.2953 64.7939 78.9104 45.4923C136.526 26.1906 194.819 -32.9925 214.121 24.6227Z" fill="url(#paint0_linear)"/>
<path d="M151.622 162.633H142.856V173H151.622V162.633Z" fill="url(#paint1_linear)"/>
<path d="M143.061 172.621H151.42V162.631H143.061V172.621Z" fill="#148C5E"/>
<path d="M65.7943 162.633H57.0282V173H65.7943V162.633Z" fill="url(#paint2_linear)"/>
<path d="M65.5918 162.633H57.2325V172.623H65.5918V162.633Z" fill="#148C5E"/>
<path d="M160.853 45H47.5949C46.1618 45 45 46.1618 45 47.5949V161.464C45 162.897 46.1618 164.059 47.5949 164.059H160.853C162.286 164.059 163.448 162.897 163.448 161.464V47.5949C163.448 46.1618 162.286 45 160.853 45Z" fill="url(#paint3_linear)"/>
<path d="M160.24 45.6112H48.4104C46.9773 45.6112 45.8155 46.773 45.8155 48.2061V160.036C45.8155 161.469 46.9773 162.631 48.4104 162.631H160.24C161.673 162.631 162.835 161.469 162.835 160.036V48.2061C162.835 46.773 161.673 45.6112 160.24 45.6112Z" fill="#148C5E"/>
<path d="M143.775 64.4689H64.6732V144.386H143.775V64.4689Z" fill="url(#paint4_linear)"/>
<path d="M151.346 84.738L125.927 91.4825L129.221 103.897L154.64 97.1521L151.346 84.738Z" fill="url(#paint5_linear)"/>
<path d="M151.201 84.9879L126.175 91.628L129.364 103.649L154.39 97.0087L151.201 84.9879Z" fill="white"/>
<path d="M150.486 85.5983L127.101 91.8032L130.082 103.036L153.467 96.831L150.486 85.5983Z" fill="#69F0AE"/>
<path d="M140.784 96.611C143.178 95.9758 144.838 94.4022 144.491 93.0962C144.145 91.7903 141.923 91.2465 139.53 91.8816C137.136 92.5168 135.476 94.0904 135.823 95.3964C136.169 96.7023 138.391 97.2461 140.784 96.611Z" fill="white"/>
<path d="M129.408 102.819L125.235 114.966L150.107 123.51L154.28 111.363L129.408 102.819Z" fill="url(#paint6_linear)"/>
<path d="M154.021 111.489L129.534 103.076L125.493 114.838L149.98 123.251L154.021 111.489Z" fill="white"/>
<path d="M153.087 111.6L130.206 103.739L126.43 114.73L149.311 122.591L153.087 111.6Z" fill="#69F0AE"/>
<path d="M143.936 114.491C144.375 113.214 142.832 111.525 140.49 110.721C138.148 109.916 135.893 110.299 135.454 111.577C135.015 112.855 136.558 114.543 138.9 115.348C141.243 116.153 143.497 115.769 143.936 114.491Z" fill="white"/>
<path d="M156.896 97.8607H130.598V110.704H156.896V97.8607Z" fill="url(#paint7_linear)"/>
<path d="M156.694 98.065H130.802V110.502H156.694V98.065Z" fill="white"/>
<path d="M155.845 98.4719H131.651V110.093H155.845V98.4719Z" fill="#69F0AE"/>
<path d="M143.646 106.627C146.122 106.627 148.13 105.531 148.13 104.18C148.13 102.829 146.122 101.734 143.646 101.734C141.169 101.734 139.161 102.829 139.161 104.18C139.161 105.531 141.169 106.627 143.646 106.627Z" fill="white"/>
<path d="M143.162 65.2844H65.2844V143.162H143.162V65.2844Z" fill="white"/>
<path d="M104.224 118.903C112.331 118.903 118.903 112.331 118.903 104.224C118.903 96.117 112.331 89.545 104.224 89.545C96.117 89.545 89.545 96.117 89.545 104.224C89.545 112.331 96.117 118.903 104.224 118.903Z" fill="url(#paint8_linear)"/>
<path d="M104.224 118.292C111.993 118.292 118.292 111.993 118.292 104.224C118.292 96.4546 111.993 90.1562 104.224 90.1562C96.4546 90.1562 90.1562 96.4546 90.1562 104.224C90.1562 111.993 96.4546 118.292 104.224 118.292Z" fill="#FAFAFA"/>
<path d="M97.8031 132.255H93.5213V136.739H97.8031V132.255Z" fill="url(#paint9_linear)"/>
<path d="M103.512 132.255H99.2297V136.739H103.512V132.255Z" fill="url(#paint10_linear)"/>
<path d="M109.218 132.255H104.936V136.739H109.218V132.255Z" fill="url(#paint11_linear)"/>
<path d="M114.927 132.255H110.645V136.739H114.927V132.255Z" fill="url(#paint12_linear)"/>
<path d="M97.7 132.459H93.6225V136.537H97.7V132.459Z" fill="#1CC886"/>
<path opacity="0.7" d="M103.409 132.459H99.331V136.537H103.409V132.459Z" fill="#1CC886"/>
<path opacity="0.5" d="M109.117 132.459H105.04V136.537H109.117V132.459Z" fill="#1CC886"/>
<path opacity="0.3" d="M114.825 132.459H110.748V136.537H114.825V132.459Z" fill="#1CC886"/>
<path d="M110.781 95.7486L110.113 95.2809L108.476 97.6182L109.144 98.086L110.781 95.7486Z" fill="#1CC886"/>
<path d="M112.699 110.78L113.167 110.112L110.83 108.475L110.362 109.143L112.699 110.78Z" fill="#1CC886"/>
<path d="M97.6666 112.699L98.3347 113.166L99.9713 110.829L99.3033 110.361L97.6666 112.699Z" fill="#1CC886"/>
<path d="M95.7495 97.6674L95.2817 98.3354L97.6191 99.9721L98.0868 99.3041L95.7495 97.6674Z" fill="#1CC886"/>
<path opacity="0.2" d="M110.773 95.7246L110.105 95.2568L108.469 97.5942L109.137 98.0619L110.773 95.7246Z" fill="black"/>
<path opacity="0.2" d="M112.693 110.756L113.16 110.088L110.823 108.452L110.355 109.12L112.693 110.756Z" fill="black"/>
<path opacity="0.2" d="M97.6611 112.674L98.3291 113.142L99.9657 110.804L99.2977 110.337L97.6611 112.674Z" fill="black"/>
<path opacity="0.2" d="M95.7429 97.6434L95.2751 98.3115L97.6125 99.9481L98.0802 99.2801L95.7429 97.6434Z" fill="black"/>
<path d="M104.224 113.091C109.121 113.091 113.091 109.121 113.091 104.224C113.091 99.3267 109.121 95.3566 104.224 95.3566C99.3267 95.3566 95.3566 99.3267 95.3566 104.224C95.3566 109.121 99.3267 113.091 104.224 113.091Z" fill="url(#paint13_linear)"/>
<path d="M104.224 112.583C108.841 112.583 112.583 108.841 112.583 104.224C112.583 99.6073 108.841 95.8647 104.224 95.8647C99.6073 95.8647 95.8647 99.6073 95.8647 104.224C95.8647 108.841 99.6073 112.583 104.224 112.583Z" fill="#1CC886"/>
<path opacity="0.2" d="M97.3944 105.345C97.3928 103.879 97.7767 102.439 98.5077 101.168C99.2386 99.8978 100.291 98.8418 101.559 98.1064C102.827 97.3709 104.266 96.9819 105.732 96.9783C107.197 96.9747 108.638 97.3567 109.91 98.0859C109.057 97.265 108.039 96.6346 106.924 96.2366C105.809 95.8387 104.622 95.6821 103.442 95.7773C102.262 95.8726 101.116 96.2174 100.079 96.7891C99.0422 97.3607 98.1388 98.1461 97.4284 99.0933C96.7181 100.04 96.2171 101.128 95.9586 102.283C95.7001 103.438 95.69 104.635 95.929 105.795C96.168 106.954 96.6506 108.05 97.3449 109.009C98.0391 109.968 98.9292 110.768 99.9562 111.357C99.146 110.58 98.5014 109.646 98.0612 108.613C97.6209 107.58 97.3942 106.468 97.3944 105.345Z" fill="white"/>
<path d="M68.6494 96.7832H62.1255V80.4942C62.1259 80.3264 62.1929 80.1656 62.3117 80.0471C62.4306 79.9286 62.5915 79.8621 62.7593 79.8621H68.0173C68.1854 79.8621 68.3466 79.9288 68.4655 80.0477C68.5844 80.1666 68.6512 80.3278 68.6512 80.4959L68.6494 96.7832Z" fill="url(#paint14_linear)"/>
<path d="M67.9841 128.79H62.7908C62.6143 128.79 62.4451 128.72 62.3203 128.595C62.1956 128.471 62.1255 128.301 62.1255 128.125V111.869H68.6494V128.121C68.6499 128.209 68.633 128.296 68.5998 128.377C68.5666 128.458 68.5176 128.532 68.4558 128.594C68.394 128.656 68.3205 128.706 68.2395 128.739C68.1586 128.773 68.0718 128.79 67.9841 128.79Z" fill="url(#paint15_linear)"/>
<path d="M62.8816 80.0646H67.8916C68.0384 80.0646 68.1792 80.123 68.283 80.2268C68.3868 80.3306 68.4451 80.4714 68.4451 80.6182V96.3746H62.3333V80.6234C62.3326 80.5507 62.3462 80.4786 62.3734 80.4112C62.4006 80.3438 62.4408 80.2824 62.4917 80.2305C62.5426 80.1786 62.6032 80.1372 62.6701 80.1088C62.737 80.0803 62.8089 80.0653 62.8816 80.0646Z" fill="#FAFAFA"/>
<path d="M62.328 112.073H68.4399V128.196C68.4399 128.246 68.4204 128.293 68.3857 128.327C68.351 128.362 68.3039 128.382 68.2548 128.382H62.5149C62.4658 128.382 62.4187 128.362 62.384 128.327C62.3493 128.293 62.3298 128.246 62.3298 128.196V112.073H62.328Z" fill="#FAFAFA"/>
<defs>
<linearGradient id="paint0_linear" x1="206.965" y1="-17.8926" x2="17.5699" y2="118.154" gradientUnits="userSpaceOnUse">
<stop stop-color="#22C88A"/>
<stop offset="1" stop-color="#1BF2A0"/>
</linearGradient>
<linearGradient id="paint1_linear" x1="147.239" y1="173" x2="147.239" y2="162.633" gradientUnits="userSpaceOnUse">
<stop stop-color="#808080" stop-opacity="0.25"/>
<stop offset="0.54" stop-color="#808080" stop-opacity="0.12"/>
<stop offset="1" stop-color="#808080" stop-opacity="0.1"/>
</linearGradient>
<linearGradient id="paint2_linear" x1="880.873" y1="162.633" x2="880.873" y2="7146.47" gradientUnits="userSpaceOnUse">
<stop stop-color="#808080" stop-opacity="0.25"/>
<stop offset="0.54" stop-color="#808080" stop-opacity="0.12"/>
<stop offset="1" stop-color="#808080" stop-opacity="0.1"/>
</linearGradient>
<linearGradient id="paint3_linear" x1="40216.6" y1="81219.6" x2="40216.6" y2="45" gradientUnits="userSpaceOnUse">
<stop stop-color="#808080" stop-opacity="0.25"/>
<stop offset="0.54" stop-color="#808080" stop-opacity="0.12"/>
<stop offset="1" stop-color="#808080" stop-opacity="0.1"/>
</linearGradient>
<linearGradient id="paint4_linear" x1="26892" y1="45548.5" x2="26892" y2="8974.42" gradientUnits="userSpaceOnUse">
<stop stop-color="#808080" stop-opacity="0.25"/>
<stop offset="0.54" stop-color="#808080" stop-opacity="0.12"/>
<stop offset="1" stop-color="#808080" stop-opacity="0.1"/>
</linearGradient>
<linearGradient id="paint5_linear" x1="22045.7" y1="-44.4585" x2="21803.4" y2="-957.516" gradientUnits="userSpaceOnUse">
<stop stop-color="#808080" stop-opacity="0.25"/>
<stop offset="0.54" stop-color="#808080" stop-opacity="0.12"/>
<stop offset="1" stop-color="#808080" stop-opacity="0.1"/>
</linearGradient>
<linearGradient id="paint6_linear" x1="5326.94" y1="15875.3" x2="5955.4" y2="14046" gradientUnits="userSpaceOnUse">
<stop stop-color="#808080" stop-opacity="0.25"/>
<stop offset="0.54" stop-color="#808080" stop-opacity="0.12"/>
<stop offset="1" stop-color="#808080" stop-opacity="0.1"/>
</linearGradient>
<linearGradient id="paint7_linear" x1="15001.9" y1="4930.42" x2="15001.9" y2="3985.76" gradientUnits="userSpaceOnUse">
<stop stop-color="#808080" stop-opacity="0.25"/>
<stop offset="0.54" stop-color="#808080" stop-opacity="0.12"/>
<stop offset="1" stop-color="#808080" stop-opacity="0.1"/>
</linearGradient>
<linearGradient id="paint8_linear" x1="10046.3" y1="12514.1" x2="10046.3" y2="7578.46" gradientUnits="userSpaceOnUse">
<stop stop-color="#808080" stop-opacity="0.25"/>
<stop offset="0.54" stop-color="#808080" stop-opacity="0.12"/>
<stop offset="1" stop-color="#808080" stop-opacity="0.1"/>
</linearGradient>
<linearGradient id="paint9_linear" x1="1335.72" y1="2488.16" x2="1335.72" y2="2372.95" gradientUnits="userSpaceOnUse">
<stop stop-color="#808080" stop-opacity="0.25"/>
<stop offset="0.54" stop-color="#808080" stop-opacity="0.12"/>
<stop offset="1" stop-color="#808080" stop-opacity="0.1"/>
</linearGradient>
<linearGradient id="paint10_linear" x1="1481.4" y1="2488.16" x2="1481.4" y2="2372.95" gradientUnits="userSpaceOnUse">
<stop stop-color="#808080" stop-opacity="0.25"/>
<stop offset="0.54" stop-color="#808080" stop-opacity="0.12"/>
<stop offset="1" stop-color="#808080" stop-opacity="0.1"/>
</linearGradient>
<linearGradient id="paint11_linear" x1="1627.07" y1="2488.16" x2="1627.07" y2="2372.95" gradientUnits="userSpaceOnUse">
<stop stop-color="#808080" stop-opacity="0.25"/>
<stop offset="0.54" stop-color="#808080" stop-opacity="0.12"/>
<stop offset="1" stop-color="#808080" stop-opacity="0.1"/>
</linearGradient>
<linearGradient id="paint12_linear" x1="1772.75" y1="2488.16" x2="1772.75" y2="2372.95" gradientUnits="userSpaceOnUse">
<stop stop-color="#808080" stop-opacity="0.25"/>
<stop offset="0.54" stop-color="#808080" stop-opacity="0.12"/>
<stop offset="1" stop-color="#808080" stop-opacity="0.1"/>
</linearGradient>
<linearGradient id="paint13_linear" x1="6110.15" y1="7010.72" x2="6110.15" y2="5209.39" gradientUnits="userSpaceOnUse">
<stop stop-color="#808080" stop-opacity="0.25"/>
<stop offset="0.54" stop-color="#808080" stop-opacity="0.12"/>
<stop offset="1" stop-color="#808080" stop-opacity="0.1"/>
</linearGradient>
<linearGradient id="paint14_linear" x1="2526.24" y1="6519.03" x2="2526.24" y2="4879.38" gradientUnits="userSpaceOnUse">
<stop stop-color="#808080" stop-opacity="0.25"/>
<stop offset="0.54" stop-color="#808080" stop-opacity="0.12"/>
<stop offset="1" stop-color="#808080" stop-opacity="0.1"/>
</linearGradient>
<linearGradient id="paint15_linear" x1="2525.58" y1="9652.52" x2="2525.58" y2="8012.86" gradientUnits="userSpaceOnUse">
<stop stop-color="#808080" stop-opacity="0.25"/>
<stop offset="0.54" stop-color="#808080" stop-opacity="0.12"/>
<stop offset="1" stop-color="#808080" stop-opacity="0.1"/>
</linearGradient>
</defs>
</svg>
