<svg width="220" height="170" viewBox="0 0 220 170" fill="none" xmlns="http://www.w3.org/2000/svg">
<path d="M214.121 24.6227C233.423 82.2378 202.363 144.591 144.748 163.893C87.1329 183.195 24.7795 152.135 5.47784 94.5202C-13.8238 36.905 21.2954 64.7939 78.9105 45.4922C136.526 26.1905 194.819 -32.9925 214.121 24.6227Z" fill="url(#paint0_linear)"/>
<path d="M51.0466 23.6588C51.0466 23.6588 42.1182 35.5163 48.5055 49.3375C54.8928 63.1586 37.3733 85.3653 37.3733 85.3653" stroke="#535461" stroke-width="2" stroke-miterlimit="10"/>
<path d="M55.0496 19.2211C54.3404 22.2727 50.9469 24.0907 50.9469 24.0907C50.9469 24.0907 48.7061 20.9606 49.4153 17.909C50.1245 14.8574 51.9564 12.6767 53.518 13.0394C55.0796 13.402 55.7588 16.1695 55.0496 19.2211Z" fill="#8ED16F"/>
<path d="M52.7706 18.6893C52.9935 17.7313 52.8831 16.8869 52.524 16.8033C52.1649 16.7197 51.693 17.4286 51.4701 18.3867C51.2471 19.3447 51.3575 20.1891 51.7166 20.2727C52.0758 20.3563 52.5476 19.6474 52.7706 18.6893Z" fill="#8ED16F"/>
<path opacity="0.3" d="M52.7706 18.6893C52.9935 17.7313 52.8831 16.8869 52.524 16.8033C52.1649 16.7197 51.693 17.4286 51.4701 18.3867C51.2471 19.3447 51.3575 20.1891 51.7166 20.2727C52.0758 20.3563 52.5476 19.6474 52.7706 18.6893Z" fill="black"/>
<path d="M53.5065 32.7789C50.5589 33.8415 47.1885 31.9796 47.1885 31.9796C47.1885 31.9796 48.5976 28.3967 51.5476 27.3364C54.4975 26.2761 57.3227 26.6434 57.8656 28.1357C58.4085 29.628 56.4542 31.7163 53.5065 32.7789Z" fill="#8ED16F"/>
<path d="M52.6787 30.4262C53.6033 30.0917 54.2513 29.5396 54.1259 29.193C54.0006 28.8465 53.1494 28.8366 52.2247 29.1711C51.3001 29.5055 50.6522 30.0576 50.7775 30.4042C50.9029 30.7508 51.7541 30.7606 52.6787 30.4262Z" fill="#8ED16F"/>
<path opacity="0.3" d="M52.6787 30.4262C53.6033 30.0917 54.2513 29.5396 54.1259 29.193C54.0006 28.8465 53.1494 28.8366 52.2247 29.1711C51.3001 29.5055 50.6522 30.0576 50.7775 30.4042C50.9029 30.7508 51.7541 30.7606 52.6787 30.4262Z" fill="black"/>
<path d="M52.8205 43.583C49.8728 44.6457 46.5024 42.7838 46.5024 42.7838C46.5024 42.7838 47.9116 39.2008 50.8615 38.1405C53.8115 37.0802 56.6367 37.4475 57.1796 38.9398C57.7224 40.4321 55.7681 42.5227 52.8205 43.583Z" fill="#8ED16F"/>
<path d="M52.027 41.3936C52.9525 41.0604 53.6015 40.509 53.4766 40.1621C53.3517 39.8152 52.5002 39.8041 51.5747 40.1373C50.6492 40.4705 50.0002 41.0218 50.1251 41.3687C50.25 41.7157 51.1015 41.7268 52.027 41.3936Z" fill="#8ED16F"/>
<path opacity="0.3" d="M52.027 41.3936C52.9525 41.0604 53.6015 40.509 53.4766 40.1621C53.3517 39.8152 52.5002 39.8041 51.5747 40.1373C50.6492 40.4705 50.0002 41.0218 50.1251 41.3687C50.25 41.7157 51.1015 41.7268 52.027 41.3936Z" fill="black"/>
<path d="M56.2646 56.2584C53.3169 57.321 49.9465 55.4591 49.9465 55.4591C49.9465 55.4591 51.3557 51.8762 54.3056 50.8159C57.2556 49.7556 60.0808 50.1229 60.6237 51.6152C61.1665 53.1075 59.2122 55.2027 56.2646 56.2584Z" fill="#8ED16F"/>
<path d="M55.4716 54.0745C56.3971 53.7413 57.0461 53.19 56.9212 52.8431C56.7963 52.4962 55.9448 52.4851 55.0193 52.8183C54.0938 53.1515 53.4448 53.7028 53.5697 54.0497C53.6945 54.3966 54.5461 54.4077 55.4716 54.0745Z" fill="#8ED16F"/>
<path opacity="0.3" d="M55.4716 54.0745C56.3971 53.7413 57.0461 53.19 56.9212 52.8431C56.7963 52.4962 55.9448 52.4851 55.0193 52.8183C54.0938 53.1515 53.4448 53.7028 53.5697 54.0497C53.6945 54.3966 54.5461 54.4077 55.4716 54.0745Z" fill="black"/>
<path d="M54.0241 67.8503C51.0764 68.9129 47.7061 67.051 47.7061 67.051C47.7061 67.051 49.1152 63.4681 52.0652 62.4078C55.0151 61.3475 57.8403 61.7148 58.3832 63.2071C58.9261 64.6994 56.974 66.79 54.0241 67.8503Z" fill="#8ED16F"/>
<path d="M53.2371 65.4696C54.1617 65.1351 54.8096 64.583 54.6843 64.2364C54.5589 63.8899 53.7077 63.88 52.7831 64.2144C51.8584 64.5489 51.2105 65.101 51.3359 65.4476C51.4612 65.7942 52.3124 65.804 53.2371 65.4696Z" fill="#8ED16F"/>
<path opacity="0.3" d="M53.2371 65.4696C54.1617 65.1351 54.8096 64.583 54.6843 64.2364C54.5589 63.8899 53.7077 63.88 52.7831 64.2144C51.8584 64.5489 51.2105 65.101 51.3359 65.4476C51.4612 65.7942 52.3124 65.804 53.2371 65.4696Z" fill="black"/>
<path d="M40.1985 35.8489C42.3745 38.1036 46.2208 37.928 46.2208 37.928C46.2208 37.928 46.5373 34.091 44.3612 31.8363C42.1851 29.5817 39.4893 28.6531 38.3388 29.7573C37.1884 30.8615 38.0224 33.5943 40.1985 35.8489Z" fill="#8ED16F"/>
<path d="M43.5996 35.0488C43.8649 34.7928 43.5261 34.0115 42.8429 33.3038C42.1597 32.5961 41.3909 32.23 41.1256 32.486C40.8603 32.7421 41.1991 33.5234 41.8823 34.2311C42.5654 34.9388 43.3343 35.3049 43.5996 35.0488Z" fill="#8ED16F"/>
<path opacity="0.3" d="M43.5996 35.0488C43.8649 34.7928 43.5261 34.0115 42.8429 33.3038C42.1597 32.5961 41.3909 32.23 41.1256 32.486C40.8603 32.7421 41.1991 33.5234 41.8823 34.2311C42.5654 34.9388 43.3343 35.3049 43.5996 35.0488Z" fill="black"/>
<path d="M38.9485 71.6527C41.1245 73.9073 44.9708 73.7318 44.9708 73.7318C44.9708 73.7318 45.2873 69.8947 43.1112 67.6401C40.9351 65.3855 38.2393 64.4568 37.0888 65.5611C35.9384 66.6653 36.7724 69.3981 38.9485 71.6527Z" fill="#8ED16F"/>
<path d="M42.3467 70.8557C42.6119 70.5996 42.2732 69.8183 41.59 69.1106C40.9068 68.4029 40.1379 68.0368 39.8727 68.2929C39.6074 68.549 39.9462 69.3303 40.6293 70.038C41.3125 70.7457 42.0814 71.1118 42.3467 70.8557Z" fill="#8ED16F"/>
<path opacity="0.3" d="M42.3467 70.8557C42.6119 70.5996 42.2732 69.8183 41.59 69.1106C40.9068 68.4029 40.1379 68.0368 39.8727 68.2929C39.6074 68.549 39.9462 69.3303 40.6293 70.038C41.3125 70.7457 42.0814 71.1118 42.3467 70.8557Z" fill="black"/>
<path d="M41.8339 48.5035C44.6383 49.9034 48.2027 48.4481 48.2027 48.4481C48.2027 48.4481 47.2209 44.7266 44.4188 43.3267C41.6167 41.9268 38.7638 41.9406 38.05 43.3821C37.3362 44.8236 39.0294 47.1036 41.8339 48.5035Z" fill="#8ED16F"/>
<path d="M44.7652 46.6079C44.9298 46.2779 44.3498 45.6544 43.4696 45.2152C42.5895 44.776 41.7425 44.6874 41.5779 45.0173C41.4132 45.3472 41.9933 45.9707 42.8734 46.4099C43.7536 46.8492 44.6006 46.9378 44.7652 46.6079Z" fill="#8ED16F"/>
<path opacity="0.3" d="M44.7652 46.6079C44.9298 46.2779 44.3498 45.6544 43.4696 45.2152C42.5895 44.776 41.7425 44.6874 41.5779 45.0173C41.4132 45.3472 41.9933 45.9707 42.8734 46.4099C43.7536 46.8492 44.6006 46.9378 44.7652 46.6079Z" fill="black"/>
<path d="M43.0097 61.1095C45.8141 62.5094 49.3785 61.0541 49.3785 61.0541C49.3785 61.0541 48.3968 57.3326 45.5946 55.9327C42.7925 54.5328 39.9396 54.5466 39.2258 55.9881C38.512 57.4296 40.2168 59.7235 43.0097 61.1095Z" fill="#8ED16F"/>
<path d="M45.9419 59.2155C46.1066 58.8856 45.5265 58.2621 44.6464 57.8229C43.7662 57.3837 42.9193 57.2951 42.7546 57.625C42.59 57.9549 43.17 58.5784 44.0502 59.0176C44.9303 59.4568 45.7773 59.5454 45.9419 59.2155Z" fill="#8ED16F"/>
<path opacity="0.3" d="M45.9419 59.2155C46.1066 58.8856 45.5265 58.2621 44.6464 57.8229C43.7662 57.3837 42.9193 57.2951 42.7546 57.625C42.59 57.9549 43.17 58.5784 44.0502 59.0176C44.9303 59.4568 45.7773 59.5454 45.9419 59.2155Z" fill="black"/>
<path d="M31.0446 49.1457C31.0446 49.1457 47.3513 65.4525 38.1457 89.6504C28.9401 113.848 53.9258 154.087 53.9258 154.087C53.9258 154.087 53.6578 154.048 53.1612 153.96C19.6652 148.049 3.03269 109.743 21.6518 81.288C28.5659 70.7079 34.2602 58.2982 31.0446 49.1457Z" fill="#8ED16F"/>
<path d="M2 115.1C2 115.1 20.6076 112.137 22.3032 128.813C23.9988 145.489 58.0838 147.802 58.0838 147.802C58.0838 147.802 57.8528 147.954 57.4439 148.227C29.3004 166.707 2.39733 159.994 6.4515 135.464C7.96229 126.341 7.83754 117.182 2 115.1Z" fill="#8ED16F"/>
<g opacity="0.3">
<path opacity="0.3" d="M2 115.1C2 115.1 20.6076 112.137 22.3032 128.813C23.9988 145.489 58.0838 147.802 58.0838 147.802C58.0838 147.802 57.8528 147.954 57.4439 148.227C29.3004 166.707 2.39733 159.994 6.4515 135.464C7.96229 126.341 7.83754 117.182 2 115.1Z" fill="white"/>
</g>
<path d="M26.3341 114.895C29.16 114.895 31.4509 108.918 31.4509 101.545C31.4509 94.1721 29.16 88.1951 26.3341 88.1951C23.5082 88.1951 21.2173 94.1721 21.2173 101.545C21.2173 108.918 23.5082 114.895 26.3341 114.895Z" fill="#8ED16F"/>
<path opacity="0.3" d="M26.3341 114.895C29.16 114.895 31.4509 108.918 31.4509 101.545C31.4509 94.1721 29.16 88.1951 26.3341 88.1951C23.5082 88.1951 21.2173 94.1721 21.2173 101.545C21.2173 108.918 23.5082 114.895 26.3341 114.895Z" fill="black"/>
<path d="M25.8668 150.029C27.2137 148.682 25.8753 145.16 22.8775 142.162C19.8797 139.164 16.3577 137.826 15.0108 139.173C13.6639 140.52 15.0022 144.042 18 147.04C20.9978 150.038 24.5199 151.376 25.8668 150.029Z" fill="#8ED16F"/>
<path opacity="0.3" d="M25.8668 150.029C27.2137 148.682 25.8753 145.16 22.8775 142.162C19.8797 139.164 16.3577 137.826 15.0108 139.173C13.6639 140.52 15.0022 144.042 18 147.04C20.9978 150.038 24.5199 151.376 25.8668 150.029Z" fill="black"/>
<path d="M129.273 32.0421C129.438 32.5646 129.789 33.0083 130.259 33.2896C132.382 34.6918 136.998 34.3938 137.552 34.3938C137.67 34.3938 137.825 34.604 137.996 34.9574C138.811 36.6392 140.075 41.5688 140.16 42.6777C140.273 44.0198 141.521 50.3009 143.563 52.641C143.625 52.7126 143.688 52.7796 143.748 52.842C145.751 54.854 148.1 52.641 148.1 52.641L148.437 51.4698C148.342 51.9318 148.236 52.4701 148.13 53.073C148.077 53.3756 148.024 53.6967 147.973 54.027C147.669 55.8884 147.509 57.7706 147.495 59.6567C147.49 60.3415 147.519 61.0261 147.582 61.708C147.601 61.8974 147.622 62.0846 147.647 62.2671C147.751 63.0976 147.802 63.9341 147.8 64.7712C147.781 69.7424 146.513 75.9265 146.513 75.9265L146.561 75.9103C146.531 76.0651 146.513 76.1413 146.513 76.1413L146.587 76.1182C146.551 76.3477 146.518 76.5825 146.485 76.8228C146.056 79.9414 145.808 83.8223 145.691 86.0631C145.63 87.245 145.682 88.4301 145.848 89.6021L148.102 105.475V112.867C148.095 113.987 148.231 115.103 148.509 116.189C149.243 118.982 148.638 128.73 148.299 133.355C148.204 134.616 148.13 135.499 148.109 135.753V135.829L148.174 135.803C148.174 135.857 148.174 135.884 148.174 135.884C148.27 135.843 148.371 135.814 148.474 135.797C147.58 137.183 145.961 139.474 144.716 139.86C143.982 140.083 143.329 140.516 142.838 141.105L142.805 141.149L142.759 141.214C142.605 141.42 142.512 141.664 142.489 141.921C142.471 141.876 142.457 141.831 142.447 141.784C142.352 142.299 142.662 142.771 143.635 142.999C144.202 143.108 144.779 143.154 145.356 143.138C148.728 143.138 154.714 142.101 155.374 140.985V137.136L155.483 137.171V137.206L155.896 137.342L157.031 133.535C158.391 132.528 157.262 114.502 157.031 110.36C156.823 106.586 159.158 91.5703 159.572 88.9252L159.516 88.8582L159.579 88.4725C159.662 88.5328 159.739 88.6009 159.81 88.6757C159.945 88.837 160.064 89.0119 160.163 89.1978C160.358 89.5284 160.526 89.8746 160.664 90.2327C162.947 95.9247 163.975 112.201 163.975 113.661V128.968C163.97 130.478 164.18 131.982 164.598 133.433C164.808 134.197 164.97 134.973 165.084 135.757C165.132 136.064 165.174 136.369 165.213 136.66C165.252 136.952 165.291 137.284 165.321 137.557C165.321 137.628 165.338 137.698 165.345 137.762C165.352 137.827 165.345 137.825 165.345 137.857C165.407 138.46 165.439 138.855 165.439 138.855C165.448 138.822 165.464 138.791 165.485 138.765L165.497 138.91C165.513 138.855 165.544 138.806 165.587 138.767C165.681 138.675 165.783 138.592 165.892 138.518V140.463L165.837 140.421V140.756C168.188 142.53 172.016 143.066 174.954 143.046C176.86 143.046 178.403 142.814 178.939 142.547C179.706 142.17 179.286 141.292 178.588 140.62C178.048 140.098 177.343 139.696 176.897 139.747C176.153 139.828 173.61 136.947 172.277 135.369L172.427 135.302L172.64 135.21V109.688C172.64 109.688 172.982 99.6116 174 89.646C174.484 84.6225 173.889 79.5536 172.256 74.7784L172.224 74.6837L172.534 74.7322C172.862 74.783 173.037 74.813 173.037 74.813C173.037 74.813 173.037 74.7345 173.016 74.582H173.037C173.037 74.582 172.64 70.2599 172.635 64.8312C172.635 58.6772 173.155 51.1741 175.306 46.9282C176.544 44.4842 176.957 42.5391 176.923 41.0052C176.977 39.6555 176.588 38.3251 175.816 37.2167C175.492 36.7705 175.052 36.422 174.543 36.2095L174.499 36.1841H174.476C174.105 36.0338 173.708 35.9554 173.307 35.9531H168.662C168.124 35.9535 167.596 35.8142 167.128 35.5488L165.31 34.5185C164.705 33.1949 164.617 31.5547 164.746 30.0162C164.746 29.8938 164.769 29.7713 164.781 29.6512L164.913 29.5126C165.014 29.404 165.109 29.2816 165.201 29.1776C165.199 29.2688 165.192 29.3598 165.181 29.4502C165.157 29.5958 165.118 29.6812 165.056 29.6997C166.049 29.5704 167.158 29.374 167.768 28.6071C167.793 28.577 167.816 28.5447 167.839 28.5123C168.02 28.2206 168.169 27.9109 168.285 27.5883C168.371 27.3679 168.485 27.1597 168.625 26.9692C168.777 26.7706 168.976 26.6088 169.14 26.4194L169.168 26.3871C169.752 25.6941 169.785 24.7007 169.791 23.7952C169.803 21.596 169.738 19.175 168.267 17.5257C167.045 16.1535 165.095 15.6337 163.245 15.5737C161.394 15.5136 159.549 15.8462 157.701 15.8555C156.444 15.8555 154.928 15.8347 154.235 16.8742C153.896 17.3847 153.854 18.0524 153.485 18.5421C153.272 18.8239 152.946 19.0665 152.928 19.4176C152.926 19.5796 152.967 19.7393 153.048 19.8796V19.8958C153.496 20.7782 154.448 21.328 155.441 21.5013C155.273 21.7034 155.119 21.9164 154.979 22.1389C154.373 23.1084 154.053 24.2294 154.055 25.373C154.055 25.5069 154.055 25.6386 154.069 25.7703C154.172 27.3235 154.865 28.7787 156.005 29.8383C155.986 29.9677 155.968 30.0971 155.947 30.2241L155.989 30.2611C156.12 30.3797 156.256 30.4921 156.398 30.5983L156.449 30.6376C156.449 30.7185 156.449 30.7993 156.449 30.8686C156.449 31.0026 156.449 31.1389 156.435 31.2706C156.421 31.4022 156.435 31.4831 156.421 31.5894L156.391 31.5639L154.134 29.6789L150.505 26.3201C150.505 26.3201 141.431 19.7156 140.976 22.855C140.921 23.4125 141.075 23.9707 141.408 24.4212C143.073 26.9623 148.8 29.1245 148.8 29.1245C148.8 29.1245 152.214 32.7352 154.499 36.6276C154.418 36.6715 154.337 36.7131 154.252 36.7524C152.219 37.6972 149.253 37.2975 149.253 37.2975C145.827 37.8312 145.517 41.585 145.536 43.1027C145.536 43.1743 145.536 43.2436 145.536 43.306C145.536 43.3684 145.536 43.3822 145.536 43.4169L140.99 32.7421L140.976 32.7097C140.827 32.3622 140.594 32.0577 140.297 31.8243C139.999 31.5909 139.648 31.4362 139.275 31.3745C136.235 30.864 128.638 29.7991 129.273 32.0421ZM148.306 135.764C148.372 135.748 148.439 135.736 148.506 135.727L148.486 135.76L148.306 135.764Z" fill="url(#paint1_linear)"/>
<path d="M171.02 133.581C171.02 133.581 175.326 138.994 176.322 138.883C177.318 138.772 179.635 140.98 178.311 141.655C176.987 142.329 169.366 142.759 165.605 139.888V135.561L171.02 133.581Z" fill="#ACA9C9"/>
<path d="M149.262 133.911C149.262 133.911 146.721 138.439 144.956 138.994C143.191 139.548 141.643 141.535 143.962 142.087C146.282 142.639 154.566 141.424 155.337 140.098V134.242L149.262 133.911Z" fill="#ACA9C9"/>
<path d="M146.072 89.4312L148.266 105.089V112.368C148.259 113.472 148.393 114.573 148.664 115.644C149.38 118.399 148.791 128.014 148.458 132.576C148.349 134.064 148.266 135.016 148.266 135.016C149.701 134.353 155.776 136.45 155.776 136.45L156.391 134.36L156.88 132.696C158.206 131.703 157.111 113.923 156.88 109.827C156.73 107.029 157.978 97.9599 158.777 92.5244C159.008 90.9882 159.195 89.7523 159.308 89.0084C159.38 88.5464 159.419 88.29 159.419 88.29C159.663 88.4885 159.865 88.7325 160.015 89.0084C160.205 89.3349 160.368 89.6764 160.503 90.0295C162.725 95.6453 163.737 111.7 163.737 113.13V128.229C163.732 129.718 163.937 131.201 164.344 132.634C164.618 133.679 164.818 134.742 164.943 135.815C165.1 137.014 165.174 137.98 165.174 137.98C165.284 137.317 172.132 134.334 172.132 134.334V109.155C172.132 109.155 172.462 99.2212 173.457 89.385C173.885 84.9107 173.454 80.3959 172.187 76.0836C171.912 75.1434 171.637 74.3464 171.399 73.7158C170.995 72.6416 170.706 72.0479 170.706 72.0479H148.151C147.772 72.1195 147.458 72.8818 147.174 74.0392C146.989 74.8154 146.827 75.7671 146.686 76.8113C146.268 79.886 146.028 83.7138 145.912 85.9268C145.854 87.0973 145.907 88.2708 146.072 89.4312Z" fill="#618FD8"/>
<g opacity="0.1">
<path opacity="0.1" d="M171.734 134.406V109.226C171.734 109.226 172.065 99.2928 173.06 89.4565C174.056 79.6202 170.288 72.1171 170.288 72.1171H170.73C170.73 72.1171 174.483 79.6272 173.502 89.4565C172.52 99.2858 172.176 109.226 172.176 109.226V134.406C172.176 134.406 165.329 137.388 165.218 138.051C165.218 138.051 165.218 137.903 165.183 137.649C166.675 136.612 171.734 134.406 171.734 134.406Z" fill="black"/>
<path opacity="0.1" d="M148.929 134.946C148.721 134.951 148.515 134.993 148.322 135.071V134.96C148.524 134.94 148.727 134.935 148.929 134.946Z" fill="black"/>
<path opacity="0.1" d="M156.495 132.752C157.821 131.759 156.726 113.978 156.495 109.882C156.264 105.786 159.036 88.3477 159.036 88.3477C159.181 88.4598 159.309 88.5921 159.417 88.7404C159.01 91.3462 156.737 106.161 156.938 109.882C157.169 113.969 158.264 131.749 156.938 132.752L155.834 136.506L155.432 136.372L156.495 132.752Z" fill="black"/>
</g>
<path d="M150.585 44.7867L148.275 52.9597C148.275 52.9597 145.845 55.2698 143.858 52.9597C141.872 50.6497 140.647 44.4564 140.527 43.1304C140.407 41.8044 138.649 34.9574 137.986 34.9574C137.323 34.9574 130.698 35.3986 129.924 32.6473C129.305 30.4343 136.702 31.4923 139.663 31.9889C140.028 32.051 140.371 32.2043 140.661 32.4345C140.95 32.6647 141.177 32.9644 141.32 33.3057L145.861 44.1514C145.861 44.1514 148.266 41.3632 150.585 44.7867Z" fill="#F7C4A7"/>
<path d="M165.495 25.7911C165.495 25.7911 162.623 33.8533 166.269 36.7247C169.914 39.5961 153.233 40.37 153.233 40.37L155.497 38.217C155.497 38.217 157.098 31.8666 155.993 26.565L165.495 25.7911Z" fill="#F7C4A7"/>
<path opacity="0.1" d="M161.96 36.7246C161.96 36.7246 164.887 36.0062 164.887 35.2346L167.481 36.7246H173.998C173.998 36.7246 178.748 39.3743 174.772 47.3278C170.796 55.2814 172.564 74.8176 172.564 74.8176C172.564 74.8176 158.428 72.2766 146.721 76.1436C146.721 76.1436 148.488 67.4185 147.825 62.4495C147.162 57.4806 148.929 50.5226 148.929 50.5226L149.923 46.3252C149.923 46.3252 149.867 42.3981 145.781 44.3917C145.781 44.3917 145.173 38.7043 149.37 38.0413C149.37 38.0413 154.222 38.7043 155.665 36.2741C155.665 36.2834 158.869 38.1615 161.96 36.7246Z" fill="black"/>
<path d="M161.96 36.5052C161.96 36.5052 164.887 35.7868 164.887 35.0152L166.788 36.1079C167.243 36.3681 167.757 36.5051 168.281 36.5052H172.838C173.315 36.5038 173.785 36.6158 174.209 36.8319C174.634 37.048 175.001 37.362 175.28 37.748C176.326 39.2195 177.264 42.121 174.772 47.1084C170.796 55.0597 172.563 74.5982 172.563 74.5982C172.563 74.5982 158.428 72.0571 146.721 75.9242C146.721 75.9242 148.488 67.1991 147.825 62.2301C147.162 57.2611 148.929 50.3194 148.929 50.3194L149.922 46.122C149.922 46.122 149.867 42.1949 145.78 44.1885C145.78 44.1885 145.189 38.6582 149.197 37.8681C149.308 37.8434 149.423 37.8356 149.537 37.845C150.394 37.9351 154.388 38.2239 155.668 36.0593C155.665 36.0617 158.869 37.9397 161.96 36.5052Z" fill="#E14B5A"/>
<path opacity="0.1" d="M173.116 46.554C173.116 46.554 169.581 48.7624 163.838 46.554C163.838 46.554 157.543 44.2439 155.554 39.7069C153.565 35.17 165.603 40.4808 165.603 40.4808C165.603 40.4808 168.144 40.4808 168.916 39.9287C169.687 39.3766 175.102 44.1238 173.116 46.554Z" fill="black"/>
<path d="M173.116 46.1127C173.116 46.1127 169.581 48.3211 163.839 46.1127C163.839 46.1127 157.544 43.8027 155.555 39.2657C153.566 34.7287 148.929 29.7598 148.929 29.7598C148.929 29.7598 140.867 26.6666 141.306 23.5757C141.745 20.4848 150.583 26.9992 150.583 26.9992L154.118 30.3119L165.603 40.0303C165.603 40.0303 168.144 40.0303 168.916 39.4782C169.688 38.9261 175.102 43.6825 173.116 46.1127Z" fill="#F7C4A7"/>
<path opacity="0.1" d="M155.887 26.8953L165.384 26.1214C164.896 27.5814 164.563 29.0891 164.393 30.6191C163.289 31.7639 161.779 32.4295 160.19 32.4727C158.6 32.5159 157.056 31.9333 155.892 30.8501C156.134 29.5428 156.132 28.202 155.887 26.8953Z" fill="black"/>
<path d="M160.14 32.1415C163.494 32.1415 166.213 29.4224 166.213 26.0683C166.213 22.7142 163.494 19.9951 160.14 19.9951C156.786 19.9951 154.067 22.7142 154.067 26.0683C154.067 29.4224 156.786 32.1415 160.14 32.1415Z" fill="#F7C4A7"/>
<path opacity="0.1" d="M163.474 27.3873C163.118 26.8006 163.841 26.036 163.603 25.3938C163.383 24.8024 162.51 24.7007 162.217 24.1486C161.986 23.7028 162.217 23.1553 162.124 22.6633C161.993 22.028 161.309 21.633 160.66 21.6006C160.011 21.5683 159.385 21.8108 158.768 22.0187C157.763 22.3583 156.705 22.6194 155.652 22.4992C154.598 22.3791 153.547 21.8062 153.078 20.866C153.002 20.7291 152.961 20.5748 152.96 20.4179C152.979 20.0714 153.298 19.8334 153.503 19.5562C153.864 19.0734 153.905 18.415 154.233 17.9114C154.903 16.8858 156.375 16.9112 157.599 16.9066C159.401 16.9066 161.194 16.5693 162.995 16.6294C164.797 16.6894 166.691 17.1999 167.886 18.5536C169.318 20.1822 169.383 22.5662 169.371 24.7377C169.371 25.6317 169.334 26.6042 168.764 27.2949C168.597 27.4959 168.394 27.6622 168.235 27.8678C167.888 28.3298 167.796 28.9212 167.47 29.3902C166.892 30.2241 165.765 30.4274 164.76 30.5614C165.056 30.5221 164.811 28.5424 164.76 28.3599C164.566 27.4497 164.356 27.4682 163.474 27.3873Z" fill="black"/>
<path d="M163.474 27.1679C163.118 26.5811 163.841 25.8165 163.603 25.1743C163.383 24.5829 162.51 24.4812 162.217 23.9291C161.986 23.4833 162.217 22.9358 162.124 22.4438C161.993 21.8085 161.309 21.4135 160.66 21.3811C160.011 21.3488 159.385 21.5914 158.768 21.7993C157.763 22.1388 156.705 22.3999 155.652 22.2798C154.598 22.1596 153.547 21.5867 153.078 20.6465C153.002 20.5096 152.961 20.3554 152.96 20.1984C152.979 19.8519 153.298 19.6139 153.503 19.3367C153.864 18.8539 153.905 18.1956 154.233 17.692C154.903 16.6663 156.375 16.6917 157.599 16.6871C159.401 16.6871 161.194 16.3498 162.995 16.4099C164.797 16.4699 166.691 16.9805 167.886 18.3342C169.318 19.9628 169.383 22.3467 169.371 24.5182C169.371 25.4122 169.334 26.3847 168.764 27.0755C168.597 27.2764 168.394 27.4428 168.235 27.6483C167.888 28.1104 167.796 28.7017 167.47 29.1707C166.892 30.0046 165.765 30.2079 164.76 30.3419C165.056 30.3026 164.811 28.3229 164.76 28.1404C164.566 27.2187 164.356 27.2464 163.474 27.1679Z" fill="#281C1C"/>
<path opacity="0.1" d="M173.06 46.8311C173.06 46.8311 170.078 39.0993 167.758 38.8799C165.439 38.6604 172.175 38.8799 172.175 38.8799L174.384 42.8555L173.06 46.8311Z" fill="black"/>
<path d="M173.282 46.8311C173.282 46.8311 170.3 39.0993 167.98 38.8799C165.661 38.6604 172.397 38.8799 172.397 38.8799L174.606 42.8555L173.282 46.8311Z" fill="#E14B5A"/>
<path d="M164.933 135.833C165.09 137.032 165.164 137.998 165.164 137.998C165.275 137.335 172.122 134.353 172.122 134.353V132.558C171.948 132.551 171.773 132.56 171.6 132.583C170.272 132.761 169.04 133.406 167.904 134.094C166.944 134.724 165.952 135.305 164.933 135.833Z" fill="#618FD8"/>
<path opacity="0.3" d="M164.933 135.833C165.09 137.032 165.164 137.998 165.164 137.998C165.275 137.335 172.122 134.353 172.122 134.353V132.558C171.948 132.551 171.773 132.56 171.6 132.583C170.272 132.761 169.04 133.406 167.904 134.094C166.944 134.724 165.952 135.305 164.933 135.833Z" fill="black"/>
<path d="M148.266 135.016C149.701 134.353 155.776 136.45 155.776 136.45L156.391 134.36C155.331 134.145 154.277 133.877 153.242 133.558C152.759 133.418 152.287 133.244 151.828 133.036C151.523 132.873 151.208 132.726 150.886 132.597C150.094 132.324 149.269 132.44 148.456 132.576C148.35 134.064 148.266 135.016 148.266 135.016Z" fill="#618FD8"/>
<path opacity="0.3" d="M148.266 135.016C149.701 134.353 155.776 136.45 155.776 136.45L156.391 134.36C155.331 134.145 154.277 133.877 153.242 133.558C152.759 133.418 152.287 133.244 151.828 133.036C151.523 132.873 151.208 132.726 150.886 132.597C150.094 132.324 149.269 132.44 148.456 132.576C148.35 134.064 148.266 135.016 148.266 135.016Z" fill="black"/>
<path opacity="0.4" d="M178.251 141.311C178.343 141.271 178.425 141.211 178.491 141.135C178.557 141.059 178.604 140.969 178.63 140.872C178.671 141.024 178.655 141.186 178.585 141.328C178.516 141.469 178.397 141.581 178.251 141.641C176.925 142.304 169.306 142.745 165.545 139.874V139.543C169.306 142.415 176.925 141.974 178.251 141.311Z" fill="white"/>
<path opacity="0.4" d="M143.905 141.752C146.215 142.304 154.508 141.089 155.279 139.763V140.093C154.506 141.419 146.224 142.634 143.905 142.082C142.958 141.851 142.655 141.389 142.75 140.883C142.824 141.258 143.17 141.567 143.905 141.752Z" fill="white"/>
<path opacity="0.1" d="M157.377 61.2991C157.377 61.2991 154.947 60.5253 154.284 61.2991C153.621 62.073 147.954 63.8864 147.954 63.8864" fill="black"/>
<path d="M129.88 30.954H141.696V30.7046H129.88V30.954Z" fill="#47C294"/>
<path d="M129.88 31.2036H141.696V30.9541H129.88V31.2036Z" fill="#47C294"/>
<path opacity="0.1" d="M129.88 31.2036H141.696V30.9541H129.88V31.2036Z" fill="#47C294"/>
<path d="M129.88 31.453H141.696V31.2035H129.88V31.453Z" fill="#47C294"/>
<path d="M129.88 31.7002H141.696V31.4507H129.88V31.7002Z" fill="#47C294"/>
<path opacity="0.1" d="M129.88 31.7002H141.696V31.4507H129.88V31.7002Z" fill="#47C294"/>
<path d="M129.88 31.9496H141.696V31.7002H129.88V31.9496Z" fill="#47C294"/>
<path d="M129.88 32.1969H141.696V31.9474H129.88V32.1969Z" fill="#47C294"/>
<path opacity="0.1" d="M129.88 32.1969H141.696V31.9474H129.88V32.1969Z" fill="#47C294"/>
<path d="M129.88 32.4464H141.696V32.1969H129.88V32.4464Z" fill="#47C294"/>
<path d="M129.88 32.6936H141.696V32.4441H129.88V32.6936Z" fill="#47C294"/>
<path opacity="0.1" d="M129.88 32.6936H141.696V32.4441H129.88V32.6936Z" fill="#47C294"/>
<path d="M129.88 28.9674H141.696V28.7179H129.88V28.9674Z" fill="#47C294"/>
<path d="M138.238 23.0607L147.323 30.6163L147.482 30.4245L138.398 22.8689L138.238 23.0607Z" fill="#47C294"/>
<path d="M129.956 19.0855L139.04 26.6411L139.2 26.4493L130.115 18.8937L129.956 19.0855Z" fill="#47C294"/>
<path d="M129.88 29.2147H141.696V28.9652H129.88V29.2147Z" fill="#47C294"/>
<path opacity="0.1" d="M129.88 29.2147H141.696V28.9652H129.88V29.2147Z" fill="#47C294"/>
<path d="M129.88 29.4664H141.696V29.2169H129.88V29.4664Z" fill="#47C294"/>
<path d="M129.88 29.7136H141.696V29.4641H129.88V29.7136Z" fill="#47C294"/>
<path opacity="0.1" d="M129.88 29.7136H141.696V29.4641H129.88V29.7136Z" fill="#47C294"/>
<path d="M129.88 29.9608H141.696V29.7113H129.88V29.9608Z" fill="#47C294"/>
<path d="M129.88 30.2103H141.696V29.9608H129.88V30.2103Z" fill="#47C294"/>
<path opacity="0.1" d="M129.88 30.2103H141.696V29.9608H129.88V30.2103Z" fill="#47C294"/>
<path d="M129.88 30.4574H141.696V30.2079H129.88V30.4574Z" fill="#47C294"/>
<path d="M129.88 30.7069H141.696V30.4574H129.88V30.7069Z" fill="#47C294"/>
<path opacity="0.1" d="M129.88 30.7069H141.696V30.4574H129.88V30.7069Z" fill="#47C294"/>
<path d="M128.383 40.3937L132.616 41.1799L134.148 32.9285L129.915 32.1423L128.383 40.3937Z" fill="#47C294"/>
<path d="M132.192 36.8485C132.37 35.8889 132.126 35.0388 131.647 34.9499C131.168 34.8609 130.635 35.5667 130.457 36.5262C130.279 37.4858 130.523 38.3359 131.002 38.4248C131.481 38.5138 132.014 37.8081 132.192 36.8485Z" fill="#8ED16F"/>
<path d="M132.192 36.8485C132.37 35.8889 132.126 35.0388 131.647 34.9499C131.168 34.8609 130.635 35.5667 130.457 36.5262C130.279 37.4858 130.523 38.3359 131.002 38.4248C131.481 38.5138 132.014 37.8081 132.192 36.8485Z" fill="#1FB47C"/>
<path d="M129.107 57.8101L133.34 58.5963L134.873 50.3449L130.639 49.5587L129.107 57.8101Z" fill="#47C294"/>
<path d="M132.914 54.263C133.093 53.3034 132.849 52.4534 132.369 52.3644C131.89 52.2754 131.357 52.9812 131.179 53.9408C131.001 54.9004 131.245 55.7504 131.724 55.8394C132.203 55.9284 132.736 55.2226 132.914 54.263Z" fill="#22C88A"/>
<path opacity="0.1" d="M132.914 54.263C133.093 53.3034 132.849 52.4534 132.369 52.3644C131.89 52.2754 131.357 52.9812 131.179 53.9408C131.001 54.9004 131.245 55.7504 131.724 55.8394C132.203 55.9284 132.736 55.2226 132.914 54.263Z" fill="black"/>
<path d="M113.794 15.0009L111.745 18.788L119.126 22.7822L121.175 18.9952L113.794 15.0009Z" fill="#47C294"/>
<path d="M118.734 19.9023C118.968 19.4734 118.462 18.7459 117.603 18.2774C116.744 17.809 115.858 17.7769 115.624 18.2057C115.39 18.6346 115.897 19.3621 116.756 19.8306C117.614 20.299 118.5 20.3311 118.734 19.9023Z" fill="#8ED16F"/>
<path d="M118.734 19.9023C118.968 19.4734 118.462 18.7459 117.603 18.2774C116.744 17.809 115.858 17.7769 115.624 18.2057C115.39 18.6346 115.897 19.3621 116.756 19.8306C117.614 20.299 118.5 20.3311 118.734 19.9023Z" fill="#1FB47C"/>
<path d="M97.5877 89.7371L95.5383 93.5241L102.919 97.5184L104.969 93.7313L97.5877 89.7371Z" fill="#47C294"/>
<path d="M101.784 94.5194C102.016 94.0908 101.508 93.3667 100.65 92.9022C99.7912 92.4377 98.9073 92.4086 98.6754 92.8372C98.4434 93.2659 98.9512 93.9899 99.8096 94.4544C100.668 94.9189 101.552 94.948 101.784 94.5194Z" fill="#1FB47C"/>
<path d="M87.6717 28.0623L85.6223 31.8493L93.0033 35.8435L95.0527 32.0565L87.6717 28.0623Z" fill="#47C294"/>
<path d="M91.8661 32.8412C92.098 32.4126 91.5902 31.6886 90.7318 31.2241C89.8735 30.7595 88.9896 30.7305 88.7576 31.1591C88.5257 31.5877 89.0335 32.3117 89.8919 32.7762C90.7502 33.2408 91.6341 33.2698 91.8661 32.8412Z" fill="#8ED16F"/>
<path d="M91.8661 32.8412C92.098 32.4126 91.5902 31.6886 90.7318 31.2241C89.8735 30.7595 88.9896 30.7305 88.7576 31.1591C88.5257 31.5877 89.0335 32.3117 89.8919 32.7762C90.7502 33.2408 91.6341 33.2698 91.8661 32.8412Z" fill="#1FB47C"/>
<path d="M100.1 14.9999L98.0503 18.7869L105.431 22.7812L107.481 18.9942L100.1 14.9999Z" fill="#47C294"/>
<path d="M104.294 19.7788C104.526 19.3502 104.018 18.6261 103.16 18.1616C102.301 17.6971 101.418 17.668 101.186 18.0966C100.954 18.5253 101.461 19.2493 102.32 19.7138C103.178 20.1783 104.062 20.2074 104.294 19.7788Z" fill="#8ED16F"/>
<path d="M104.294 19.7788C104.526 19.3502 104.018 18.6261 103.16 18.1616C102.301 17.6971 101.418 17.668 101.186 18.0966C100.954 18.5253 101.461 19.2493 102.32 19.7138C103.178 20.1783 104.062 20.2074 104.294 19.7788Z" fill="#1FB47C"/>
<path d="M112.705 30.5044L108.424 30.9724L109.337 39.3152L113.617 38.8471L112.705 30.5044Z" fill="#47C294"/>
<path d="M110.959 36.5819C111.444 36.5289 111.75 35.6994 111.644 34.7292C111.538 33.759 111.059 33.0154 110.575 33.0684C110.09 33.1214 109.784 33.9508 109.89 34.921C109.996 35.8913 110.475 36.6348 110.959 36.5819Z" fill="#8ED16F"/>
<path d="M110.959 36.5819C111.444 36.5289 111.75 35.6994 111.644 34.7292C111.538 33.759 111.059 33.0154 110.575 33.0684C110.09 33.1214 109.784 33.9508 109.89 34.921C109.996 35.8913 110.475 36.6348 110.959 36.5819Z" fill="#1FB47C"/>
<path d="M141.855 76.096L137.575 76.564L138.487 84.9068L142.767 84.4387L141.855 76.096Z" fill="#47C294"/>
<path d="M140.309 82.2653C140.793 82.2123 141.1 81.3828 140.994 80.4126C140.888 79.4424 140.409 78.6988 139.924 78.7518C139.44 78.8048 139.133 79.6342 139.239 80.6044C139.345 81.5747 139.824 82.3182 140.309 82.2653Z" fill="#1FB47C"/>
<path d="M95.7466 48.1349L93.6973 51.9219L101.078 55.9161L103.128 52.1291L95.7466 48.1349Z" fill="#47C294"/>
<path d="M99.9393 52.9168C100.171 52.4882 99.6635 51.7642 98.8051 51.2997C97.9467 50.8352 97.0628 50.8061 96.8309 51.2347C96.5989 51.6633 97.1067 52.3874 97.9651 52.8519C98.8235 53.3164 99.7074 53.3455 99.9393 52.9168Z" fill="#8ED16F"/>
<path d="M99.9393 52.9168C100.171 52.4882 99.6635 51.7642 98.8051 51.2997C97.9467 50.8352 97.0628 50.8061 96.8309 51.2347C96.5989 51.6633 97.1067 52.3874 97.9651 52.8519C98.8235 53.3164 99.7074 53.3455 99.9393 52.9168Z" fill="#1FB47C"/>
<path d="M77.1209 42.8152L75.0715 46.6022L82.4526 50.5965L84.5019 46.8094L77.1209 42.8152Z" fill="#47C294"/>
<path d="M81.9281 47.8487C82.1621 47.4198 81.6555 46.6923 80.7966 46.2239C79.9377 45.7554 79.0518 45.7233 78.8179 46.1522C78.5839 46.581 79.0905 47.3085 79.9494 47.777C80.8083 48.2454 81.6942 48.2775 81.9281 47.8487Z" fill="#8ED16F"/>
<path d="M81.9281 47.8487C82.1621 47.4198 81.6555 46.6923 80.7966 46.2239C79.9377 45.7554 79.0518 45.7233 78.8179 46.1522C78.5839 46.581 79.0905 47.3085 79.9494 47.777C80.8083 48.2454 81.6942 48.2775 81.9281 47.8487Z" fill="#1FB47C"/>
<path d="M71.1558 132.378L69.1064 136.165L76.4875 140.159L78.5368 136.372L71.1558 132.378Z" fill="#47C294"/>
<path d="M75.3497 137.158C75.5817 136.729 75.0739 136.005 74.2155 135.541C73.3571 135.076 72.4732 135.047 72.2413 135.476C72.0093 135.905 72.5171 136.629 73.3755 137.093C74.2339 137.558 75.1178 137.587 75.3497 137.158Z" fill="#8ED16F"/>
<path d="M75.3497 137.158C75.5817 136.729 75.0739 136.005 74.2155 135.541C73.3571 135.076 72.4732 135.047 72.2413 135.476C72.0093 135.905 72.5171 136.629 73.3755 137.093C74.2339 137.558 75.1178 137.587 75.3497 137.158Z" fill="#1FB47C"/>
<path d="M65.7854 133.838L65 138.071L73.2517 139.602L74.0371 135.369L65.7854 133.838Z" fill="#47C294"/>
<path d="M71.2479 137.096C71.3368 136.617 70.6309 136.084 69.6713 135.906C68.7117 135.728 67.8617 135.972 67.7728 136.451C67.6839 136.931 68.3898 137.463 69.3494 137.641C70.309 137.819 71.159 137.575 71.2479 137.096Z" fill="#8ED16F"/>
<path d="M71.2479 137.096C71.3368 136.617 70.6309 136.084 69.6713 135.906C68.7117 135.728 67.8617 135.972 67.7728 136.451C67.6839 136.931 68.3898 137.463 69.3494 137.641C70.309 137.819 71.159 137.575 71.2479 137.096Z" fill="#1FB47C"/>
<path d="M66.5586 136.377L65.7732 140.61L74.0249 142.141L74.8103 137.908L66.5586 136.377Z" fill="#47C294"/>
<path d="M72.0186 139.635C72.1075 139.156 71.4017 138.623 70.4421 138.445C69.4824 138.267 68.6324 138.511 68.5435 138.99C68.4546 139.47 69.1605 140.002 70.1201 140.18C71.0798 140.358 71.9297 140.114 72.0186 139.635Z" fill="#8ED16F"/>
<path d="M72.0186 139.635C72.1075 139.156 71.4017 138.623 70.4421 138.445C69.4824 138.267 68.6324 138.511 68.5435 138.99C68.4546 139.47 69.1605 140.002 70.1201 140.18C71.0798 140.358 71.9297 140.114 72.0186 139.635Z" fill="#1FB47C"/>
<path d="M79.8618 143.263L77.8125 147.05L85.1935 151.044L87.2429 147.257L79.8618 143.263Z" fill="#47C294"/>
<path d="M84.0582 148.043C84.2902 147.614 83.7824 146.89 82.924 146.426C82.0656 145.961 81.1817 145.932 80.9498 146.361C80.7178 146.789 81.2256 147.513 82.084 147.978C82.9424 148.442 83.8263 148.471 84.0582 148.043Z" fill="#8ED16F"/>
<path d="M84.0582 148.043C84.2902 147.614 83.7824 146.89 82.924 146.426C82.0656 145.961 81.1817 145.932 80.9498 146.361C80.7178 146.789 81.2256 147.513 82.084 147.978C82.9424 148.442 83.8263 148.471 84.0582 148.043Z" fill="#1FB47C"/>
<path d="M74.4937 144.72L73.7083 148.953L81.9599 150.484L82.7454 146.25L74.4937 144.72Z" fill="#47C294"/>
<path d="M79.9535 147.978C80.0423 147.499 79.3365 146.966 78.3769 146.788C77.4172 146.61 76.5672 146.854 76.4783 147.333C76.3894 147.812 77.0953 148.345 78.0549 148.523C79.0146 148.701 79.8646 148.457 79.9535 147.978Z" fill="#8ED16F"/>
<path d="M79.9535 147.978C80.0423 147.499 79.3365 146.966 78.3769 146.788C77.4172 146.61 76.5672 146.854 76.4783 147.333C76.3894 147.812 77.0953 148.345 78.0549 148.523C79.0146 148.701 79.8646 148.457 79.9535 147.978Z" fill="#1FB47C"/>
<path d="M75.2662 147.261L74.4807 151.495L82.7324 153.026L83.5178 148.792L75.2662 147.261Z" fill="#47C294"/>
<path d="M80.7284 150.519C80.8173 150.04 80.1114 149.508 79.1518 149.33C78.1921 149.151 77.3421 149.396 77.2532 149.875C77.1644 150.354 77.8702 150.887 78.8298 151.065C79.7895 151.243 80.6395 150.999 80.7284 150.519Z" fill="#8ED16F"/>
<path d="M80.7284 150.519C80.8173 150.04 80.1114 149.508 79.1518 149.33C78.1921 149.151 77.3421 149.396 77.2532 149.875C77.1644 150.354 77.8702 150.887 78.8298 151.065C79.7895 151.243 80.6395 150.999 80.7284 150.519Z" fill="#1FB47C"/>
<path d="M92.9251 136.248L90.8757 140.035L98.2568 144.029L100.306 140.242L92.9251 136.248Z" fill="#47C294"/>
<path d="M97.1168 141.027C97.3488 140.599 96.8409 139.874 95.9826 139.41C95.1242 138.945 94.2403 138.916 94.0084 139.345C93.7764 139.774 94.2842 140.498 95.1426 140.962C96.001 141.427 96.8849 141.456 97.1168 141.027Z" fill="#1FB47C"/>
<path d="M87.5552 137.706L86.7698 141.94L95.0215 143.471L95.8069 139.237L87.5552 137.706Z" fill="#47C294"/>
<path d="M93.0152 140.965C93.1041 140.485 92.3983 139.953 91.4386 139.775C90.479 139.597 89.629 139.841 89.5401 140.32C89.4512 140.799 90.1571 141.332 91.1167 141.51C92.0763 141.688 92.9263 141.444 93.0152 140.965Z" fill="#8ED16F"/>
<path d="M93.0152 140.965C93.1041 140.485 92.3983 139.953 91.4386 139.775C90.479 139.597 89.629 139.841 89.5401 140.32C89.4512 140.799 90.1571 141.332 91.1167 141.51C92.0763 141.688 92.9263 141.444 93.0152 140.965Z" fill="#1FB47C"/>
<path d="M88.3279 140.248L87.5425 144.481L95.7942 146.012L96.5796 141.778L88.3279 140.248Z" fill="#47C294"/>
<path d="M93.7904 143.506C93.8793 143.027 93.1734 142.494 92.2138 142.316C91.2542 142.138 90.4042 142.382 90.3153 142.861C90.2264 143.341 90.9322 143.873 91.8919 144.051C92.8515 144.23 93.7015 143.985 93.7904 143.506Z" fill="#8ED16F"/>
<path d="M93.7904 143.506C93.8793 143.027 93.1734 142.494 92.2138 142.316C91.2542 142.138 90.4042 142.382 90.3153 142.861C90.2264 143.341 90.9322 143.873 91.8919 144.051C92.8515 144.23 93.7015 143.985 93.7904 143.506Z" fill="#1FB47C"/>
<defs>
<linearGradient id="paint0_linear" x1="206.965" y1="-17.8926" x2="17.57" y2="118.154" gradientUnits="userSpaceOnUse">
<stop stop-color="#22C88A"/>
<stop offset="1" stop-color="#1BF2A0"/>
</linearGradient>
<linearGradient id="paint1_linear" x1="-148456" y1="96689" x2="-148456" y2="26244.9" gradientUnits="userSpaceOnUse">
<stop stop-color="#808080" stop-opacity="0.25"/>
<stop offset="0.54" stop-color="#808080" stop-opacity="0.12"/>
<stop offset="1" stop-color="#808080" stop-opacity="0.1"/>
</linearGradient>
</defs>
</svg>
