<svg width="232" height="170" viewBox="0 0 232 170" fill="none" xmlns="http://www.w3.org/2000/svg">
<path d="M214.121 24.6227C233.422 82.2379 202.363 144.591 144.748 163.893C87.1328 183.195 24.7794 152.135 5.47772 94.5203C-13.824 36.9051 21.2952 64.7939 78.9104 45.4923C136.526 26.1906 194.819 -32.9924 214.121 24.6227Z" fill="url(#paint0_linear)"/>
<path opacity="0.5" d="M64.1193 125.83C50.6897 121.19 35.3346 117.262 22.7874 123.93C21.1972 124.775 19.6302 125.84 18.7734 127.423C16.5103 131.588 20.1075 136.99 18.3543 141.393C16.6011 145.795 10.0027 148.012 10.5429 152.715C10.6849 153.944 11.3508 155.057 12.1354 156.017C17.0505 162.021 26.061 162.629 33.6768 161.139C41.2927 159.649 48.7409 156.559 56.4941 156.948C63.9446 157.332 70.7991 160.906 77.6257 163.914C89.1345 168.999 102.576 172.648 114.075 167.537C119.344 165.195 123.7 161.206 128.743 158.422C135.54 154.704 143.352 153.27 151.025 154.333C156.147 155.055 161.037 156.871 166.05 158.124C177.435 160.967 189.319 160.873 201.051 160.762C203.235 160.741 205.454 160.715 207.547 160.091C210.646 159.16 213.202 157.015 215.663 154.918C218.897 152.163 222.304 149.136 223.347 145.018C224.578 140.128 222.029 134.932 218.248 131.609C214.467 128.287 209.633 126.47 204.916 124.72C203.752 124.291 202.508 123.856 201.316 124.179C200.534 124.394 199.875 124.915 199.291 125.476C195.943 128.699 193.114 134.149 188.548 133.274C186.918 132.962 185.584 131.828 184.294 130.78C177.407 125.192 168.143 120.878 159.831 123.965C153.752 126.224 149.461 132.023 143.3 134.07C138.918 135.528 134.157 134.897 129.547 135.181C122.841 135.59 116.315 137.961 109.6 137.816C92.4779 137.448 78.2124 121.076 61.16 122.636C59.8236 122.757 58.3661 123.064 57.5465 124.121" fill="#1CC886"/>
<path d="M42.5267 110.256C42.5267 110.256 28.2985 118.845 54.536 132.075C54.536 132.075 60.3172 121.341 53.926 112.589C52.6858 110.884 50.8631 109.693 48.8034 109.241C46.7437 108.79 44.59 109.11 42.7502 110.14L42.5267 110.256Z" fill="#1CC886"/>
<path d="M42.6967 110.077C42.6967 110.077 54.8783 119.39 54.5384 132.068" stroke="#535461" stroke-miterlimit="10"/>
<path d="M222.539 103.101C225.421 113.642 213.125 143.67 213.125 143.67C213.125 143.67 187.253 124.082 184.369 113.541C183.614 111.014 183.372 108.362 183.657 105.74C183.942 103.118 184.749 100.579 186.029 98.2734C187.309 95.9675 189.037 93.9407 191.112 92.3122C193.186 90.6836 195.565 89.4862 198.109 88.7902C200.653 88.0942 203.311 87.9137 205.925 88.2593C208.54 88.6049 211.059 89.4696 213.335 90.8027C215.611 92.1358 217.597 93.9103 219.177 96.0219C220.757 98.1335 221.899 100.54 222.536 103.099L222.539 103.101Z" fill="#1CC886"/>
<path opacity="0.1" d="M222.539 103.101C225.421 113.642 213.125 143.67 213.125 143.67C213.125 143.67 187.253 124.082 184.369 113.541C183.614 111.014 183.372 108.362 183.657 105.74C183.942 103.118 184.749 100.579 186.029 98.2734C187.309 95.9675 189.037 93.9407 191.112 92.3122C193.186 90.6836 195.565 89.4862 198.109 88.7902C200.653 88.0942 203.311 87.9137 205.925 88.2593C208.54 88.6049 211.059 89.4696 213.335 90.8027C215.611 92.1358 217.597 93.9103 219.177 96.0219C220.757 98.1335 221.899 100.54 222.536 103.099L222.539 103.101Z" fill="black"/>
<path d="M198.339 89.2969C198.339 89.2969 214.443 113.609 213.24 143.728" stroke="#535461" stroke-miterlimit="10"/>
<path d="M226.648 122.366C226.648 122.366 212.045 114.422 213.894 143.746C213.894 143.746 226.075 143.311 230.399 133.374C231.245 131.441 231.351 129.266 230.7 127.259C230.048 125.253 228.682 123.556 226.862 122.489L226.648 122.366Z" fill="#1CC886"/>
<path d="M226.888 122.417C226.888 122.417 225.002 137.639 213.894 143.746" stroke="#535461" stroke-miterlimit="10"/>
<path d="M12.8549 119.097C12.8549 119.097 -1.3803 127.684 24.8596 140.906C24.8596 140.906 30.6407 130.172 24.2496 121.42C23.0093 119.715 21.1867 118.524 19.127 118.073C17.0673 117.621 14.9135 117.941 13.0738 118.971L12.8549 119.097Z" fill="#1CC886"/>
<path d="M13.0179 118.917C13.0179 118.917 25.1995 128.231 24.8596 140.908" stroke="#535461" stroke-miterlimit="10"/>
<path d="M190.474 130.275H175.514C175.858 129.583 176.037 128.82 176.036 128.047V59.9302C176.036 58.6019 175.508 57.3281 174.569 56.3889C173.63 55.4496 172.356 54.922 171.028 54.922H55.2345C53.9063 54.922 52.6324 55.4496 51.6932 56.3889C50.754 57.3281 50.2263 58.6019 50.2263 59.9302V128.049C50.2251 128.822 50.4037 129.585 50.7479 130.277H35.2601C35.0855 130.277 34.9126 130.312 34.7515 130.379C34.5903 130.446 34.4439 130.544 34.3208 130.668C34.1977 130.792 34.1003 130.938 34.0341 131.1C33.9679 131.261 33.9343 131.434 33.9353 131.609V132.678C33.9353 134.643 34.7158 136.527 36.1052 137.916C37.4946 139.306 39.379 140.086 41.3439 140.086H184.39C186.355 140.086 188.239 139.306 189.628 137.916C191.018 136.527 191.798 134.643 191.798 132.678V131.609C191.8 131.434 191.766 131.261 191.7 131.099C191.634 130.937 191.537 130.79 191.414 130.666C191.29 130.542 191.144 130.444 190.983 130.377C190.821 130.31 190.648 130.275 190.474 130.275ZM98.2987 134.512L97.0088 133.057H128.855L127.435 134.515L98.2987 134.512Z" fill="url(#paint1_linear)"/>
<path d="M169.191 55.8859H57.0599C54.0689 55.8859 51.6443 58.3105 51.6443 61.3015V126.836C51.6443 129.827 54.0689 132.252 57.0599 132.252H169.191C172.182 132.252 174.606 129.827 174.606 126.836V61.3015C174.606 58.3105 172.182 55.8859 169.191 55.8859Z" fill="#535461"/>
<path d="M171.759 67.0175H54.2333V129.404H171.759V67.0175Z" fill="white"/>
<path d="M112.997 62.617C113.569 62.617 114.033 62.1531 114.033 61.5809C114.033 61.0087 113.569 60.5448 112.997 60.5448C112.425 60.5448 111.961 61.0087 111.961 61.5809C111.961 62.1531 112.425 62.617 112.997 62.617Z" fill="white"/>
<path d="M131.142 129.532L127.104 133.674H98.6386L94.9901 129.532H37.0179C36.6746 129.532 36.3453 129.669 36.1026 129.911C35.8598 130.154 35.7234 130.483 35.7234 130.827V131.87C35.7234 133.79 36.4863 135.632 37.8442 136.99C39.2022 138.348 41.044 139.111 42.9644 139.111H182.769C183.72 139.111 184.662 138.924 185.54 138.56C186.419 138.196 187.217 137.662 187.889 136.99C188.562 136.318 189.095 135.519 189.459 134.641C189.823 133.762 190.01 132.821 190.01 131.87V130.827C190.01 130.483 189.874 130.154 189.631 129.911C189.388 129.669 189.059 129.532 188.716 129.532H131.142Z" fill="#535461"/>
<path d="M69.2485 70.9011V123.968H157.002" stroke="#535461" stroke-width="2" stroke-miterlimit="10"/>
<path opacity="0.5" d="M86.0728 107.919H77.0134V121.898H86.0728V107.919Z" fill="#1CC886"/>
<path opacity="0.7" d="M101.605 95.4925H92.5455V121.898H101.605V95.4925Z" fill="#1CC886"/>
<path opacity="0.5" d="M117.137 102.999H108.078V121.895H117.137V102.999Z" fill="#1CC886"/>
<path opacity="0.8" d="M132.669 91.3505H123.61V121.898H132.669V91.3505Z" fill="#1CC886"/>
<path d="M148.201 80.4774H139.142V121.895H148.201V80.4774Z" fill="#1CC886"/>
<path d="M81.4139 99.3761L97.2044 85.1386L112.736 98.5985L128.01 82.2911L143.542 75.8184" stroke="#535461" stroke-width="2" stroke-miterlimit="10"/>
<path d="M81.4139 101.188C82.4143 101.188 83.2253 100.377 83.2253 99.3761C83.2253 98.3757 82.4143 97.5647 81.4139 97.5647C80.4135 97.5647 79.6025 98.3757 79.6025 99.3761C79.6025 100.377 80.4135 101.188 81.4139 101.188Z" fill="#1CC886"/>
<path d="M112.478 100.151C113.478 100.151 114.289 99.3405 114.289 98.34C114.289 97.3396 113.478 96.5286 112.478 96.5286C111.478 96.5286 110.667 97.3396 110.667 98.34C110.667 99.3405 111.478 100.151 112.478 100.151Z" fill="#1CC886"/>
<path d="M128.268 84.1025C129.269 84.1025 130.08 83.2915 130.08 82.2911C130.08 81.2907 129.269 80.4797 128.268 80.4797C127.268 80.4797 126.457 81.2907 126.457 82.2911C126.457 83.2915 127.268 84.1025 128.268 84.1025Z" fill="#1CC886"/>
<path d="M97.2044 86.6892C98.2048 86.6892 99.0158 85.8782 99.0158 84.8778C99.0158 83.8774 98.2048 83.0664 97.2044 83.0664C96.2039 83.0664 95.3929 83.8774 95.3929 84.8778C95.3929 85.8782 96.2039 86.6892 97.2044 86.6892Z" fill="#1CC886"/>
<path d="M143.542 77.6298C144.543 77.6298 145.354 76.8188 145.354 75.8184C145.354 74.818 144.543 74.007 143.542 74.007C142.542 74.007 141.731 74.818 141.731 75.8184C141.731 76.8188 142.542 77.6298 143.542 77.6298Z" fill="#1CC886"/>
<path d="M210.935 131.8C209.98 131.486 208.564 131.122 207.442 131.25C206.373 130.862 203.861 129.854 202.145 128.335C202.195 126.843 202.157 125.349 202.031 123.86C201.153 113.879 203.128 107.299 203.128 107.299C203.128 107.299 204.679 102.28 204.509 98.1142C204.609 98.3028 204.665 98.4145 204.665 98.4145C204.8 94.822 206.024 91.1037 206.942 88.787C206.977 88.777 207.011 88.7646 207.044 88.7498L208.068 86.319C208.15 86.1772 208.215 86.0264 208.262 85.8697L208.427 85.4855L208.378 85.4646C208.394 85.4017 208.411 85.3342 208.427 85.2666C209.081 82.4983 209.591 75.9325 209.591 75.9325C211.347 69.0221 207.179 64.7567 207.179 64.7567L200.106 58.6705C200.141 58.7498 200.164 58.8337 200.176 58.9197L200.117 58.8684C200.017 58.5821 199.908 58.2398 199.801 57.8486C200.05 57.6695 200.284 57.4693 200.499 57.2503C201.303 56.4908 201.857 55.5038 202.085 54.4214C202.222 53.5749 202.257 52.7151 202.19 51.8603L202.073 48.9243C202.068 48.3497 202.009 47.7768 201.899 47.213C201.365 44.8847 198.979 43.2549 196.583 43.1478C195.821 43.1433 195.059 43.1838 194.301 43.2689C193.682 43.3198 193.06 43.333 192.439 43.3084C192.368 43.3122 192.298 43.2934 192.238 43.2549C192.185 43.2011 192.154 43.1285 192.152 43.0523C192.14 42.9161 192.156 42.7787 192.198 42.6487C192.24 42.5186 192.309 42.3985 192.399 42.2956C192.493 42.2134 192.602 42.1509 192.72 42.1117L192.55 42.1513C192.634 42.0852 192.729 42.034 192.83 41.9999C192.209 42.1091 191.612 42.3258 191.065 42.6402C190.914 42.7392 190.776 42.8556 190.653 42.9871C190.327 43.2728 190.116 43.6663 190.057 44.0954C189.765 43.8491 189.547 43.5267 189.428 43.1641C189.391 43.0158 189.391 42.8607 189.428 42.7124C189.386 42.7636 189.346 42.8164 189.307 42.8707C189.307 42.8544 189.307 42.8381 189.307 42.8218C188.857 43.3749 188.539 44.0229 188.376 44.7171C188.313 44.6419 188.266 44.555 188.237 44.4615C188.208 44.368 188.199 44.2696 188.208 44.1722C188.173 44.2817 188.141 44.3911 188.11 44.5005C188.1 44.428 188.1 44.3542 188.11 44.2817C187.836 45.1211 187.712 46.0023 187.745 46.8847C187.745 47.7648 188.136 49.1362 189.079 49.4458C189.128 49.4621 189.177 49.4738 189.228 49.4854C188.698 50.3092 188.38 51.2517 188.304 52.2284C188.227 53.2052 188.394 54.1856 188.79 55.0819C189.186 55.9781 189.798 56.7621 190.571 57.3637C191.344 57.9652 192.255 58.3654 193.221 58.5285C193.236 58.6356 193.251 58.7481 193.265 58.8661H193.302C193.328 59.0989 193.349 59.355 193.363 59.6158C193.125 59.849 192.865 60.058 192.585 60.2398C191.794 60.7078 190.911 61 189.996 61.0966C188.904 61.1823 187.843 61.4998 186.883 62.0279C185.754 62.6589 184.508 63.5786 184.117 64.6962C183.465 66.5588 179.875 69.4575 177.468 69.8184L176.611 69.7695L176.548 69.7509V69.7672L176.338 69.7555H176.327H176.271V69.7672L176.054 69.7555C176.054 69.7555 176.033 69.8557 176.003 70.0326C174.793 69.6158 172.22 68.461 168.872 65.4226C165.146 62.0396 160.106 62.7055 158.161 63.1315C158.095 63.1461 158.035 63.1806 157.989 63.2302C157.943 63.2798 157.913 63.3424 157.904 63.4094C157.894 63.4765 157.905 63.5448 157.935 63.6054C157.966 63.666 158.014 63.716 158.073 63.7485C158.858 64.1793 160.073 64.8056 160.634 64.8754C160.634 64.8754 159.47 66.0931 160.709 66.7381C160.857 66.8099 161.023 66.8395 161.187 66.8234C161.351 66.8074 161.508 66.7465 161.64 66.6473C162.241 66.2072 163.91 67.2037 166.329 67.7229C166.329 67.7229 173.156 74.787 176.546 75.872C176.624 76.0262 176.71 76.1762 176.804 76.3213L177.014 76.305V76.3213H177.102L177.128 76.5542C177.128 76.5542 182.399 76.2771 184.113 74.3632C184.234 74.2546 184.345 74.1354 184.446 74.007L182.613 97.0571H182.63L182.613 97.276H183.961C184.077 100.111 183.954 102.95 183.596 105.765V120.792C183.596 120.792 183.526 122.114 186.273 124.051C189.154 126.057 191.93 128.209 194.59 130.498L194.923 130.787C194.418 135.386 193.361 143.956 192.478 144.275L193.023 144.37C192.092 145.551 189.447 148.794 188.641 148.88C187.654 148.99 186.995 150.526 188.641 150.855C191.928 151.424 195.308 151.091 198.42 149.891C198.73 149.768 198.991 149.545 199.16 149.258C199.329 148.97 199.396 148.634 199.351 148.303L199.032 145.881C199.093 145.915 199.141 145.966 199.172 146.028C199.391 146.687 199.172 145.15 199.172 145.15C200.074 142.251 200.783 139.296 201.293 136.303L204.553 139.12C204.553 139.12 204.618 139.039 204.732 138.887C205.531 140.699 206.956 144.405 206.637 147.12C206.199 150.845 210.362 147.558 209.926 145.365C209.573 143.59 211.156 136.07 211.773 133.257C211.839 132.954 211.79 132.636 211.635 132.367C211.48 132.097 211.231 131.895 210.935 131.8Z" fill="url(#paint2_linear)"/>
<path d="M176.869 70.9546C176.869 70.9546 173.763 70.4191 169.158 66.2421C165.514 62.9383 160.599 63.5879 158.704 64.0047C158.639 64.0186 158.581 64.052 158.536 64.1003C158.491 64.1487 158.461 64.2096 158.452 64.275C158.443 64.3404 158.453 64.4072 158.483 64.4662C158.513 64.5252 158.56 64.5738 158.618 64.6054C159.384 65.0244 160.571 65.6368 161.128 65.7066C161.128 65.7066 159.98 66.8941 161.2 67.5297C161.346 67.6014 161.509 67.6312 161.671 67.6155C161.833 67.5999 161.988 67.5396 162.117 67.4412C162.704 67.0128 164.334 67.986 166.697 68.4913C166.697 68.4913 175.908 78.0233 178.05 76.4075L176.869 70.9546Z" fill="#FEC3BE"/>
<path d="M192.727 57.9953C192.727 57.9953 193.584 61.6368 192.727 64.2072L196.583 64.7427L200.01 63.0291V60.78C200.01 60.78 198.404 57.3527 198.832 53.39L192.727 57.9953Z" fill="#FEC3BE"/>
<path d="M203.645 136.925C203.645 136.925 206.439 142.387 206.001 146.028C205.563 149.67 209.642 146.457 209.214 144.315C208.867 142.582 210.413 135.234 211.016 132.501C211.081 132.205 211.035 131.896 210.885 131.633C210.735 131.371 210.493 131.173 210.206 131.078C208.918 130.654 206.762 130.135 205.68 130.929C204.08 132.105 203.645 136.925 203.645 136.925Z" fill="#8B416F"/>
<path d="M193.049 142.922C193.049 142.922 189.407 147.635 188.443 147.742C187.479 147.849 186.837 149.348 188.443 149.67C191.651 150.228 194.95 149.906 197.989 148.738C198.293 148.62 198.549 148.402 198.715 148.121C198.881 147.84 198.947 147.511 198.904 147.188L198.29 142.601L193.049 142.922Z" fill="#8B416F"/>
<path d="M187.051 92.9081L183.559 93.3737C184.038 97.4529 184.024 101.575 183.517 105.651V120.319C183.517 120.319 183.449 121.611 186.131 123.49C188.944 125.446 191.655 127.544 194.252 129.777L203.971 138.196C203.971 138.196 207.826 133.483 207.291 130.699C207.291 130.699 200.865 128.664 200.008 125.344C199.517 123.444 197.025 121.851 194.986 120.85C193.704 120.227 192.673 119.185 192.065 117.896C191.458 116.606 191.309 115.148 191.645 113.763C191.764 113.281 191.948 112.818 192.192 112.387C193.905 109.388 196.369 102.64 196.369 102.64L191.656 93.6578L187.051 92.9081Z" fill="#4D4981"/>
<path opacity="0.05" d="M187.051 92.9081L183.559 93.3737C184.038 97.4529 184.024 101.575 183.517 105.651V120.319C183.517 120.319 183.449 121.611 186.131 123.49C188.944 125.446 191.655 127.544 194.252 129.777L203.971 138.196C203.971 138.196 207.826 133.483 207.291 130.699C207.291 130.699 200.865 128.664 200.008 125.344C199.517 123.444 197.025 121.851 194.986 120.85C193.704 120.227 192.673 119.185 192.065 117.896C191.458 116.606 191.309 115.148 191.645 113.763C191.764 113.281 191.948 112.818 192.192 112.387C193.905 109.388 196.369 102.64 196.369 102.64L191.656 93.6578L187.051 92.9081Z" fill="black"/>
<path d="M192.192 143.251C192.192 143.251 198.511 144.322 198.725 144.964C198.939 145.607 198.725 144.107 198.725 144.107C198.725 144.107 202.367 133.076 201.519 123.332C200.672 113.588 202.59 107.16 202.59 107.16C202.59 107.16 204.839 99.8767 203.554 95.6997C202.269 91.5228 188.774 93.3435 188.774 93.3435C188.774 93.3435 193.486 104.375 193.379 109.623C193.379 109.623 193.915 125.474 194.879 127.295C194.869 127.285 193.37 142.815 192.192 143.251Z" fill="#4D4981"/>
<path d="M192.935 60.78C192.935 60.78 193.577 64.7381 200.003 63.0291L195.729 95.5857C195.729 95.5857 183.305 96.0141 183.412 94.5146L185.973 74.8103L192.935 60.78Z" fill="white"/>
<path opacity="0.1" d="M193.102 60.5657C192.265 61.3896 191.175 61.9072 190.008 62.0349C188.942 62.1166 187.905 62.4246 186.967 62.9383C185.866 63.5553 184.639 64.4517 184.266 65.5436C183.517 67.6857 178.804 71.22 176.662 70.4703L177.412 76.8964C177.412 76.8964 183.517 76.5751 184.588 74.2189L182.769 97.1502H184.376C184.376 97.1502 185.233 90.9383 185.875 89.6531C186.518 88.3679 187.803 81.2992 187.91 79.5856C188.017 77.872 189.624 68.0186 191.016 66.3143L193.112 61.227L193.102 60.5657Z" fill="black"/>
<path opacity="0.1" d="M193.102 60.8871C192.145 61.6358 191 62.107 189.794 62.2491C188.728 62.3326 187.692 62.6422 186.755 63.1572C185.654 63.7742 184.427 64.6706 184.054 65.7625C183.305 67.9046 178.592 71.4389 176.45 70.6892L177.2 77.1153C177.2 77.1153 183.305 76.794 184.376 74.4378L182.555 97.3552H184.162C184.162 97.3552 185.018 91.1433 185.661 89.8581C186.304 88.5728 187.589 81.5041 187.696 79.7905C187.803 78.0769 189.409 68.2235 190.802 66.5192L193.102 61.5274V60.8871Z" fill="black"/>
<path d="M193.102 60.6729C192.145 61.4215 191.001 61.8927 189.794 62.0349C188.727 62.1166 187.691 62.4246 186.753 62.9383C185.652 63.5553 184.425 64.4517 184.052 65.5436C183.302 67.6857 178.59 71.22 176.448 70.4703L177.198 76.8964C177.198 76.8964 183.302 76.5751 184.373 74.2189L182.555 97.1502H184.162C184.162 97.1502 185.018 90.9384 185.661 89.6531C186.304 88.3679 187.589 81.2992 187.696 79.5856C187.803 77.872 189.41 68.0186 190.802 66.3143L193.104 61.3341L193.102 60.6729Z" fill="#FD6F8D"/>
<path opacity="0.1" d="M198.564 56.5494C198.425 55.5343 198.704 54.901 198.832 53.7112L192.727 58.3166C192.727 58.3166 192.874 58.9383 192.986 59.8486C193.294 59.8984 193.605 59.9233 193.917 59.9231C196.036 59.9231 197.561 58.2677 198.564 56.5494Z" fill="black"/>
<path d="M193.905 59.6042C197.1 59.6042 199.689 57.0148 199.689 53.8207C199.689 50.6266 197.1 48.0372 193.905 48.0372C190.711 48.0372 188.122 50.6266 188.122 53.8207C188.122 57.0148 190.711 59.6042 193.905 59.6042Z" fill="#FEC3BE"/>
<path opacity="0.1" d="M187.593 48.1513C187.556 47.176 187.715 46.2031 188.059 45.2898C187.963 45.4335 187.923 45.607 187.945 45.7782C187.967 45.9493 188.051 46.1067 188.18 46.2211C188.367 45.2258 188.877 44.3203 189.633 43.646C189.221 43.7136 189.009 44.2235 189.111 44.6286C189.251 45.0243 189.498 45.3728 189.826 45.6344C189.791 45.0221 190.196 44.4493 190.709 44.114C191.242 43.8075 191.825 43.5963 192.432 43.4901C192.224 43.5638 192.046 43.7044 191.927 43.8897C191.807 44.075 191.752 44.2947 191.77 44.5145C191.772 44.5892 191.803 44.6602 191.857 44.7124C191.915 44.7496 191.983 44.7676 192.052 44.7636C192.655 44.7869 193.26 44.7737 193.861 44.724C194.601 44.6408 195.345 44.6011 196.089 44.6053C198.418 44.7031 200.758 46.2933 201.279 48.5634C201.387 49.1142 201.444 49.6738 201.449 50.2351L201.563 53.1013C201.629 53.9374 201.595 54.7785 201.461 55.6065C201.299 56.3709 200.972 57.0902 200.5 57.7132C200.029 58.3362 199.426 58.8476 198.734 59.2107C197.894 57.993 197.819 56.4284 197.528 54.9779C197.482 54.6431 197.358 54.324 197.165 54.0465C197.065 53.9094 196.926 53.8065 196.765 53.7523C196.605 53.6981 196.431 53.6951 196.269 53.7439C195.954 53.8696 195.819 54.3492 196.08 54.5634C195.847 54.8382 195.412 54.6333 195.149 54.3888C194.414 53.6918 193.908 52.7881 193.698 51.7974C193.593 51.2992 193.489 50.6845 193 50.5145C192.832 50.4683 192.656 50.4564 192.483 50.4796C191.463 50.5494 189.868 50.9709 188.881 50.6472C187.975 50.3515 187.593 49.0104 187.593 48.1513Z" fill="black"/>
<path d="M187.701 48.0442C187.664 47.0688 187.822 46.0959 188.166 45.1827C188.071 45.3264 188.03 45.4998 188.052 45.671C188.075 45.8422 188.158 45.9996 188.287 46.114C188.474 45.1187 188.985 44.2132 189.74 43.5389C189.328 43.6065 189.116 44.1163 189.219 44.5215C189.358 44.9172 189.606 45.2657 189.933 45.5273C189.899 44.915 190.304 44.3422 190.816 44.0069C191.35 43.7004 191.933 43.4892 192.539 43.3829C192.331 43.4567 192.153 43.5972 192.034 43.7826C191.914 43.9679 191.859 44.1876 191.878 44.4074C191.879 44.4821 191.91 44.5531 191.964 44.6053C192.022 44.6425 192.09 44.6604 192.159 44.6565C192.763 44.6798 193.367 44.6665 193.968 44.6169C194.708 44.5337 195.452 44.494 196.197 44.4982C198.525 44.596 200.865 46.1862 201.386 48.4563C201.494 49.0071 201.551 49.5667 201.556 50.128L201.67 52.9941C201.737 53.8303 201.702 54.6714 201.568 55.4994C201.407 56.2637 201.079 56.9831 200.607 57.6061C200.136 58.2291 199.533 58.7404 198.841 59.1036C198.001 57.8859 197.926 56.3213 197.635 54.8707C197.59 54.536 197.465 54.2169 197.272 53.9394C197.173 53.8022 197.033 53.6994 196.872 53.6452C196.712 53.5909 196.538 53.588 196.376 53.6367C196.062 53.7625 195.926 54.2421 196.187 54.4563C195.954 54.731 195.519 54.5262 195.256 54.2817C194.521 53.5847 194.015 52.681 193.805 51.6903C193.701 51.192 193.596 50.5774 193.107 50.4074C192.939 50.3612 192.763 50.3493 192.59 50.3725C191.57 50.4423 189.975 50.8637 188.988 50.5401C188.082 50.2421 187.701 48.9033 187.701 48.0442Z" fill="#784F69"/>
<path opacity="0.1" d="M176.171 70.4727C176.171 70.4727 175.314 74.4308 176.921 76.8987L177.831 76.8242L177.335 70.5378L176.171 70.4727Z" fill="black"/>
<path d="M176.404 70.4727C176.404 70.4727 175.547 74.4308 177.153 76.8987L178.064 76.8242L177.568 70.5378L176.404 70.4727Z" fill="#FD6F8D"/>
<path opacity="0.1" d="M199.421 59.6647L206.329 65.6089C206.329 65.6089 210.399 69.7858 208.686 76.5332C208.686 76.5332 207.936 86.3866 207.079 86.815C207.079 86.815 204.08 92.8127 203.866 98.4891C203.866 98.4891 199.85 90.4029 198.029 95.3296C196.208 100.256 191.975 100.952 191.975 100.952L194.332 71.8115C194.332 71.8115 200.278 61.4761 199.421 59.6647Z" fill="black"/>
<path d="M199.635 59.6647L206.543 65.6089C206.543 65.6089 210.613 69.7858 208.9 76.5332C208.9 76.5332 208.15 86.3866 207.293 86.815C207.293 86.815 204.294 92.8127 204.08 98.4891C204.08 98.4891 199.85 89.9745 198.026 94.9011C196.203 99.8278 192.189 100.955 192.189 100.955L194.546 71.8254C194.546 71.8254 200.492 61.4761 199.635 59.6647Z" fill="#FD6F8D"/>
<path d="M202.795 84.7707C202.795 84.7707 204.509 83.5926 207.293 86.8056L200.439 99.2294L198.136 95.7533C198.136 95.7533 203.009 86.163 202.795 84.7707Z" fill="#FEC3BE"/>
<path opacity="0.1" d="M201.135 85.4669C201.135 85.4669 204.925 89.723 206.404 89.0408L207.773 85.8534L202.634 83.6462L201.135 85.4669Z" fill="black"/>
<path d="M201.135 85.2527C201.135 85.2527 204.925 89.5088 206.404 88.8266L207.773 85.6392L202.634 83.4319L201.135 85.2527Z" fill="#FD6F8D"/>
<path opacity="0.1" d="M198.369 94.9407C198.369 94.9407 200.173 98.6381 201.135 98.8523L199.738 100.459L197.703 96.6031L198.369 94.9407Z" fill="black"/>
<path d="M198.262 95.0548C198.262 95.0548 200.066 98.7521 201.028 98.9663L199.631 100.573L197.591 96.7102L198.262 95.0548Z" fill="#4D4981"/>
<path opacity="0.1" d="M201.67 72.1863C201.67 72.1863 201.885 79.8976 201.028 82.7893L201.67 72.1863Z" fill="black"/>
<path opacity="0.1" d="M184.32 73.6857C184.32 73.6857 185.605 73.2573 185.605 72.1863L184.32 73.6857Z" fill="black"/>
<path d="M28.2519 74.9756C28.2519 74.9756 22.1471 87.6043 26.1565 102.55C30.1658 117.495 28.8922 135.379 24.8945 139.802" stroke="#535461" stroke-width="2" stroke-miterlimit="10"/>
<path d="M28.2519 76.6613C29.1816 76.6613 29.9353 75.9076 29.9353 74.9779C29.9353 74.0482 29.1816 73.2946 28.2519 73.2946C27.3222 73.2946 26.5685 74.0482 26.5685 74.9779C26.5685 75.9076 27.3222 76.6613 28.2519 76.6613Z" fill="#1CC886"/>
<path d="M25.7141 83.099C25.7141 83.099 32.0424 84.2399 33.7257 81.9349" stroke="#535461" stroke-width="2" stroke-miterlimit="10"/>
<path d="M25.1134 86.7661C25.1134 86.7661 21.3066 82.5542 21.5162 80.028" stroke="#535461" stroke-width="2" stroke-miterlimit="10"/>
<path d="M24.7897 94.4821C24.7897 94.4821 28.2519 95.3947 31.4114 88.6613" stroke="#535461" stroke-width="2" stroke-miterlimit="10"/>
<path d="M25.714 100.093C25.714 100.093 17.0994 94.5496 18.1494 90.9733" stroke="#535461" stroke-width="2" stroke-miterlimit="10"/>
<path d="M27.0598 106.438C27.0598 106.438 33.0948 101.083 32.4638 95.8138" stroke="#535461" stroke-width="2" stroke-miterlimit="10"/>
<path d="M27.7164 110.168C27.7164 110.168 20.033 108.021 20.2659 104.654" stroke="#535461" stroke-width="2" stroke-miterlimit="10"/>
<path d="M28.2519 114.612C28.2519 114.612 33.0924 110.128 33.7234 107.395" stroke="#535461" stroke-width="2" stroke-miterlimit="10"/>
<path d="M28.5895 122.238C28.5895 122.238 23.6233 116.44 23.4114 113.495" stroke="#535461" stroke-width="2" stroke-miterlimit="10"/>
<path d="M28.5895 127.036C28.5895 127.036 34.1472 120.862 34.5663 117.916" stroke="#535461" stroke-width="2" stroke-miterlimit="10"/>
<path d="M21.5162 82.1328C22.4459 82.1328 23.1995 81.3791 23.1995 80.4494C23.1995 79.5197 22.4459 78.7661 21.5162 78.7661C20.5865 78.7661 19.8328 79.5197 19.8328 80.4494C19.8328 81.3791 20.5865 82.1328 21.5162 82.1328Z" fill="#1CC886"/>
<path d="M19.6232 106.338C20.5529 106.338 21.3066 105.584 21.3066 104.654C21.3066 103.725 20.5529 102.971 19.6232 102.971C18.6935 102.971 17.9399 103.725 17.9399 104.654C17.9399 105.584 18.6935 106.338 19.6232 106.338Z" fill="#1CC886"/>
<path d="M18.1494 92.6566C19.0791 92.6566 19.8328 91.903 19.8328 90.9733C19.8328 90.0436 19.0791 89.2899 18.1494 89.2899C17.2197 89.2899 16.4661 90.0436 16.4661 90.9733C16.4661 91.903 17.2197 92.6566 18.1494 92.6566Z" fill="#1CC886"/>
<path d="M33.7257 83.6066C34.6554 83.6066 35.4091 82.8529 35.4091 81.9232C35.4091 80.9935 34.6554 80.2399 33.7257 80.2399C32.796 80.2399 32.0424 80.9935 32.0424 81.9232C32.0424 82.8529 32.796 83.6066 33.7257 83.6066Z" fill="#1CC886"/>
<path d="M33.7257 109.495C34.6554 109.495 35.4091 108.741 35.4091 107.812C35.4091 106.882 34.6554 106.128 33.7257 106.128C32.796 106.128 32.0424 106.882 32.0424 107.812C32.0424 108.741 32.796 109.495 33.7257 109.495Z" fill="#1CC886"/>
<path d="M30.99 90.3423C31.9197 90.3423 32.6734 89.5886 32.6734 88.6589C32.6734 87.7293 31.9197 86.9756 30.99 86.9756C30.0603 86.9756 29.3066 87.7293 29.3066 88.6589C29.3066 89.5886 30.0603 90.3423 30.99 90.3423Z" fill="#1CC886"/>
<path d="M34.3567 120.652C35.2864 120.652 36.0401 119.898 36.0401 118.969C36.0401 118.039 35.2864 117.285 34.3567 117.285C33.427 117.285 32.6733 118.039 32.6733 118.969C32.6733 119.898 33.427 120.652 34.3567 120.652Z" fill="#1CC886"/>
<path d="M22.99 116.231C23.9197 116.231 24.6734 115.477 24.6734 114.547C24.6734 113.618 23.9197 112.864 22.99 112.864C22.0603 112.864 21.3066 113.618 21.3066 114.547C21.3066 115.477 22.0603 116.231 22.99 116.231Z" fill="#1CC886"/>
<path d="M32.6733 97.4972C33.603 97.4972 34.3567 96.7435 34.3567 95.8138C34.3567 94.8842 33.603 94.1305 32.6733 94.1305C31.7437 94.1305 30.99 94.8842 30.99 95.8138C30.99 96.7435 31.7437 97.4972 32.6733 97.4972Z" fill="#1CC886"/>
<defs>
<linearGradient id="paint0_linear" x1="206.965" y1="-17.8926" x2="17.5699" y2="118.154" gradientUnits="userSpaceOnUse">
<stop stop-color="#22C88A"/>
<stop offset="1" stop-color="#1BF2A0"/>
</linearGradient>
<linearGradient id="paint1_linear" x1="112.867" y1="140.077" x2="112.867" y2="54.9197" gradientUnits="userSpaceOnUse">
<stop stop-color="#808080" stop-opacity="0.25"/>
<stop offset="0.54" stop-color="#808080" stop-opacity="0.12"/>
<stop offset="1" stop-color="#808080" stop-opacity="0.1"/>
</linearGradient>
<linearGradient id="paint2_linear" x1="47501.2" y1="70293.4" x2="47501.2" y2="19146.5" gradientUnits="userSpaceOnUse">
<stop stop-color="#808080" stop-opacity="0.25"/>
<stop offset="0.54" stop-color="#808080" stop-opacity="0.12"/>
<stop offset="1" stop-color="#808080" stop-opacity="0.1"/>
</linearGradient>
</defs>
</svg>
