<svg width="741" height="610" viewBox="0 0 741 610" fill="none" xmlns="http://www.w3.org/2000/svg">
<g filter="url(#filter0_d)">
<path d="M777.5 405.118V306.135L668.5 240.882V339.865L777.5 405.118Z" stroke="#D0D0D0"/>
</g>
<path d="M668.5 339.118V240.135L777.5 174.882V273.865L668.5 339.118Z" stroke="#D0D0D0"/>
<g filter="url(#filter1_d)">
<path d="M777.5 306.118V207.135L668.5 141.882V240.865L777.5 306.118Z" stroke="#D0D0D0"/>
</g>
<path d="M668.5 240.118V141.135L777.5 75.8821V174.865L668.5 240.118Z" stroke="#D0D0D0"/>
<g filter="url(#filter2_d)">
<path d="M668.5 471.118V372.135L559.5 306.882V405.865L668.5 471.118Z" stroke="#D0D0D0"/>
</g>
<path d="M559.5 405.118V306.135L668.5 240.882V339.865L559.5 405.118Z" stroke="#D0D0D0"/>
<path d="M668.5 471.118V372.135L777.5 306.882V405.865L668.5 471.118Z" stroke="#D0D0D0"/>
<path d="M777.5 405.118V306.135L668.5 240.882V339.865L777.5 405.118Z" stroke="#D0D0D0"/>
<circle r="6.5" transform="matrix(1 0 0 -1 668.5 340.5)" fill="#282D35"/>
<circle r="6.5" transform="matrix(1 0 0 -1 668.5 469.5)" fill="#47E6B1"/>
<g filter="url(#filter3_d)">
<path d="M559.5 306.118V207.135L450.5 141.882V240.865L559.5 306.118Z" stroke="#D0D0D0"/>
</g>
<path d="M450.5 240.118V141.135L559.5 75.8821V174.865L450.5 240.118Z" stroke="#D0D0D0"/>
<path d="M559.5 306.118V207.135L668.5 141.882V240.865L559.5 306.118Z" stroke="#D0D0D0"/>
<path d="M559 206.851V307" stroke="#1CC886"/>
<path d="M668.5 240.118V141.135L559.5 75.8821V174.865L668.5 240.118Z" stroke="#D0D0D0"/>
<path d="M450.5 142L391.5 106.5" stroke="url(#paint0_linear)"/>
<path d="M560.5 175L501.5 139.5" stroke="url(#paint1_linear)"/>
<path d="M450.565 139.304L449.883 0.990234" stroke="url(#paint2_linear)"/>
<path d="M560.5 76L501.5 40.5" stroke="url(#paint3_linear)"/>
<circle r="6.5" transform="matrix(1 0 0 -1 559.5 175.5)" fill="#282D35"/>
<circle r="6.5" transform="matrix(1 0 0 -1 669.5 240.5)" fill="#47E6B1"/>
<circle cx="560.5" cy="77.5" r="6.5" fill="#47E6B1"/>
<circle cx="451.5" cy="141.5" r="6.5" fill="#47E6B1"/>
<circle cx="669.5" cy="141.5" r="6.5" fill="#47E6B1"/>
<g filter="url(#filter4_d)">
<path d="M450.5 240.882V339.865L341.5 405.118V306.135L450.5 240.882Z" stroke="#D0D0D0"/>
</g>
<path d="M341.5 306.882V405.865L450.5 471.118V372.135L341.5 306.882Z" stroke="#D0D0D0"/>
<path d="M450.5 240.882V339.865L559.5 405.118V306.135L450.5 240.882Z" stroke="#D0D0D0"/>
<path d="M559.5 306.882V405.865L450.5 471.118V372.135L559.5 306.882Z" stroke="#D0D0D0"/>
<path d="M450 472L560 406.149V306" stroke="#1CC886"/>
<circle cx="560.5" cy="306.5" r="6.5" fill="#282D35"/>
<g filter="url(#filter5_d)">
<path d="M450.5 339.882V438.865L341.5 504.118V405.134L450.5 339.882Z" stroke="#D0D0D0"/>
</g>
<path d="M341.5 405.882V504.865L450.5 570.118V471.134L341.5 405.882Z" stroke="#D0D0D0"/>
<path d="M451 470.851L341 405" stroke="#1CC886"/>
<path d="M450.5 339.882V438.865L559.5 504.118V405.134L450.5 339.882Z" stroke="#D0D0D0"/>
<path d="M559.5 405.882V504.865L450.5 570.118V471.134L559.5 405.882Z" stroke="#D0D0D0"/>
<circle cx="450.5" cy="470.5" r="6.5" fill="#47E6B1"/>
<circle cx="560.5" cy="405.5" r="6.5" fill="#47E6B1"/>
<circle cx="450.5" cy="371.5" r="6.5" fill="#282D35"/>
<g filter="url(#filter6_d)">
<path d="M341.5 174.882V273.865L232.5 339.118V240.135L341.5 174.882Z" stroke="#D0D0D0"/>
</g>
<path d="M232.5 240.882V339.865L341.5 405.118V306.134L232.5 240.882Z" stroke="#D0D0D0"/>
<path d="M342 406L232 340.149V240" stroke="#1CC886"/>
<path d="M341.5 174.882V273.865L450.5 339.118V240.135L341.5 174.882Z" stroke="#D0D0D0"/>
<path d="M450.5 240.882V339.865L341.5 405.118V306.134L450.5 240.882Z" stroke="#D0D0D0"/>
<path d="M346.5 178L277.5 137.5" stroke="url(#paint4_linear)"/>
<path d="M229.5 239L110.5 168.5" stroke="url(#paint5_linear)"/>
<path d="M229.5 338L110.5 267.5" stroke="url(#paint6_linear)"/>
<path d="M233.565 239.304L232.883 100.99" stroke="url(#paint7_linear)"/>
<path d="M341.565 169.304L340.883 30.9902" stroke="url(#paint8_linear)"/>
<circle cx="341.5" cy="305.5" r="6.5" fill="#47E6B1"/>
<circle cx="341.5" cy="175.5" r="6.5" fill="#282D35"/>
<circle cx="232.5" cy="240.5" r="6.5" fill="#47E6B1"/>
<circle cx="451.5" cy="240.5" r="6.5" fill="#47E6B1"/>
<path d="M342.5 274L283.5 238.5" stroke="url(#paint9_linear)"/>
<path d="M232.5 439L173.5 403.5" stroke="url(#paint10_linear)"/>
<path d="M123.5 505L64.5 469.5" stroke="url(#paint11_linear)"/>
<g filter="url(#filter7_d)">
<path d="M232.5 339.882V438.865L123.5 504.118V405.135L232.5 339.882Z" stroke="#D0D0D0"/>
</g>
<path d="M123.5 405.882V504.865L232.5 570.118V471.134L123.5 405.882Z" stroke="#D0D0D0"/>
<path d="M232.5 339.882V438.865L341.5 504.118V405.135L232.5 339.882Z" stroke="#D0D0D0"/>
<path d="M341.5 405.882V504.865L232.5 570.118V471.134L341.5 405.882Z" stroke="#D0D0D0"/>
<path d="M120.5 404L1.49994 333.5" stroke="url(#paint12_linear)"/>
<path d="M119.12 408.427L0.583252 479.703" stroke="url(#paint13_linear)"/>
<path d="M124.12 504.427L5.58325 575.703" stroke="url(#paint14_linear)"/>
<circle cx="232.5" cy="470.5" r="6.5" fill="#47E6B1"/>
<circle cx="342.5" cy="405.5" r="6.5" fill="#47E6B1"/>
<circle cx="232.5" cy="340.5" r="6.5" fill="#282D35"/>
<circle cx="123.5" cy="405.5" r="6.5" fill="#47E6B1"/>
<g opacity="0.5">
<path opacity="0.5" d="M525.376 111.417C525.375 103.058 523.21 94.8408 519.091 87.5662C514.973 80.2915 509.041 74.207 501.874 69.9048C494.706 65.6026 486.547 63.2293 478.19 63.0158C469.833 62.8023 461.563 64.7559 454.185 68.6865C446.808 72.6171 440.573 78.3908 436.088 85.4456C431.604 92.5005 429.022 100.596 428.594 108.945C428.167 117.293 429.907 125.611 433.647 133.087C437.388 140.563 442.999 146.944 449.937 151.608L449.969 151.823C451.55 153.34 453.417 154.528 455.46 155.319L455.524 155.104C457.812 157.049 467.335 160.16 478.308 160.137H478.546C485.492 160.137 493.033 158.911 499.668 155.323C499.668 155.323 499.728 155.195 499.819 154.957C501.503 154.169 503.048 153.114 504.395 151.832C504.423 151.646 504.449 151.463 504.473 151.283C510.928 146.83 516.203 140.875 519.844 133.93C523.486 126.985 525.384 119.259 525.376 111.417Z" fill="url(#paint15_linear)"/>
</g>
<g opacity="0.5">
<path opacity="0.5" d="M281.845 178.83C281.845 170.47 279.68 162.252 275.561 154.977C271.443 147.702 265.511 141.617 258.344 137.315C251.176 133.012 243.016 130.639 234.659 130.425C226.302 130.212 218.032 132.166 210.654 136.097C203.276 140.027 197.041 145.802 192.556 152.857C188.072 159.912 185.49 168.009 185.063 176.358C184.636 184.707 186.378 193.024 190.119 200.5C193.86 207.976 199.472 214.357 206.411 219.02L206.443 219.235C208.024 220.752 209.89 221.94 211.934 222.731L211.998 222.516C214.286 224.461 223.808 227.573 234.782 227.55H235.019C241.966 227.55 249.507 226.323 256.142 222.736C256.142 222.736 256.201 222.608 256.293 222.37C257.977 221.581 259.522 220.526 260.869 219.244C260.896 219.058 260.922 218.875 260.947 218.695C267.401 214.242 272.675 208.286 276.316 201.342C279.956 194.397 281.854 186.671 281.845 178.83Z" fill="url(#paint16_linear)"/>
</g>
<g filter="url(#filter8_dd)">
<path d="M233.423 225.802C259.362 225.802 280.39 204.774 280.39 178.834C280.39 152.895 259.362 131.867 233.423 131.867C207.483 131.867 186.455 152.895 186.455 178.834C186.455 204.774 207.483 225.802 233.423 225.802Z" fill="white"/>
</g>
<path d="M213.087 197.198C213.087 197.198 201.894 198.113 204.85 218.503C206.384 219.974 208.195 221.127 210.177 221.894L216.473 200.588L213.087 197.198Z" fill="#1CC886"/>
<path d="M249.425 197.198C249.425 197.198 260.617 198.113 257.661 218.503C256.127 219.974 254.317 221.127 252.335 221.894L246.034 200.584L249.425 197.198Z" fill="#1CC886"/>
<path d="M231.56 183.154C243.059 183.154 252.381 173.832 252.381 162.334C252.381 150.835 243.059 141.513 231.56 141.513C220.061 141.513 210.74 150.835 210.74 162.334C210.74 173.832 220.061 183.154 231.56 183.154Z" fill="#333333"/>
<path d="M249.209 197.198H212.89L209.5 211.726C209.5 211.726 207.509 218.453 209.985 221.409C212.46 224.365 235.61 231.092 252.596 221.894C254.075 218.024 254.246 213.776 253.081 209.8C251.145 203.023 252.596 209.315 252.596 209.315L249.209 197.198Z" fill="#4D8AF0"/>
<path d="M249.694 197.198H213.375L209.985 211.726C209.985 211.726 207.994 218.453 210.47 221.409C212.945 224.365 236.095 231.092 253.081 221.894C254.561 218.024 254.731 213.776 253.566 209.8C251.63 203.023 253.081 209.315 253.081 209.315L249.694 197.198Z" fill="#4D8AF0"/>
<path d="M249.425 197.198H213.087L209.696 211.726C209.696 211.726 207.706 218.453 210.181 221.409C212.657 224.365 235.807 231.092 252.792 221.894C254.278 218.026 254.455 213.778 253.296 209.8C251.36 203.023 252.811 209.315 252.811 209.315L249.425 197.198Z" fill="#1CC886"/>
<path opacity="0.1" d="M224.243 185.145H238.772V197.042C238.772 198.899 238.034 200.68 236.721 201.993C235.408 203.306 233.627 204.043 231.771 204.043H231.244C229.388 204.043 227.607 203.306 226.294 201.993C224.981 200.68 224.243 198.899 224.243 197.042V185.145Z" fill="black"/>
<path d="M224.243 184.609H238.772V196.507C238.772 198.364 238.034 200.144 236.721 201.457C235.408 202.77 233.627 203.508 231.771 203.508H231.244C229.388 203.508 227.607 202.77 226.294 201.457C224.981 200.144 224.243 198.364 224.243 196.507V184.609Z" fill="#FDB797"/>
<path opacity="0.1" d="M224.271 186.7C228.953 188.451 234.107 188.465 238.799 186.742V184.957H224.271V186.7Z" fill="black"/>
<path d="M231.56 187.675C243.059 187.675 252.381 178.353 252.381 166.855C252.381 155.356 243.059 146.034 231.56 146.034C220.061 146.034 210.74 155.356 210.74 166.855C210.74 178.353 220.061 187.675 231.56 187.675Z" fill="#FDB797"/>
<path opacity="0.1" d="M211.655 159.465H251.36C251.36 159.465 247.969 143.449 232.96 144.456C217.951 145.462 211.655 159.465 211.655 159.465Z" fill="black"/>
<path d="M211.655 158.943H251.36C251.36 158.943 247.969 142.927 232.96 143.934C217.951 144.941 211.655 158.943 211.655 158.943Z" fill="#333333"/>
<path d="M211.17 169.6C212.239 169.6 213.105 167.974 213.105 165.967C213.105 163.96 212.239 162.334 211.17 162.334C210.101 162.334 209.234 163.96 209.234 165.967C209.234 167.974 210.101 169.6 211.17 169.6Z" fill="#FDB797"/>
<path d="M251.841 169.6C252.91 169.6 253.776 167.974 253.776 165.967C253.776 163.96 252.91 162.334 251.841 162.334C250.772 162.334 249.905 163.96 249.905 165.967C249.905 167.974 250.772 169.6 251.841 169.6Z" fill="#FDB797"/>
<path d="M214.739 148.322C215.166 146.739 216.108 145.343 217.416 144.355C218.432 143.65 219.644 143.311 220.807 142.9C222.529 142.29 224.183 141.5 225.739 140.543C227.506 139.454 229.162 138.145 231.107 137.427C234.452 136.191 238.177 136.859 241.632 137.747C242.493 137.928 243.323 138.237 244.094 138.662C244.932 139.243 245.669 139.957 246.276 140.776L251.767 147.389C252.295 147.974 252.756 148.617 253.14 149.306C253.47 149.986 253.681 150.719 253.762 151.47C253.958 152.686 253.753 153.933 253.177 155.021C252.262 156.605 250.34 157.401 248.509 157.474C246.679 157.547 244.881 157.016 243.119 156.499C237.445 154.838 231.679 153.296 225.813 152.601C222.893 152.241 219.946 152.146 217.009 152.317C216.093 152.376 214.867 152.802 214.309 151.859C213.801 151.04 214.487 149.137 214.739 148.322Z" fill="#333333"/>
<g opacity="0.5">
<path opacity="0.5" d="M231.061 253.44C240.291 253.44 247.773 245.958 247.773 236.729C247.773 227.5 240.291 220.018 231.061 220.018C221.832 220.018 214.35 227.5 214.35 236.729C214.35 245.958 221.832 253.44 231.061 253.44Z" fill="url(#paint17_linear)"/>
</g>
<path d="M231.061 252.457C239.747 252.457 246.789 245.415 246.789 236.729C246.789 228.043 239.747 221.002 231.061 221.002C222.375 221.002 215.334 228.043 215.334 236.729C215.334 245.415 222.375 252.457 231.061 252.457Z" fill="#47E6B1"/>
<path d="M224.234 234.633L230.132 240.037L238.483 227.751L241.435 230.208L230.132 244.952L221.777 235.617L224.234 234.633Z" fill="white"/>
<g opacity="0.5">
<path opacity="0.5" d="M478.386 181.758C487.615 181.758 495.097 174.277 495.097 165.047C495.097 155.818 487.615 148.336 478.386 148.336C469.156 148.336 461.674 155.818 461.674 165.047C461.674 174.277 469.156 181.758 478.386 181.758Z" fill="url(#paint18_linear)"/>
</g>
<g filter="url(#filter9_dd)">
<path d="M560.967 205.935C586.907 205.935 607.935 184.907 607.935 158.967C607.935 133.028 586.907 112 560.967 112C535.028 112 514 133.028 514 158.967C514 184.907 535.028 205.935 560.967 205.935Z" fill="white"/>
</g>
<mask id="mask0" mask-type="alpha" maskUnits="userSpaceOnUse" x="514" y="112" width="94" height="94">
<path d="M560.967 205.935C586.907 205.935 607.935 184.907 607.935 158.967C607.935 133.028 586.907 112 560.967 112C535.028 112 514 133.028 514 158.967C514 184.907 535.028 205.935 560.967 205.935Z" fill="#F5F5F5"/>
</mask>
<g mask="url(#mask0)">
<path d="M596.94 194.083C597.203 190.506 597.11 187.427 596.747 184.775C596.336 181.723 595.573 179.241 594.606 177.222C592.675 173.183 589.923 170.993 587.507 169.802C585.89 168.985 584.123 168.505 582.313 168.391C582.234 167.838 581.957 167.332 581.534 166.966C581.111 166.6 580.569 166.397 580.009 166.396C579.448 166.395 578.906 166.595 578.481 166.96C578.056 167.324 577.777 167.829 577.696 168.381V162.408H565.017V159.085H582.102C582.615 159.085 583.106 158.882 583.468 158.522C583.83 158.161 584.033 157.672 584.033 157.162V139.745C584.033 139.235 583.83 138.745 583.468 138.385C583.106 138.024 582.615 137.822 582.102 137.822H575.616V120.652C576.072 120.447 576.46 120.115 576.731 119.696C577.003 119.277 577.147 118.789 577.147 118.291C577.147 118.266 577.147 118.241 577.147 118.214C577.147 118.187 577.147 118.164 577.147 118.137C577.147 117.448 576.873 116.788 576.384 116.301C575.895 115.814 575.232 115.541 574.541 115.541C573.849 115.541 573.186 115.814 572.697 116.301C572.208 116.788 571.934 117.448 571.934 118.137C571.934 118.162 571.934 118.187 571.934 118.214C571.934 118.241 571.934 118.264 571.934 118.291C571.934 118.761 572.062 119.222 572.305 119.625C572.548 120.028 572.896 120.358 573.312 120.579V137.82H549.268V120.579C549.684 120.358 550.033 120.028 550.275 119.625C550.518 119.222 550.647 118.761 550.646 118.291C550.646 118.266 550.646 118.241 550.646 118.214C550.646 118.187 550.646 118.164 550.646 118.137C550.646 117.448 550.372 116.788 549.883 116.301C549.394 115.814 548.731 115.541 548.04 115.541C547.348 115.541 546.685 115.814 546.196 116.301C545.707 116.788 545.433 117.448 545.433 118.137C545.433 118.162 545.433 118.187 545.433 118.214C545.433 118.241 545.433 118.264 545.433 118.291C545.433 118.789 545.577 119.277 545.849 119.696C546.121 120.115 546.508 120.447 546.964 120.652V137.818H539.925C539.413 137.818 538.922 138.02 538.56 138.381C538.198 138.742 537.994 139.231 537.994 139.741V157.156C537.994 157.666 538.198 158.155 538.56 158.516C538.922 158.877 539.413 159.079 539.925 159.079H557.011V162.402H544.332V167.298C544.225 166.987 544.054 166.702 543.828 166.462L543.772 166.406C543.446 166.081 543.029 165.859 542.577 165.77C542.124 165.68 541.654 165.726 541.228 165.902C540.801 166.078 540.436 166.376 540.18 166.758C539.923 167.141 539.786 167.59 539.786 168.05V168.383C539.786 168.383 537.388 168.383 534.521 169.797C532.105 170.987 529.355 173.177 527.422 177.216C526.457 179.235 525.684 181.72 525.281 184.77C524.922 187.42 524.827 190.5 525.088 194.077C519.733 198.5 526.439 204.935 526.439 204.935C531.933 204.935 531.811 195.852 531.75 194.302H531.777C531.777 194.302 531.761 194.225 531.738 194.083C531.337 191.546 531.227 188.972 531.408 186.41C531.56 184.454 531.937 182.385 532.709 180.523C533.287 179.056 534.19 177.738 535.351 176.668C536.604 175.562 538.142 174.824 539.792 174.539V176.033C539.792 176.584 539.988 177.116 540.346 177.536C540.703 177.956 541.199 178.236 541.744 178.326C542.289 178.417 542.849 178.311 543.324 178.029C543.798 177.747 544.157 177.306 544.336 176.785V188.995H577.69V177.035C577.758 177.498 577.964 177.93 578.283 178.273L578.347 178.341C578.673 178.669 579.091 178.893 579.546 178.984C580.001 179.075 580.473 179.029 580.902 178.852C581.33 178.674 581.696 178.373 581.952 177.988C582.209 177.602 582.343 177.149 582.34 176.687V174.556C583.952 174.855 585.452 175.586 586.677 176.672C587.838 177.742 588.741 179.06 589.319 180.527C590.091 182.391 590.466 184.458 590.62 186.414C590.801 188.976 590.69 191.55 590.29 194.087C590.267 194.229 590.251 194.306 590.251 194.306H590.278C590.216 195.856 590.095 204.939 595.588 204.939C595.588 204.941 602.295 198.51 596.94 194.083Z" fill="url(#paint19_linear)"/>
<path d="M545.332 197.935V200.954H549.337V205.604V209.593V215.574V218.897V220.891H544.664V225.541H557.343V220.891H555.343V218.897V215.574V209.593V205.604V200.954H560.012V197.935V197.631H545.332V197.935Z" fill="url(#paint20_linear)"/>
<path d="M561.348 197.935V200.954H567.353V205.604V209.593V215.574V218.897V220.891H562.682V225.541H575.361V220.891H573.359V218.897V215.574V209.593V205.604V200.954H576.027V197.935V197.631H561.348V197.935Z" fill="url(#paint21_linear)"/>
<path d="M580.911 138.702H541.119C539.736 138.702 538.614 139.819 538.614 141.197V156.9C538.614 158.278 539.736 159.395 541.119 159.395H580.911C582.294 159.395 583.415 158.278 583.415 156.9V141.197C583.415 139.819 582.294 138.702 580.911 138.702Z" fill="#1CC886"/>
<path opacity="0.1" d="M579.843 156.22H542.185V156.608H579.843V156.22Z" fill="black"/>
<path opacity="0.3" d="M579.843 141.935H542.185V156.16H579.843V141.935Z" fill="black"/>
<path opacity="0.1" d="M550.95 154.518C553.818 154.518 556.144 152.202 556.144 149.345C556.144 146.488 553.818 144.172 550.95 144.172C548.081 144.172 545.755 146.488 545.755 149.345C545.755 152.202 548.081 154.518 550.95 154.518Z" fill="black"/>
<path d="M550.95 154.222C553.818 154.222 556.144 151.905 556.144 149.048C556.144 146.191 553.818 143.875 550.95 143.875C548.081 143.875 545.755 146.191 545.755 149.048C545.755 151.905 548.081 154.222 550.95 154.222Z" fill="#DEE3F3"/>
<path opacity="0.1" d="M571.078 154.518C573.947 154.518 576.273 152.202 576.273 149.345C576.273 146.488 573.947 144.172 571.078 144.172C568.21 144.172 565.884 146.488 565.884 149.345C565.884 152.202 568.21 154.518 571.078 154.518Z" fill="black"/>
<path d="M571.078 154.222C573.947 154.222 576.273 151.905 576.273 149.048C576.273 146.191 573.947 143.875 571.078 143.875C568.21 143.875 565.884 146.191 565.884 149.048C565.884 151.905 568.21 154.222 571.078 154.222Z" fill="#DEE3F3"/>
<path d="M564.909 159.395H557.117V163.922H564.909V159.395Z" fill="#1CC886"/>
<path d="M577.246 162.627H544.782V188.493H577.246V162.627Z" fill="#1CC886"/>
<path d="M575.624 188.493V191.079H572.052V193.666H549.974V191.079H546.406V188.493H575.624Z" fill="#1CC886"/>
<path opacity="0.3" d="M575.624 188.493V191.079H572.052V193.666H549.974V191.079H546.406V188.493H575.624Z" fill="black"/>
<path d="M577.897 193.666H544.133V196.898H577.897V193.666Z" fill="#1CC886"/>
<path d="M560.039 196.9H545.755V200.133H560.039V196.9Z" fill="#1CC886"/>
<path d="M575.622 196.9H561.338V200.133H575.622V196.9Z" fill="#1CC886"/>
<path d="M549.652 204.658V208.539V214.358V217.591V219.531H555.495V217.591V214.358V208.539V204.658V200.131H549.652V204.658Z" fill="#1CC886"/>
<path d="M567.182 200.131V204.658V208.539V214.358V217.591V219.531H573.027V217.591V214.358V208.539V204.658V200.131H567.182Z" fill="#1CC886"/>
<path d="M544.906 168.123V175.883C544.906 175.941 544.906 176 544.906 176.056C544.857 176.637 544.586 177.177 544.148 177.564C543.71 177.951 543.138 178.154 542.553 178.132C541.968 178.11 541.415 177.863 541.007 177.444C540.6 177.025 540.371 176.466 540.368 175.883V168.123C540.367 167.676 540.5 167.238 540.75 166.866C540.999 166.494 541.354 166.204 541.769 166.032C542.184 165.861 542.641 165.816 543.082 165.904C543.523 165.991 543.928 166.207 544.245 166.523L544.299 166.579C544.652 166.954 544.865 167.438 544.904 167.95C544.902 168.006 544.906 168.066 544.906 168.123Z" fill="#1CC886"/>
<path d="M581.764 168.77V176.531C581.766 176.979 581.633 177.418 581.383 177.791C581.133 178.164 580.778 178.455 580.362 178.626C579.946 178.798 579.488 178.842 579.047 178.754C578.606 178.666 578.201 178.449 577.883 178.131L577.821 178.066C577.432 177.647 577.216 177.098 577.217 176.527V168.77C577.217 168.169 577.456 167.594 577.883 167.169C578.309 166.745 578.887 166.506 579.49 166.506C580.092 166.506 580.671 166.745 581.097 167.169C581.523 167.594 581.763 168.169 581.763 168.77H581.764Z" fill="#1CC886"/>
<path d="M540.36 168.446V174.427C538.757 174.705 537.263 175.421 536.044 176.494C534.912 177.537 534.032 178.822 533.47 180.252C532.719 182.064 532.354 184.077 532.205 185.981C532.021 188.55 532.142 191.132 532.565 193.673H526.074C525.798 190.098 525.881 187.033 526.244 184.398C526.646 181.429 527.388 179.014 528.328 177.048C530.209 173.119 532.885 170.987 535.235 169.829C538.027 168.446 540.36 168.446 540.36 168.446Z" fill="#1CC886"/>
<path d="M527.374 204.012C527.374 204.012 520.849 197.756 526.059 193.448H532.53C532.53 193.448 533.217 204.012 527.374 204.012Z" fill="#1CC886"/>
<path opacity="0.3" d="M527.374 204.012C527.374 204.012 520.849 197.756 526.059 193.448H532.53C532.53 193.448 533.217 204.012 527.374 204.012Z" fill="black"/>
<path opacity="0.3" d="M572.052 166.508H549.976V183.32H572.052V166.508Z" fill="black"/>
<path opacity="0.3" d="M555.495 200.131H549.652V204.658H555.495V200.131Z" fill="black"/>
<path opacity="0.3" d="M573.025 200.131H567.182V204.658H573.025V200.131Z" fill="black"/>
<path opacity="0.3" d="M540.36 168.446V174.427C538.757 174.705 537.263 175.421 536.044 176.494L535.237 169.816C538.027 168.446 540.36 168.446 540.36 168.446Z" fill="black"/>
<path opacity="0.3" d="M533.47 180.252C532.719 182.064 532.354 184.077 532.205 185.981L526.242 184.391C526.644 181.422 527.386 179.006 528.326 177.041L533.47 180.252Z" fill="black"/>
<path d="M581.67 168.446V174.427C583.276 174.704 584.773 175.419 585.993 176.494C587.123 177.536 588.002 178.819 588.563 180.246C589.315 182.058 589.68 184.071 589.828 185.975C590.013 188.545 589.892 191.126 589.469 193.668H595.961C596.237 190.093 596.154 187.027 595.791 184.393C595.39 181.423 594.648 179.008 593.708 177.043C591.827 173.114 589.151 170.981 586.8 169.823C584.002 168.446 581.67 168.446 581.67 168.446Z" fill="#1CC886"/>
<path d="M594.656 204.012C594.656 204.012 601.181 197.756 595.971 193.448H589.498C589.498 193.448 588.813 204.012 594.656 204.012Z" fill="#1CC886"/>
<path opacity="0.3" d="M594.656 204.012C594.656 204.012 601.181 197.756 595.971 193.448H589.498C589.498 193.448 588.813 204.012 594.656 204.012Z" fill="black"/>
<path opacity="0.3" d="M581.67 168.446V174.427C583.276 174.704 584.773 175.419 585.993 176.494L586.8 169.816C584.002 168.446 581.67 168.446 581.67 168.446Z" fill="black"/>
<path opacity="0.3" d="M588.556 180.252C589.307 182.064 589.672 184.077 589.821 185.981L595.784 184.391C595.382 181.422 594.64 179.006 593.7 177.041L588.556 180.252Z" fill="black"/>
<path opacity="0.1" d="M564.909 159.395H557.117V159.931H564.909V159.395Z" fill="black"/>
<path opacity="0.1" d="M577.823 167.237V178.066C577.434 177.648 577.218 177.098 577.219 176.527V168.77C577.219 168.201 577.435 167.654 577.823 167.237Z" fill="black"/>
<path opacity="0.1" d="M544.898 167.95V176.056C544.859 176.568 544.646 177.052 544.293 177.427V166.579C544.646 166.954 544.859 167.438 544.898 167.95Z" fill="black"/>
<path opacity="0.1" d="M575.624 188.493H546.406V188.875H575.624V188.493Z" fill="black"/>
<path opacity="0.1" d="M560.039 196.9H545.755V197.197H560.039V196.9Z" fill="black"/>
<path opacity="0.1" d="M575.622 196.9H561.338V197.197H575.622V196.9Z" fill="black"/>
<path d="M549.584 119.554H547.348V138.704H549.584V119.554Z" fill="#1CC886"/>
<path d="M575.222 119.554H572.986V138.704H575.222V119.554Z" fill="#1CC886"/>
<path opacity="0.1" d="M548.393 122.225C549.792 122.225 550.926 121.096 550.926 119.702C550.926 118.309 549.792 117.179 548.393 117.179C546.994 117.179 545.859 118.309 545.859 119.702C545.859 121.096 546.994 122.225 548.393 122.225Z" fill="black"/>
<path d="M548.393 122.077C549.792 122.077 550.926 120.948 550.926 119.554C550.926 118.161 549.792 117.031 548.393 117.031C546.994 117.031 545.859 118.161 545.859 119.554C545.859 120.948 546.994 122.077 548.393 122.077Z" fill="#1CC886"/>
<path opacity="0.1" d="M574.179 122.225C575.579 122.225 576.713 121.096 576.713 119.702C576.713 118.309 575.579 117.179 574.179 117.179C572.78 117.179 571.646 118.309 571.646 119.702C571.646 121.096 572.78 122.225 574.179 122.225Z" fill="black"/>
<path d="M574.179 122.077C575.579 122.077 576.713 120.948 576.713 119.554C576.713 118.161 575.579 117.031 574.179 117.031C572.78 117.031 571.646 118.161 571.646 119.554C571.646 120.948 572.78 122.077 574.179 122.077Z" fill="#1CC886"/>
</g>
<path d="M562.4 228.315C571.086 228.315 578.127 221.274 578.127 212.588C578.127 203.902 571.086 196.86 562.4 196.86C553.714 196.86 546.672 203.902 546.672 212.588C546.672 221.274 553.714 228.315 562.4 228.315Z" fill="#47E6B1"/>
<path d="M555.558 210.951L561.457 216.356L569.812 204.069L572.759 206.526L561.457 221.27L553.101 211.931L555.558 210.951Z" fill="white"/>
<g opacity="0.5">
<path opacity="0.5" d="M398 406.42C398 398.06 400.165 389.843 404.283 382.568C408.402 375.293 414.334 369.208 421.501 364.905C428.669 360.603 436.829 358.229 445.186 358.016C453.543 357.802 461.813 359.756 469.191 363.687C476.569 367.618 482.804 373.392 487.289 380.448C491.773 387.503 494.354 395.599 494.782 403.948C495.209 412.297 493.467 420.615 489.726 428.091C485.985 435.567 480.373 441.947 473.434 446.611L473.402 446.826C471.821 448.343 469.955 449.531 467.911 450.322L467.847 450.107C465.559 452.052 456.037 455.163 445.063 455.14H444.825C437.879 455.14 430.338 453.914 423.703 450.326C423.703 450.326 423.644 450.198 423.552 449.96C421.868 449.172 420.323 448.117 418.976 446.835C418.949 446.649 418.923 446.466 418.898 446.286C412.444 441.833 407.17 435.877 403.529 428.932C399.889 421.987 397.991 414.262 398 406.42Z" fill="url(#paint22_linear)"/>
</g>
<g filter="url(#filter10_dd)">
<path d="M446.418 453.392C472.357 453.392 493.385 432.364 493.385 406.425C493.385 380.486 472.357 359.458 446.418 359.458C420.479 359.458 399.451 380.486 399.451 406.425C399.451 432.364 420.479 453.392 446.418 453.392Z" fill="white"/>
</g>
<path d="M428.004 424.312C428.004 424.312 416.812 425.227 419.768 445.618C421.302 447.089 423.112 448.242 425.094 449.009L431.391 427.703L428.004 424.312Z" fill="#BE7C5E"/>
<path d="M464.319 424.312C464.319 424.312 475.512 425.227 472.556 445.618C471.019 447.09 469.205 448.243 467.22 449.009L460.924 427.703L464.319 424.312Z" fill="#BE7C5E"/>
<path d="M428.489 390.904C428.489 390.904 427.629 393.411 426.407 396.312C423.744 402.659 426.783 427.03 433.157 429.625C440.309 432.54 449.713 434.407 459.482 430.842C467.975 427.744 470.593 400.005 464.589 393.246C463.884 392.455 463.148 391.668 462.379 390.899L428.489 390.904Z" fill="#333333"/>
<path d="M446.454 410.273C457.953 410.273 467.275 400.952 467.275 389.453C467.275 377.954 457.953 368.632 446.454 368.632C434.956 368.632 425.634 377.954 425.634 389.453C425.634 400.952 434.956 410.273 446.454 410.273Z" fill="#333333"/>
<path opacity="0.1" d="M464.104 424.312H427.789L424.399 438.841C424.399 438.841 422.408 445.567 424.884 448.523C427.359 451.48 450.509 458.206 467.495 449.009C468.977 445.136 469.147 440.884 467.98 436.905C466.044 430.128 467.495 436.42 467.495 436.42L464.104 424.312Z" fill="black"/>
<path opacity="0.1" d="M464.589 424.312H428.274L424.884 438.841C424.884 438.841 422.893 445.567 425.369 448.523C427.844 451.48 450.994 458.206 467.98 449.009C469.462 445.136 469.632 440.884 468.465 436.905C466.529 430.128 467.98 436.42 467.98 436.42L464.589 424.312Z" fill="black"/>
<path d="M464.319 424.312H428.004L424.614 438.841C424.614 438.841 422.623 445.567 425.099 448.523C427.574 451.48 450.724 458.206 467.71 449.009C469.192 445.136 469.362 440.884 468.195 436.905C466.259 430.128 467.71 436.42 467.71 436.42L464.319 424.312Z" fill="#1CC886"/>
<path opacity="0.1" d="M439.138 412.264H453.666V424.161C453.666 426.018 452.929 427.799 451.616 429.112C450.303 430.425 448.522 431.163 446.665 431.163H446.143C444.286 431.163 442.506 430.425 441.193 429.112C439.88 427.799 439.142 426.018 439.142 424.161V412.264H439.138Z" fill="black"/>
<path d="M439.138 411.724H453.666V423.621C453.666 425.478 452.929 427.259 451.616 428.572C450.303 429.885 448.522 430.622 446.665 430.622H446.143C444.286 430.622 442.506 429.885 441.193 428.572C439.88 427.259 439.142 425.478 439.142 423.621V411.724H439.138Z" fill="#BE7C5E"/>
<path opacity="0.1" d="M439.17 413.815C443.852 415.565 449.006 415.58 453.698 413.856V412.072H439.17V413.815Z" fill="black"/>
<path d="M446.454 414.79C457.953 414.79 467.275 405.468 467.275 393.969C467.275 382.471 457.953 373.149 446.454 373.149C434.956 373.149 425.634 382.471 425.634 393.969C425.634 405.468 434.956 414.79 446.454 414.79Z" fill="#BE7C5E"/>
<path d="M426.549 386.062H466.255C466.255 386.062 462.864 370.046 447.855 371.053C432.846 372.06 426.549 386.062 426.549 386.062Z" fill="#333333"/>
<path d="M426.064 396.715C427.133 396.715 428 395.088 428 393.082C428 391.075 427.133 389.448 426.064 389.448C424.995 389.448 424.129 391.075 424.129 393.082C424.129 395.088 424.995 396.715 426.064 396.715Z" fill="#BE7C5E"/>
<path d="M466.74 396.715C467.809 396.715 468.675 395.088 468.675 393.082C468.675 391.075 467.809 389.448 466.74 389.448C465.671 389.448 464.804 391.075 464.804 393.082C464.804 395.088 465.671 396.715 466.74 396.715Z" fill="#BE7C5E"/>
<path opacity="0.1" d="M426.549 386.598H466.255C466.255 386.598 462.864 370.582 447.855 371.589C432.846 372.595 426.549 386.598 426.549 386.598Z" fill="black"/>
<g opacity="0.5">
<path opacity="0.5" d="M447.855 481.031C457.084 481.031 464.566 473.549 464.566 464.32C464.566 455.09 457.084 447.608 447.855 447.608C438.625 447.608 431.143 455.09 431.143 464.32C431.143 473.549 438.625 481.031 447.855 481.031Z" fill="url(#paint23_linear)"/>
</g>
<path d="M447.855 480.047C456.541 480.047 463.582 473.006 463.582 464.32C463.582 455.634 456.541 448.592 447.855 448.592C439.169 448.592 432.127 455.634 432.127 464.32C432.127 473.006 439.169 480.047 447.855 480.047Z" fill="#47E6B1"/>
<path d="M441.027 462.224L446.926 467.628L455.281 455.342L458.228 457.799L446.926 472.543L438.57 463.208L441.027 462.224Z" fill="white"/>
<defs>
<filter id="filter0_d" x="616" y="176" width="206" height="262" filterUnits="userSpaceOnUse" color-interpolation-filters="sRGB">
<feFlood flood-opacity="0" result="BackgroundImageFix"/>
<feColorMatrix in="SourceAlpha" type="matrix" values="0 0 0 0 0 0 0 0 0 0 0 0 0 0 0 0 0 0 127 0"/>
<feOffset dx="-4" dy="-16"/>
<feGaussianBlur stdDeviation="24"/>
<feColorMatrix type="matrix" values="0 0 0 0 0 0 0 0 0 0 0 0 0 0 0 0 0 0 0.08 0"/>
<feBlend mode="normal" in2="BackgroundImageFix" result="effect1_dropShadow"/>
<feBlend mode="normal" in="SourceGraphic" in2="effect1_dropShadow" result="shape"/>
</filter>
<filter id="filter1_d" x="616" y="76.9999" width="206" height="262" filterUnits="userSpaceOnUse" color-interpolation-filters="sRGB">
<feFlood flood-opacity="0" result="BackgroundImageFix"/>
<feColorMatrix in="SourceAlpha" type="matrix" values="0 0 0 0 0 0 0 0 0 0 0 0 0 0 0 0 0 0 127 0"/>
<feOffset dx="-4" dy="-16"/>
<feGaussianBlur stdDeviation="24"/>
<feColorMatrix type="matrix" values="0 0 0 0 0 0 0 0 0 0 0 0 0 0 0 0 0 0 0.08 0"/>
<feBlend mode="normal" in2="BackgroundImageFix" result="effect1_dropShadow"/>
<feBlend mode="normal" in="SourceGraphic" in2="effect1_dropShadow" result="shape"/>
</filter>
<filter id="filter2_d" x="507" y="242" width="206" height="262" filterUnits="userSpaceOnUse" color-interpolation-filters="sRGB">
<feFlood flood-opacity="0" result="BackgroundImageFix"/>
<feColorMatrix in="SourceAlpha" type="matrix" values="0 0 0 0 0 0 0 0 0 0 0 0 0 0 0 0 0 0 127 0"/>
<feOffset dx="-4" dy="-16"/>
<feGaussianBlur stdDeviation="24"/>
<feColorMatrix type="matrix" values="0 0 0 0 0 0 0 0 0 0 0 0 0 0 0 0 0 0 0.08 0"/>
<feBlend mode="normal" in2="BackgroundImageFix" result="effect1_dropShadow"/>
<feBlend mode="normal" in="SourceGraphic" in2="effect1_dropShadow" result="shape"/>
</filter>
<filter id="filter3_d" x="398" y="76.9999" width="206" height="262" filterUnits="userSpaceOnUse" color-interpolation-filters="sRGB">
<feFlood flood-opacity="0" result="BackgroundImageFix"/>
<feColorMatrix in="SourceAlpha" type="matrix" values="0 0 0 0 0 0 0 0 0 0 0 0 0 0 0 0 0 0 127 0"/>
<feOffset dx="-4" dy="-16"/>
<feGaussianBlur stdDeviation="24"/>
<feColorMatrix type="matrix" values="0 0 0 0 0 0 0 0 0 0 0 0 0 0 0 0 0 0 0.08 0"/>
<feBlend mode="normal" in2="BackgroundImageFix" result="effect1_dropShadow"/>
<feBlend mode="normal" in="SourceGraphic" in2="effect1_dropShadow" result="shape"/>
</filter>
<filter id="filter4_d" x="289" y="176" width="206" height="262" filterUnits="userSpaceOnUse" color-interpolation-filters="sRGB">
<feFlood flood-opacity="0" result="BackgroundImageFix"/>
<feColorMatrix in="SourceAlpha" type="matrix" values="0 0 0 0 0 0 0 0 0 0 0 0 0 0 0 0 0 0 127 0"/>
<feOffset dx="-4" dy="-16"/>
<feGaussianBlur stdDeviation="24"/>
<feColorMatrix type="matrix" values="0 0 0 0 0 0 0 0 0 0 0 0 0 0 0 0 0 0 0.08 0"/>
<feBlend mode="normal" in2="BackgroundImageFix" result="effect1_dropShadow"/>
<feBlend mode="normal" in="SourceGraphic" in2="effect1_dropShadow" result="shape"/>
</filter>
<filter id="filter5_d" x="289" y="275" width="206" height="262" filterUnits="userSpaceOnUse" color-interpolation-filters="sRGB">
<feFlood flood-opacity="0" result="BackgroundImageFix"/>
<feColorMatrix in="SourceAlpha" type="matrix" values="0 0 0 0 0 0 0 0 0 0 0 0 0 0 0 0 0 0 127 0"/>
<feOffset dx="-4" dy="-16"/>
<feGaussianBlur stdDeviation="24"/>
<feColorMatrix type="matrix" values="0 0 0 0 0 0 0 0 0 0 0 0 0 0 0 0 0 0 0.08 0"/>
<feBlend mode="normal" in2="BackgroundImageFix" result="effect1_dropShadow"/>
<feBlend mode="normal" in="SourceGraphic" in2="effect1_dropShadow" result="shape"/>
</filter>
<filter id="filter6_d" x="180" y="110" width="206" height="262" filterUnits="userSpaceOnUse" color-interpolation-filters="sRGB">
<feFlood flood-opacity="0" result="BackgroundImageFix"/>
<feColorMatrix in="SourceAlpha" type="matrix" values="0 0 0 0 0 0 0 0 0 0 0 0 0 0 0 0 0 0 127 0"/>
<feOffset dx="-4" dy="-16"/>
<feGaussianBlur stdDeviation="24"/>
<feColorMatrix type="matrix" values="0 0 0 0 0 0 0 0 0 0 0 0 0 0 0 0 0 0 0.08 0"/>
<feBlend mode="normal" in2="BackgroundImageFix" result="effect1_dropShadow"/>
<feBlend mode="normal" in="SourceGraphic" in2="effect1_dropShadow" result="shape"/>
</filter>
<filter id="filter7_d" x="70.9999" y="275" width="206" height="262" filterUnits="userSpaceOnUse" color-interpolation-filters="sRGB">
<feFlood flood-opacity="0" result="BackgroundImageFix"/>
<feColorMatrix in="SourceAlpha" type="matrix" values="0 0 0 0 0 0 0 0 0 0 0 0 0 0 0 0 0 0 127 0"/>
<feOffset dx="-4" dy="-16"/>
<feGaussianBlur stdDeviation="24"/>
<feColorMatrix type="matrix" values="0 0 0 0 0 0 0 0 0 0 0 0 0 0 0 0 0 0 0.08 0"/>
<feBlend mode="normal" in2="BackgroundImageFix" result="effect1_dropShadow"/>
<feBlend mode="normal" in="SourceGraphic" in2="effect1_dropShadow" result="shape"/>
</filter>
<filter id="filter8_dd" x="151.455" y="114.867" width="163.935" height="163.935" filterUnits="userSpaceOnUse" color-interpolation-filters="sRGB">
<feFlood flood-opacity="0" result="BackgroundImageFix"/>
<feColorMatrix in="SourceAlpha" type="matrix" values="0 0 0 0 0 0 0 0 0 0 0 0 0 0 0 0 0 0 127 0"/>
<feOffset dy="8"/>
<feGaussianBlur stdDeviation="7.5"/>
<feColorMatrix type="matrix" values="0 0 0 0 0 0 0 0 0 0 0 0 0 0 0 0 0 0 0.07 0"/>
<feBlend mode="normal" in2="BackgroundImageFix" result="effect1_dropShadow"/>
<feColorMatrix in="SourceAlpha" type="matrix" values="0 0 0 0 0 0 0 0 0 0 0 0 0 0 0 0 0 0 127 0"/>
<feOffset dy="18"/>
<feGaussianBlur stdDeviation="17.5"/>
<feColorMatrix type="matrix" values="0 0 0 0 0.196078 0 0 0 0 0.196078 0 0 0 0 0.364706 0 0 0 0.1 0"/>
<feBlend mode="normal" in2="effect1_dropShadow" result="effect2_dropShadow"/>
<feBlend mode="normal" in="SourceGraphic" in2="effect2_dropShadow" result="shape"/>
</filter>
<filter id="filter9_dd" x="479" y="95" width="163.935" height="163.935" filterUnits="userSpaceOnUse" color-interpolation-filters="sRGB">
<feFlood flood-opacity="0" result="BackgroundImageFix"/>
<feColorMatrix in="SourceAlpha" type="matrix" values="0 0 0 0 0 0 0 0 0 0 0 0 0 0 0 0 0 0 127 0"/>
<feOffset dy="8"/>
<feGaussianBlur stdDeviation="7.5"/>
<feColorMatrix type="matrix" values="0 0 0 0 0 0 0 0 0 0 0 0 0 0 0 0 0 0 0.07 0"/>
<feBlend mode="normal" in2="BackgroundImageFix" result="effect1_dropShadow"/>
<feColorMatrix in="SourceAlpha" type="matrix" values="0 0 0 0 0 0 0 0 0 0 0 0 0 0 0 0 0 0 127 0"/>
<feOffset dy="18"/>
<feGaussianBlur stdDeviation="17.5"/>
<feColorMatrix type="matrix" values="0 0 0 0 0.196078 0 0 0 0 0.196078 0 0 0 0 0.364706 0 0 0 0.1 0"/>
<feBlend mode="normal" in2="effect1_dropShadow" result="effect2_dropShadow"/>
<feBlend mode="normal" in="SourceGraphic" in2="effect2_dropShadow" result="shape"/>
</filter>
<filter id="filter10_dd" x="364.451" y="342.458" width="163.935" height="163.935" filterUnits="userSpaceOnUse" color-interpolation-filters="sRGB">
<feFlood flood-opacity="0" result="BackgroundImageFix"/>
<feColorMatrix in="SourceAlpha" type="matrix" values="0 0 0 0 0 0 0 0 0 0 0 0 0 0 0 0 0 0 127 0"/>
<feOffset dy="8"/>
<feGaussianBlur stdDeviation="7.5"/>
<feColorMatrix type="matrix" values="0 0 0 0 0 0 0 0 0 0 0 0 0 0 0 0 0 0 0.07 0"/>
<feBlend mode="normal" in2="BackgroundImageFix" result="effect1_dropShadow"/>
<feColorMatrix in="SourceAlpha" type="matrix" values="0 0 0 0 0 0 0 0 0 0 0 0 0 0 0 0 0 0 127 0"/>
<feOffset dy="18"/>
<feGaussianBlur stdDeviation="17.5"/>
<feColorMatrix type="matrix" values="0 0 0 0 0.196078 0 0 0 0 0.196078 0 0 0 0 0.364706 0 0 0 0.1 0"/>
<feBlend mode="normal" in2="effect1_dropShadow" result="effect2_dropShadow"/>
<feBlend mode="normal" in="SourceGraphic" in2="effect2_dropShadow" result="shape"/>
</filter>
<linearGradient id="paint0_linear" x1="447.5" y1="142" x2="383.5" y2="107" gradientUnits="userSpaceOnUse">
<stop stop-color="#D0D0D0"/>
<stop offset="1" stop-color="#D0D0D0" stop-opacity="0"/>
</linearGradient>
<linearGradient id="paint1_linear" x1="557.5" y1="175" x2="432.5" y2="100" gradientUnits="userSpaceOnUse">
<stop stop-color="#D0D0D0"/>
<stop offset="1" stop-color="#D0D0D0" stop-opacity="0"/>
</linearGradient>
<linearGradient id="paint2_linear" x1="449.023" y1="136.731" x2="449.118" y2="-9.04293" gradientUnits="userSpaceOnUse">
<stop stop-color="#D0D0D0"/>
<stop offset="1" stop-color="#D0D0D0" stop-opacity="0"/>
</linearGradient>
<linearGradient id="paint3_linear" x1="557.5" y1="76" x2="493.5" y2="41" gradientUnits="userSpaceOnUse">
<stop stop-color="#D0D0D0"/>
<stop offset="1" stop-color="#D0D0D0" stop-opacity="0"/>
</linearGradient>
<linearGradient id="paint4_linear" x1="343.5" y1="178" x2="283" y2="141" gradientUnits="userSpaceOnUse">
<stop stop-color="#D0D0D0"/>
<stop offset="1" stop-color="#D0D0D0" stop-opacity="0"/>
</linearGradient>
<linearGradient id="paint5_linear" x1="226.5" y1="239" x2="101.5" y2="164" gradientUnits="userSpaceOnUse">
<stop stop-color="#D0D0D0"/>
<stop offset="1" stop-color="#D0D0D0" stop-opacity="0"/>
</linearGradient>
<linearGradient id="paint6_linear" x1="226.5" y1="338" x2="101.5" y2="263" gradientUnits="userSpaceOnUse">
<stop stop-color="#D0D0D0"/>
<stop offset="1" stop-color="#D0D0D0" stop-opacity="0"/>
</linearGradient>
<linearGradient id="paint7_linear" x1="232.023" y1="236.731" x2="232.118" y2="90.9571" gradientUnits="userSpaceOnUse">
<stop stop-color="#D0D0D0"/>
<stop offset="1" stop-color="#D0D0D0" stop-opacity="0"/>
</linearGradient>
<linearGradient id="paint8_linear" x1="340.023" y1="166.731" x2="340.118" y2="20.9571" gradientUnits="userSpaceOnUse">
<stop stop-color="#D0D0D0"/>
<stop offset="1" stop-color="#D0D0D0" stop-opacity="0"/>
</linearGradient>
<linearGradient id="paint9_linear" x1="339.5" y1="274" x2="275.5" y2="239" gradientUnits="userSpaceOnUse">
<stop stop-color="#D0D0D0"/>
<stop offset="1" stop-color="#D0D0D0" stop-opacity="0"/>
</linearGradient>
<linearGradient id="paint10_linear" x1="229.5" y1="439" x2="165.5" y2="404" gradientUnits="userSpaceOnUse">
<stop stop-color="#D0D0D0"/>
<stop offset="1" stop-color="#D0D0D0" stop-opacity="0"/>
</linearGradient>
<linearGradient id="paint11_linear" x1="120.5" y1="505" x2="56.4999" y2="470" gradientUnits="userSpaceOnUse">
<stop stop-color="#D0D0D0"/>
<stop offset="1" stop-color="#D0D0D0" stop-opacity="0"/>
</linearGradient>
<linearGradient id="paint12_linear" x1="117.5" y1="404" x2="-7.50006" y2="329" gradientUnits="userSpaceOnUse">
<stop stop-color="#D0D0D0"/>
<stop offset="1" stop-color="#D0D0D0" stop-opacity="0"/>
</linearGradient>
<linearGradient id="paint13_linear" x1="117.696" y1="411.068" x2="-7.64949" y2="485.488" gradientUnits="userSpaceOnUse">
<stop stop-color="#D0D0D0"/>
<stop offset="1" stop-color="#D0D0D0" stop-opacity="0"/>
</linearGradient>
<linearGradient id="paint14_linear" x1="122.696" y1="507.068" x2="-2.64949" y2="581.488" gradientUnits="userSpaceOnUse">
<stop stop-color="#D0D0D0"/>
<stop offset="1" stop-color="#D0D0D0" stop-opacity="0"/>
</linearGradient>
<linearGradient id="paint15_linear" x1="81549.7" y1="28763.2" x2="81549.7" y2="8143.86" gradientUnits="userSpaceOnUse">
<stop stop-color="#808080" stop-opacity="0.25"/>
<stop offset="0.54" stop-color="#808080" stop-opacity="0.12"/>
<stop offset="1" stop-color="#808080" stop-opacity="0.1"/>
</linearGradient>
<linearGradient id="paint16_linear" x1="29765.3" y1="43142.3" x2="29765.3" y2="22521.3" gradientUnits="userSpaceOnUse">
<stop stop-color="#808080" stop-opacity="0.25"/>
<stop offset="0.54" stop-color="#808080" stop-opacity="0.12"/>
<stop offset="1" stop-color="#808080" stop-opacity="0.1"/>
</linearGradient>
<linearGradient id="paint17_linear" x1="4804.61" y1="14129.8" x2="4804.61" y2="11689" gradientUnits="userSpaceOnUse">
<stop stop-color="#808080" stop-opacity="0.25"/>
<stop offset="0.54" stop-color="#808080" stop-opacity="0.12"/>
<stop offset="1" stop-color="#808080" stop-opacity="0.1"/>
</linearGradient>
<linearGradient id="paint18_linear" x1="23116.5" y1="8822.49" x2="23116.5" y2="6381.64" gradientUnits="userSpaceOnUse">
<stop stop-color="#808080" stop-opacity="0.25"/>
<stop offset="0.54" stop-color="#808080" stop-opacity="0.12"/>
<stop offset="1" stop-color="#808080" stop-opacity="0.1"/>
</linearGradient>
<linearGradient id="paint19_linear" x1="44575.7" y1="61167.3" x2="44575.7" y2="19609.7" gradientUnits="userSpaceOnUse">
<stop stop-color="#808080" stop-opacity="0.25"/>
<stop offset="0.54" stop-color="#808080" stop-opacity="0.12"/>
<stop offset="1" stop-color="#808080" stop-opacity="0.1"/>
</linearGradient>
<linearGradient id="paint20_linear" x1="7435.43" y1="20189.3" x2="7435.43" y2="16138.8" gradientUnits="userSpaceOnUse">
<stop stop-color="#808080" stop-opacity="0.25"/>
<stop offset="0.54" stop-color="#808080" stop-opacity="0.12"/>
<stop offset="1" stop-color="#808080" stop-opacity="0.1"/>
</linearGradient>
<linearGradient id="paint21_linear" x1="8395.04" y1="20189.3" x2="8395.04" y2="16138.8" gradientUnits="userSpaceOnUse">
<stop stop-color="#808080" stop-opacity="0.25"/>
<stop offset="0.54" stop-color="#808080" stop-opacity="0.12"/>
<stop offset="1" stop-color="#808080" stop-opacity="0.1"/>
</linearGradient>
<linearGradient id="paint22_linear" x1="52039.9" y1="74207.1" x2="52039.9" y2="53586.1" gradientUnits="userSpaceOnUse">
<stop stop-color="#808080" stop-opacity="0.25"/>
<stop offset="0.54" stop-color="#808080" stop-opacity="0.12"/>
<stop offset="1" stop-color="#808080" stop-opacity="0.1"/>
</linearGradient>
<linearGradient id="paint23_linear" x1="14660.5" y1="24967.4" x2="14660.5" y2="22526.5" gradientUnits="userSpaceOnUse">
<stop stop-color="#808080" stop-opacity="0.25"/>
<stop offset="0.54" stop-color="#808080" stop-opacity="0.12"/>
<stop offset="1" stop-color="#808080" stop-opacity="0.1"/>
</linearGradient>
</defs>
</svg>
